<svg width="198" height="34" viewBox="0 0 198 34" fill="none" xmlns="http://www.w3.org/2000/svg">
<path d="M15.208 33.156C14.488 33.156 13.828 33.004 13.228 32.7C13.26 32.436 13.292 32.116 13.324 31.74L13.372 31.716C13.964 32.156 14.556 32.376 15.148 32.376C15.636 32.376 16.04 32.256 16.36 32.016C16.704 31.744 16.872 31.368 16.864 30.888C16.856 30.312 16.548 29.864 15.94 29.544C15.828 29.48 15.264 29.2 14.248 28.704C13.64 28.296 13.332 27.72 13.324 26.976C13.316 26.24 13.584 25.672 14.128 25.272C14.608 24.92 15.228 24.744 15.988 24.744C16.492 24.744 17.072 24.852 17.728 25.068L17.74 25.092C17.708 25.404 17.68 25.704 17.656 25.992L17.62 26.004C17.012 25.668 16.46 25.5 15.964 25.5C15.516 25.5 15.148 25.604 14.86 25.812C14.524 26.052 14.36 26.384 14.368 26.808C14.376 27.328 14.692 27.744 15.316 28.056C15.46 28.128 16.04 28.408 17.056 28.896C17.68 29.312 17.996 29.88 18.004 30.6C18.02 31.416 17.756 32.056 17.212 32.52C16.708 32.944 16.04 33.156 15.208 33.156ZM23.6893 25.02C23.6573 25.356 23.6413 25.616 23.6413 25.8L23.6173 25.824H23.2453C22.7493 25.824 22.2053 25.828 21.6133 25.836C21.5573 27.588 21.5293 29.228 21.5293 30.756C21.5293 31.524 21.5373 32.26 21.5533 32.964C21.2653 32.964 20.8653 32.984 20.3533 33.024C20.4733 30.528 20.5173 28.1 20.4853 25.74C19.7493 25.764 19.0773 25.792 18.4693 25.824C18.4693 25.656 18.4813 25.404 18.5053 25.068L18.5173 25.044C19.6613 25.06 21.3853 25.052 23.6893 25.02ZM29.7346 24.972C29.1906 25.98 28.3946 27.516 27.3466 29.58C27.3306 30.26 27.3226 30.88 27.3226 31.44C27.3226 32 27.3306 32.508 27.3466 32.964L27.3226 32.976C27.2346 32.976 26.8586 33.004 26.1946 33.06C26.2506 31.948 26.2746 30.924 26.2666 29.988C26.2666 29.892 26.2586 29.796 26.2426 29.7C25.4506 27.94 24.7106 26.384 24.0226 25.032C24.2866 25.032 24.6826 25.02 25.2106 24.996L25.2586 25.02C25.3946 25.38 25.9426 26.624 26.9026 28.752C27.7186 27.136 28.3186 25.896 28.7026 25.032L28.7506 24.984C28.9666 24.992 29.2946 24.988 29.7346 24.972ZM34.6831 32.964L34.6591 32.988H30.6511C30.7631 29.908 30.8071 27.608 30.7831 26.088C30.7751 25.68 30.7511 25.316 30.7111 24.996C30.9991 24.98 31.4151 24.96 31.9591 24.936C31.8311 26.928 31.7671 29.336 31.7671 32.16C32.6071 32.136 33.5951 32.096 34.7311 32.04C34.7231 32.248 34.7071 32.556 34.6831 32.964ZM39.779 28.428C39.755 28.636 39.735 28.904 39.719 29.232L39.707 29.244C39.451 29.244 39.035 29.232 38.459 29.208C38.075 29.192 37.655 29.184 37.199 29.184H36.947C36.923 30.208 36.911 31.228 36.911 32.244H37.355C39.139 32.244 40.031 32.244 40.031 32.244C40.015 32.42 39.999 32.676 39.983 33.012L39.959 33.036C39.735 33.044 39.495 33.048 39.239 33.048L35.795 33.036C35.867 31.772 35.907 30.708 35.915 29.844L35.927 28.452C35.943 26.964 35.935 25.836 35.903 25.068L35.927 25.056C36.855 25.056 38.251 25.044 40.115 25.02C40.083 25.356 40.059 25.624 40.043 25.824L40.031 25.848C39.831 25.848 39.359 25.832 38.615 25.8C38.055 25.776 37.583 25.764 37.199 25.764H37.043C37.003 26.564 36.975 27.452 36.959 28.428H39.779ZM43.9352 33.036L45.2553 29.088C45.7353 27.624 46.1473 26.292 46.4913 25.092L46.5393 25.044C47.1073 25.02 47.6073 24.992 48.0393 24.96L48.0753 24.996C48.3073 26.004 48.6473 27.328 49.0953 28.968C49.3913 30.064 49.7633 31.384 50.2113 32.928L50.1633 32.976L49.0473 33.036L49.0113 33C48.8833 32.432 48.6833 31.584 48.4113 30.456C47.5633 30.464 46.6513 30.48 45.6753 30.504C45.3873 31.496 45.1633 32.308 45.0033 32.94L44.9673 32.988C44.6153 32.988 44.2713 33.004 43.9352 33.036ZM47.1873 25.824L45.8913 29.808C46.6033 29.8 47.3833 29.784 48.2313 29.76L47.1873 25.824ZM57.0955 32.964C56.7995 32.964 56.3715 32.988 55.8115 33.036L55.7515 32.976C55.3835 32.224 54.7875 31.072 53.9635 29.52C53.2035 28.072 52.6075 26.916 52.1755 26.052C52.1755 27.548 52.2075 29.852 52.2715 32.964L52.2595 32.976C51.9395 32.984 51.6115 33.004 51.2755 33.036C51.3475 31.404 51.3835 29.54 51.3835 27.444C51.3835 26.188 51.3755 25.392 51.3595 25.056L51.4195 25.02C51.6115 25.02 52.0435 24.996 52.7155 24.948L52.7995 25.008L56.2915 31.884C56.2995 30.38 56.2755 28.104 56.2195 25.056L56.2315 25.044C56.5035 25.036 56.8275 25.016 57.2035 24.984C57.1075 28.392 57.0715 31.052 57.0955 32.964ZM59.256 33.048C59.36 30.92 59.392 28.624 59.352 26.16C59.352 25.944 59.328 25.576 59.28 25.056L59.34 25.02H59.628C59.868 25.02 60.228 25.008 60.708 24.984C61.196 24.952 61.56 24.936 61.8 24.936C62.808 24.936 63.568 25.116 64.08 25.476C64.928 26.076 65.364 27.1 65.388 28.548C65.396 29.26 65.292 29.916 65.076 30.516C64.764 31.372 64.268 32 63.588 32.4C63.02 32.736 62.328 32.928 61.512 32.976C61.512 32.976 60.76 33 59.256 33.048ZM61.632 25.632C61.44 25.632 61.052 25.648 60.468 25.68C60.388 27.624 60.352 29.824 60.36 32.28C61.344 32.272 62.052 32.184 62.484 32.016C63.172 31.752 63.668 31.212 63.972 30.396C64.18 29.836 64.28 29.188 64.272 28.452C64.248 26.572 63.368 25.632 61.632 25.632ZM71.5166 33.156C70.7966 33.156 70.1366 33.004 69.5366 32.7C69.5686 32.436 69.6006 32.116 69.6326 31.74L69.6806 31.716C70.2726 32.156 70.8646 32.376 71.4566 32.376C71.9446 32.376 72.3486 32.256 72.6686 32.016C73.0126 31.744 73.1806 31.368 73.1726 30.888C73.1646 30.312 72.8566 29.864 72.2486 29.544C72.1366 29.48 71.5726 29.2 70.5566 28.704C69.9486 28.296 69.6406 27.72 69.6326 26.976C69.6246 26.24 69.8926 25.672 70.4366 25.272C70.9166 24.92 71.5366 24.744 72.2966 24.744C72.8006 24.744 73.3806 24.852 74.0366 25.068L74.0486 25.092C74.0166 25.404 73.9886 25.704 73.9646 25.992L73.9286 26.004C73.3206 25.668 72.7686 25.5 72.2726 25.5C71.8246 25.5 71.4566 25.604 71.1686 25.812C70.8326 26.052 70.6686 26.384 70.6766 26.808C70.6846 27.328 71.0006 27.744 71.6246 28.056C71.7686 28.128 72.3486 28.408 73.3646 28.896C73.9886 29.312 74.3046 29.88 74.3126 30.6C74.3286 31.416 74.0646 32.056 73.5206 32.52C73.0166 32.944 72.3486 33.156 71.5166 33.156ZM78.5283 33.156C77.8483 33.156 77.2763 33 76.8123 32.688C76.3003 32.336 75.9923 31.836 75.8883 31.188C75.8643 31.02 75.8483 30.78 75.8403 30.468C75.8643 29.436 75.8803 27.884 75.8883 25.812C75.8803 25.572 75.8683 25.328 75.8523 25.08L75.9003 25.032H76.0443C76.3403 25.032 76.6763 25.016 77.0523 24.984C77.0363 25.512 77.0043 26.972 76.9563 29.364C76.9483 29.828 76.9443 30.108 76.9443 30.204C76.9683 31.676 77.5403 32.412 78.6603 32.412C79.8043 32.412 80.4283 31.692 80.5323 30.252C80.5403 30.124 80.5483 29.8 80.5563 29.28C80.5803 27.392 80.5763 25.972 80.5443 25.02C80.7043 25.012 81.0203 24.988 81.4922 24.948C81.4603 25.764 81.4363 27.412 81.4203 29.892C81.4123 30.956 81.2003 31.752 80.7843 32.28C80.3203 32.864 79.5683 33.156 78.5283 33.156ZM87.5489 27.156C87.5329 26.092 86.9649 25.56 85.8449 25.56C85.5649 25.56 85.2009 25.584 84.7529 25.632C84.7049 27.328 84.6809 28.872 84.6809 30.264C84.6809 31.24 84.6929 32.14 84.7169 32.964L84.7049 32.988C84.3129 32.996 83.9329 33.012 83.5649 33.036C83.5889 32.468 83.6129 31.404 83.6369 29.844L83.6489 29.112C83.6729 27.632 83.6609 26.248 83.6129 24.96C83.8129 24.96 84.2209 24.94 84.8369 24.9C85.3249 24.868 85.7329 24.852 86.0609 24.852C87.7409 24.852 88.5889 25.604 88.6049 27.108C88.6129 27.58 88.5049 28.016 88.2809 28.416C87.7689 29.336 86.7289 29.804 85.1609 29.82L84.8969 29.136C85.4809 29.112 85.9329 29.052 86.2529 28.956C87.1329 28.692 87.5649 28.092 87.5489 27.156ZM94.2754 27.156C94.2594 26.092 93.6914 25.56 92.5714 25.56C92.2914 25.56 91.9274 25.584 91.4794 25.632C91.4314 27.328 91.4074 28.872 91.4074 30.264C91.4074 31.24 91.4194 32.14 91.4434 32.964L91.4314 32.988C91.0394 32.996 90.6594 33.012 90.2914 33.036C90.3154 32.468 90.3394 31.404 90.3634 29.844L90.3754 29.112C90.3994 27.632 90.3874 26.248 90.3394 24.96C90.5394 24.96 90.9474 24.94 91.5634 24.9C92.0514 24.868 92.4594 24.852 92.7874 24.852C94.4674 24.852 95.3154 25.604 95.3314 27.108C95.3394 27.58 95.2314 28.016 95.0074 28.416C94.4954 29.336 93.4554 29.804 91.8874 29.82L91.6234 29.136C92.2074 29.112 92.6594 29.052 92.9794 28.956C93.8594 28.692 94.2914 28.092 94.2754 27.156ZM96.2202 29.184C96.1962 27.928 96.4522 26.9 96.9882 26.1C97.6122 25.188 98.5282 24.732 99.7362 24.732C100.816 24.732 101.64 25.132 102.208 25.932C102.704 26.628 102.968 27.54 103 28.668C103.032 29.932 102.78 30.964 102.244 31.764C101.636 32.684 100.724 33.144 99.5082 33.144C98.4202 33.144 97.5882 32.744 97.0122 31.944C96.5082 31.248 96.2442 30.328 96.2202 29.184ZM99.7122 25.464C98.1122 25.464 97.3362 26.676 97.3842 29.1C97.4002 29.98 97.5482 30.704 97.8282 31.272C98.2042 32.024 98.7842 32.4 99.5682 32.4C100.424 32.4 101.052 31.964 101.452 31.092C101.748 30.436 101.888 29.628 101.872 28.668C101.824 26.532 101.104 25.464 99.7122 25.464ZM106.527 29.556L106.263 28.992C107.271 28.848 107.903 28.652 108.159 28.404C108.295 28.268 108.407 28.064 108.495 27.792C108.583 27.52 108.627 27.276 108.627 27.06C108.619 26.084 108.039 25.596 106.887 25.596C106.695 25.596 106.367 25.604 105.903 25.62C105.863 27.436 105.843 28.976 105.843 30.24C105.843 31.368 105.859 32.276 105.891 32.964C105.587 32.972 105.203 32.996 104.739 33.036C104.787 31.084 104.815 29.896 104.823 29.472L104.835 28.716C104.851 27.524 104.835 26.268 104.787 24.948C104.963 24.948 105.367 24.932 105.999 24.9C106.471 24.876 106.871 24.864 107.199 24.864C108.831 24.864 109.659 25.536 109.683 26.88C109.691 27.456 109.491 27.996 109.083 28.5C108.675 29.004 108.187 29.32 107.619 29.448C108.483 30.776 109.003 31.564 109.179 31.812C109.635 32.412 109.955 32.82 110.139 33.036C109.555 33.06 109.131 33.084 108.867 33.108L108.807 33.072C107.807 31.496 107.047 30.324 106.527 29.556ZM115.424 25.02C115.392 25.356 115.376 25.616 115.376 25.8L115.352 25.824H114.98C114.484 25.824 113.94 25.828 113.348 25.836C113.292 27.588 113.264 29.228 113.264 30.756C113.264 31.524 113.272 32.26 113.288 32.964C113 32.964 112.6 32.984 112.088 33.024C112.208 30.528 112.252 28.1 112.22 25.74C111.484 25.764 110.812 25.792 110.204 25.824C110.204 25.656 110.216 25.404 110.24 25.068L110.252 25.044C111.396 25.06 113.12 25.052 115.424 25.02ZM123.217 28.428C123.193 28.636 123.173 28.904 123.157 29.232L123.145 29.244C122.889 29.244 122.473 29.232 121.897 29.208C121.513 29.192 121.093 29.184 120.637 29.184H120.385C120.361 30.208 120.349 31.228 120.349 32.244H120.793C122.577 32.244 123.469 32.244 123.469 32.244C123.453 32.42 123.437 32.676 123.421 33.012L123.397 33.036C123.173 33.044 122.933 33.048 122.677 33.048L119.233 33.036C119.305 31.772 119.345 30.708 119.353 29.844L119.365 28.452C119.381 26.964 119.373 25.836 119.341 25.068L119.365 25.056C120.293 25.056 121.689 25.044 123.553 25.02C123.521 25.356 123.497 25.624 123.481 25.824L123.469 25.848C123.269 25.848 122.797 25.832 122.053 25.8C121.493 25.776 121.021 25.764 120.637 25.764H120.481C120.441 26.564 120.413 27.452 120.397 28.428H123.217ZM130.275 24.996C129.875 26.34 129.063 28.988 127.839 32.94C127.655 32.94 127.167 32.964 126.375 33.012L126.339 32.964L124.455 25.86C124.415 25.708 124.343 25.44 124.239 25.056L124.311 25.02H124.443C124.643 25.02 124.971 25.004 125.427 24.972L125.451 25.008C125.763 26.472 126.351 28.808 127.215 32.016C127.687 30.512 128.363 28.204 129.243 25.092L129.279 25.044C129.623 25.036 129.955 25.02 130.275 24.996ZM135.205 28.428C135.181 28.636 135.161 28.904 135.145 29.232L135.133 29.244C134.877 29.244 134.461 29.232 133.885 29.208C133.501 29.192 133.081 29.184 132.625 29.184H132.373C132.349 30.208 132.337 31.228 132.337 32.244H132.781C134.565 32.244 135.457 32.244 135.457 32.244C135.441 32.42 135.425 32.676 135.409 33.012L135.385 33.036C135.161 33.044 134.921 33.048 134.665 33.048L131.221 33.036C131.293 31.772 131.333 30.708 131.341 29.844L131.353 28.452C131.369 26.964 131.361 25.836 131.329 25.068L131.353 25.056C132.281 25.056 133.677 25.044 135.541 25.02C135.509 25.356 135.485 25.624 135.469 25.824L135.457 25.848C135.257 25.848 134.785 25.832 134.041 25.8C133.481 25.776 133.009 25.764 132.625 25.764H132.469C132.429 26.564 132.401 27.452 132.385 28.428H135.205ZM138.988 29.556L138.724 28.992C139.732 28.848 140.364 28.652 140.62 28.404C140.756 28.268 140.868 28.064 140.956 27.792C141.044 27.52 141.088 27.276 141.088 27.06C141.08 26.084 140.5 25.596 139.348 25.596C139.156 25.596 138.828 25.604 138.364 25.62C138.324 27.436 138.304 28.976 138.304 30.24C138.304 31.368 138.32 32.276 138.352 32.964C138.048 32.972 137.664 32.996 137.2 33.036C137.248 31.084 137.276 29.896 137.284 29.472L137.296 28.716C137.312 27.524 137.296 26.268 137.248 24.948C137.424 24.948 137.828 24.932 138.46 24.9C138.932 24.876 139.332 24.864 139.66 24.864C141.292 24.864 142.12 25.536 142.144 26.88C142.152 27.456 141.952 27.996 141.544 28.5C141.136 29.004 140.648 29.32 140.08 29.448C140.944 30.776 141.464 31.564 141.64 31.812C142.096 32.412 142.416 32.82 142.6 33.036C142.016 33.06 141.592 33.084 141.328 33.108L141.268 33.072C140.268 31.496 139.508 30.324 138.988 29.556ZM148.551 24.972C148.007 25.98 147.211 27.516 146.163 29.58C146.147 30.26 146.139 30.88 146.139 31.44C146.139 32 146.147 32.508 146.163 32.964L146.139 32.976C146.051 32.976 145.675 33.004 145.011 33.06C145.067 31.948 145.091 30.924 145.083 29.988C145.083 29.892 145.075 29.796 145.059 29.7C144.267 27.94 143.527 26.384 142.839 25.032C143.103 25.032 143.499 25.02 144.027 24.996L144.075 25.02C144.211 25.38 144.759 26.624 145.719 28.752C146.535 27.136 147.135 25.896 147.519 25.032L147.567 24.984C147.783 24.992 148.111 24.988 148.551 24.972ZM152.001 33.06C152.049 32.628 152.153 31.008 152.313 28.2C152.353 27.624 152.417 26.584 152.505 25.08L152.577 25.032C153.009 25.024 153.473 25.004 153.969 24.972L154.005 25.008C154.189 25.616 154.477 26.456 154.869 27.528C155.317 28.752 155.645 29.668 155.853 30.276C156.109 29.596 156.541 28.564 157.149 27.18C157.677 25.972 157.973 25.276 158.037 25.092L158.073 25.056C158.329 25.048 158.813 25.024 159.525 24.984L159.573 27.552C159.581 28.008 159.617 28.904 159.681 30.24C159.729 31.376 159.753 32.28 159.753 32.952V32.964C159.481 32.972 159.109 32.992 158.637 33.024L158.625 26.1C157.777 28.004 156.913 29.916 156.033 31.836C155.985 31.836 155.801 31.848 155.481 31.872L155.457 31.836C155.369 31.468 154.977 30.388 154.281 28.596L153.261 25.992C153.189 27.512 153.097 29.844 152.985 32.988L152.973 33.012C152.629 33.02 152.305 33.036 152.001 33.06ZM161.236 29.184C161.212 27.928 161.468 26.9 162.004 26.1C162.628 25.188 163.544 24.732 164.752 24.732C165.832 24.732 166.656 25.132 167.224 25.932C167.72 26.628 167.984 27.54 168.016 28.668C168.048 29.932 167.796 30.964 167.26 31.764C166.652 32.684 165.74 33.144 164.524 33.144C163.436 33.144 162.604 32.744 162.028 31.944C161.524 31.248 161.26 30.328 161.236 29.184ZM164.728 25.464C163.128 25.464 162.352 26.676 162.4 29.1C162.416 29.98 162.564 30.704 162.844 31.272C163.22 32.024 163.8 32.4 164.584 32.4C165.44 32.4 166.068 31.964 166.468 31.092C166.764 30.436 166.904 29.628 166.888 28.668C166.84 26.532 166.12 25.464 164.728 25.464ZM169.274 33.06C169.322 32.628 169.426 31.008 169.586 28.2C169.626 27.624 169.69 26.584 169.778 25.08L169.85 25.032C170.282 25.024 170.746 25.004 171.242 24.972L171.278 25.008C171.462 25.616 171.75 26.456 172.142 27.528C172.59 28.752 172.918 29.668 173.126 30.276C173.382 29.596 173.814 28.564 174.422 27.18C174.95 25.972 175.246 25.276 175.31 25.092L175.346 25.056C175.602 25.048 176.086 25.024 176.798 24.984L176.846 27.552C176.854 28.008 176.89 28.904 176.954 30.24C177.002 31.376 177.026 32.28 177.026 32.952V32.964C176.754 32.972 176.382 32.992 175.91 33.024L175.898 26.1C175.05 28.004 174.186 29.916 173.306 31.836C173.258 31.836 173.074 31.848 172.754 31.872L172.73 31.836C172.642 31.468 172.25 30.388 171.554 28.596L170.534 25.992C170.462 27.512 170.37 29.844 170.258 32.988L170.246 33.012C169.902 33.02 169.578 33.036 169.274 33.06Z" fill="#2D477A"/>
<mask id="path-2-outside-1_55_16" maskUnits="userSpaceOnUse" x="-1" y="4" width="197" height="18" fill="black">
<rect fill="white" x="-1" y="4" width="197" height="18"/>
<path d="M5.86 14.08L5.76 14.06C4.86667 13.8333 4.16 13.54 3.64 13.18C2.50667 12.4333 1.90667 11.38 1.84 10.02C1.77333 8.9 2.11333 7.94667 2.86 7.16C3.32667 6.68 3.86667 6.33333 4.48 6.12C5.10667 5.89333 5.65333 5.78 6.12 5.78C6.74667 5.78 7.34667 5.86 7.92 6.02C8.49333 6.18 8.92 6.34 9.2 6.5C9.48 6.64667 9.85333 6.87333 10.32 7.18L10.78 7.48L9.32 9.86L8.82 9.54C8.43333 9.3 8.14667 9.12667 7.96 9.02C7.77333 8.91333 7.51333 8.81333 7.18 8.72C6.86 8.62667 6.50667 8.58 6.12 8.58C5.98667 8.58 5.78667 8.62667 5.52 8.72C5.25333 8.81333 5.04 8.94 4.88 9.1C4.70667 9.27333 4.62667 9.54 4.64 9.9C4.65333 10.26 4.79333 10.5533 5.06 10.78C5.34 10.9933 5.8 11.18 6.44 11.34C6.54667 11.3667 6.68 11.4067 6.84 11.46C8.18667 11.9267 9.22 12.5467 9.94 13.32C10.6733 14.1333 11.04 15.0467 11.04 16.06C11.04 17.0867 10.6667 18.0133 9.92 18.84C9.06667 19.8 7.99333 20.28 6.7 20.28C5.82 20.28 5 20.1667 4.24 19.94C2.96 19.54 1.84667 18.8333 0.9 17.82L2.94 15.9C3.92667 16.9533 5.18 17.48 6.7 17.48C7.20667 17.48 7.58667 17.3133 7.84 16.98C8.10667 16.6467 8.24 16.34 8.24 16.06C8.24 15.2867 7.46667 14.6333 5.92 14.1L5.86 14.08ZM19.9728 5.98H20.7928L27.4128 20H24.3128L20.3128 11.48L15.9728 20H12.8328L19.9728 5.98ZM40.4839 20L32.6039 11.82V20H29.8039V5.98H30.6839L38.4239 13.82V5.98H41.2239V20H40.4839ZM53.9673 5.98V8.78H47.4273V11.36H52.8273V14.16H47.4273V20H44.6273V5.98H53.9673ZM60.7658 5.98H61.5858L68.2058 20H65.1058L61.1058 11.48L56.7658 20H53.6258L60.7658 5.98ZM74.3561 14.08L74.2561 14.06C73.3628 13.8333 72.6561 13.54 72.1361 13.18C71.0028 12.4333 70.4028 11.38 70.3361 10.02C70.2694 8.9 70.6094 7.94667 71.3561 7.16C71.8228 6.68 72.3628 6.33333 72.9761 6.12C73.6028 5.89333 74.1494 5.78 74.6161 5.78C75.2428 5.78 75.8428 5.86 76.4161 6.02C76.9894 6.18 77.4161 6.34 77.6961 6.5C77.9761 6.64667 78.3494 6.87333 78.8161 7.18L79.2761 7.48L77.8161 9.86L77.3161 9.54C76.9294 9.3 76.6428 9.12667 76.4561 9.02C76.2694 8.91333 76.0094 8.81333 75.6761 8.72C75.3561 8.62667 75.0028 8.58 74.6161 8.58C74.4828 8.58 74.2828 8.62667 74.0161 8.72C73.7494 8.81333 73.5361 8.94 73.3761 9.1C73.2028 9.27333 73.1228 9.54 73.1361 9.9C73.1494 10.26 73.2894 10.5533 73.5561 10.78C73.8361 10.9933 74.2961 11.18 74.9361 11.34C75.0428 11.3667 75.1761 11.4067 75.3361 11.46C76.6828 11.9267 77.7161 12.5467 78.4361 13.32C79.1694 14.1333 79.5361 15.0467 79.5361 16.06C79.5361 17.0867 79.1628 18.0133 78.4161 18.84C77.5628 19.8 76.4894 20.28 75.1961 20.28C74.3161 20.28 73.4961 20.1667 72.7361 19.94C71.4561 19.54 70.3428 18.8333 69.3961 17.82L71.4361 15.9C72.4228 16.9533 73.6761 17.48 75.1961 17.48C75.7028 17.48 76.0828 17.3133 76.3361 16.98C76.6028 16.6467 76.7361 16.34 76.7361 16.06C76.7361 15.2867 75.9628 14.6333 74.4161 14.1L74.3561 14.08ZM101.466 7.3L99.6658 9.38C98.9991 8.95333 98.2591 8.72667 97.4458 8.7C96.6458 8.66 95.9058 8.8 95.2258 9.12C94.5591 9.44 93.9924 9.94667 93.5258 10.64C93.0724 11.32 92.8458 12.1133 92.8458 13.02C92.8458 13.9667 93.0858 14.7933 93.5658 15.5C94.0458 16.2067 94.6324 16.7133 95.3258 17.02C96.0324 17.3267 96.7991 17.4467 97.6258 17.38C98.4524 17.3133 99.1858 17.0333 99.8258 16.54L101.626 18.6C100.266 19.72 98.7191 20.28 96.9858 20.28C94.9858 20.28 93.2724 19.5733 91.8458 18.16C90.4324 16.7333 89.7258 15.02 89.7258 13.02C89.7258 11.02 90.4324 9.31333 91.8458 7.9C93.2724 6.47333 94.9858 5.76 96.9858 5.76C98.6524 5.76 100.146 6.27333 101.466 7.3ZM108.018 5.98V17.2H113.238V19.98H105.218V5.98H108.018ZM116.556 7.86C117.983 6.43333 119.696 5.72 121.696 5.72C123.696 5.72 125.403 6.43333 126.816 7.86C128.243 9.27333 128.956 10.98 128.956 12.98C128.956 14.98 128.243 16.6933 126.816 18.12C125.403 19.5333 123.696 20.24 121.696 20.24C119.696 20.24 117.983 19.5333 116.556 18.12C115.143 16.6933 114.436 14.98 114.436 12.98C114.436 10.98 115.143 9.27333 116.556 7.86ZM124.796 9.88C123.943 9.02667 122.909 8.6 121.696 8.6C120.483 8.6 119.449 9.02667 118.596 9.88C117.743 10.7333 117.316 11.7667 117.316 12.98C117.316 14.1933 117.743 15.2267 118.596 16.08C119.449 16.9333 120.483 17.36 121.696 17.36C122.909 17.36 123.943 16.9333 124.796 16.08C125.649 15.2267 126.076 14.1933 126.076 12.98C126.076 11.7667 125.649 10.7333 124.796 9.88ZM131.059 5.98H141.639V8.78H137.759V20H134.959V8.78H131.059V5.98ZM152.917 11.36V6H155.717V20H152.917V14.16H147.737V20H144.937V6H147.737V11.36H152.917ZM159.316 19.98V5.98H162.116V19.98H159.316ZM176.386 20L168.506 11.82V20H165.706V5.98H166.586L174.326 13.82V5.98H177.126V20H176.386ZM188.464 11.36H194.284V12.78C194.284 14.94 193.604 16.7267 192.244 18.14C190.884 19.54 189.244 20.24 187.324 20.24H187.304C185.291 20.2133 183.584 19.5 182.184 18.1C180.798 16.6867 180.111 14.9733 180.124 12.96C180.138 10.9733 180.851 9.28 182.264 7.88C183.691 6.48 185.398 5.78 187.384 5.78H187.444C189.111 5.79333 190.598 6.32667 191.904 7.38L189.884 9.36C189.164 8.86667 188.344 8.60667 187.424 8.58H187.384C186.158 8.58 185.111 9.01333 184.244 9.88C183.364 10.7333 182.924 11.7733 182.924 13C182.898 14.2267 183.318 15.28 184.184 16.16C185.051 17.0533 186.098 17.5 187.324 17.5C188.324 17.5 189.224 17.1867 190.024 16.56C190.824 15.92 191.358 15.12 191.624 14.16H188.464V11.36Z"/>
</mask>
<path d="M5.86 14.08L5.76 14.06C4.86667 13.8333 4.16 13.54 3.64 13.18C2.50667 12.4333 1.90667 11.38 1.84 10.02C1.77333 8.9 2.11333 7.94667 2.86 7.16C3.32667 6.68 3.86667 6.33333 4.48 6.12C5.10667 5.89333 5.65333 5.78 6.12 5.78C6.74667 5.78 7.34667 5.86 7.92 6.02C8.49333 6.18 8.92 6.34 9.2 6.5C9.48 6.64667 9.85333 6.87333 10.32 7.18L10.78 7.48L9.32 9.86L8.82 9.54C8.43333 9.3 8.14667 9.12667 7.96 9.02C7.77333 8.91333 7.51333 8.81333 7.18 8.72C6.86 8.62667 6.50667 8.58 6.12 8.58C5.98667 8.58 5.78667 8.62667 5.52 8.72C5.25333 8.81333 5.04 8.94 4.88 9.1C4.70667 9.27333 4.62667 9.54 4.64 9.9C4.65333 10.26 4.79333 10.5533 5.06 10.78C5.34 10.9933 5.8 11.18 6.44 11.34C6.54667 11.3667 6.68 11.4067 6.84 11.46C8.18667 11.9267 9.22 12.5467 9.94 13.32C10.6733 14.1333 11.04 15.0467 11.04 16.06C11.04 17.0867 10.6667 18.0133 9.92 18.84C9.06667 19.8 7.99333 20.28 6.7 20.28C5.82 20.28 5 20.1667 4.24 19.94C2.96 19.54 1.84667 18.8333 0.9 17.82L2.94 15.9C3.92667 16.9533 5.18 17.48 6.7 17.48C7.20667 17.48 7.58667 17.3133 7.84 16.98C8.10667 16.6467 8.24 16.34 8.24 16.06C8.24 15.2867 7.46667 14.6333 5.92 14.1L5.86 14.08ZM19.9728 5.98H20.7928L27.4128 20H24.3128L20.3128 11.48L15.9728 20H12.8328L19.9728 5.98ZM40.4839 20L32.6039 11.82V20H29.8039V5.98H30.6839L38.4239 13.82V5.98H41.2239V20H40.4839ZM53.9673 5.98V8.78H47.4273V11.36H52.8273V14.16H47.4273V20H44.6273V5.98H53.9673ZM60.7658 5.98H61.5858L68.2058 20H65.1058L61.1058 11.48L56.7658 20H53.6258L60.7658 5.98ZM74.3561 14.08L74.2561 14.06C73.3628 13.8333 72.6561 13.54 72.1361 13.18C71.0028 12.4333 70.4028 11.38 70.3361 10.02C70.2694 8.9 70.6094 7.94667 71.3561 7.16C71.8228 6.68 72.3628 6.33333 72.9761 6.12C73.6028 5.89333 74.1494 5.78 74.6161 5.78C75.2428 5.78 75.8428 5.86 76.4161 6.02C76.9894 6.18 77.4161 6.34 77.6961 6.5C77.9761 6.64667 78.3494 6.87333 78.8161 7.18L79.2761 7.48L77.8161 9.86L77.3161 9.54C76.9294 9.3 76.6428 9.12667 76.4561 9.02C76.2694 8.91333 76.0094 8.81333 75.6761 8.72C75.3561 8.62667 75.0028 8.58 74.6161 8.58C74.4828 8.58 74.2828 8.62667 74.0161 8.72C73.7494 8.81333 73.5361 8.94 73.3761 9.1C73.2028 9.27333 73.1228 9.54 73.1361 9.9C73.1494 10.26 73.2894 10.5533 73.5561 10.78C73.8361 10.9933 74.2961 11.18 74.9361 11.34C75.0428 11.3667 75.1761 11.4067 75.3361 11.46C76.6828 11.9267 77.7161 12.5467 78.4361 13.32C79.1694 14.1333 79.5361 15.0467 79.5361 16.06C79.5361 17.0867 79.1628 18.0133 78.4161 18.84C77.5628 19.8 76.4894 20.28 75.1961 20.28C74.3161 20.28 73.4961 20.1667 72.7361 19.94C71.4561 19.54 70.3428 18.8333 69.3961 17.82L71.4361 15.9C72.4228 16.9533 73.6761 17.48 75.1961 17.48C75.7028 17.48 76.0828 17.3133 76.3361 16.98C76.6028 16.6467 76.7361 16.34 76.7361 16.06C76.7361 15.2867 75.9628 14.6333 74.4161 14.1L74.3561 14.08ZM101.466 7.3L99.6658 9.38C98.9991 8.95333 98.2591 8.72667 97.4458 8.7C96.6458 8.66 95.9058 8.8 95.2258 9.12C94.5591 9.44 93.9924 9.94667 93.5258 10.64C93.0724 11.32 92.8458 12.1133 92.8458 13.02C92.8458 13.9667 93.0858 14.7933 93.5658 15.5C94.0458 16.2067 94.6324 16.7133 95.3258 17.02C96.0324 17.3267 96.7991 17.4467 97.6258 17.38C98.4524 17.3133 99.1858 17.0333 99.8258 16.54L101.626 18.6C100.266 19.72 98.7191 20.28 96.9858 20.28C94.9858 20.28 93.2724 19.5733 91.8458 18.16C90.4324 16.7333 89.7258 15.02 89.7258 13.02C89.7258 11.02 90.4324 9.31333 91.8458 7.9C93.2724 6.47333 94.9858 5.76 96.9858 5.76C98.6524 5.76 100.146 6.27333 101.466 7.3ZM108.018 5.98V17.2H113.238V19.98H105.218V5.98H108.018ZM116.556 7.86C117.983 6.43333 119.696 5.72 121.696 5.72C123.696 5.72 125.403 6.43333 126.816 7.86C128.243 9.27333 128.956 10.98 128.956 12.98C128.956 14.98 128.243 16.6933 126.816 18.12C125.403 19.5333 123.696 20.24 121.696 20.24C119.696 20.24 117.983 19.5333 116.556 18.12C115.143 16.6933 114.436 14.98 114.436 12.98C114.436 10.98 115.143 9.27333 116.556 7.86ZM124.796 9.88C123.943 9.02667 122.909 8.6 121.696 8.6C120.483 8.6 119.449 9.02667 118.596 9.88C117.743 10.7333 117.316 11.7667 117.316 12.98C117.316 14.1933 117.743 15.2267 118.596 16.08C119.449 16.9333 120.483 17.36 121.696 17.36C122.909 17.36 123.943 16.9333 124.796 16.08C125.649 15.2267 126.076 14.1933 126.076 12.98C126.076 11.7667 125.649 10.7333 124.796 9.88ZM131.059 5.98H141.639V8.78H137.759V20H134.959V8.78H131.059V5.98ZM152.917 11.36V6H155.717V20H152.917V14.16H147.737V20H144.937V6H147.737V11.36H152.917ZM159.316 19.98V5.98H162.116V19.98H159.316ZM176.386 20L168.506 11.82V20H165.706V5.98H166.586L174.326 13.82V5.98H177.126V20H176.386ZM188.464 11.36H194.284V12.78C194.284 14.94 193.604 16.7267 192.244 18.14C190.884 19.54 189.244 20.24 187.324 20.24H187.304C185.291 20.2133 183.584 19.5 182.184 18.1C180.798 16.6867 180.111 14.9733 180.124 12.96C180.138 10.9733 180.851 9.28 182.264 7.88C183.691 6.48 185.398 5.78 187.384 5.78H187.444C189.111 5.79333 190.598 6.32667 191.904 7.38L189.884 9.36C189.164 8.86667 188.344 8.60667 187.424 8.58H187.384C186.158 8.58 185.111 9.01333 184.244 9.88C183.364 10.7333 182.924 11.7733 182.924 13C182.898 14.2267 183.318 15.28 184.184 16.16C185.051 17.0533 186.098 17.5 187.324 17.5C188.324 17.5 189.224 17.1867 190.024 16.56C190.824 15.92 191.358 15.12 191.624 14.16H188.464V11.36Z" fill="#383686"/>
<path d="M5.86 14.08L6.17623 13.1313L6.11717 13.1116L6.05612 13.0994L5.86 14.08ZM5.76 14.06L5.51406 15.0293L5.53883 15.0356L5.56388 15.0406L5.76 14.06ZM3.64 13.18L4.20921 12.3578L4.19976 12.3513L4.19016 12.3449L3.64 13.18ZM1.84 10.02L2.83886 9.97104L2.83823 9.96058L1.84 10.02ZM2.86 7.16L2.14295 6.46287L2.13469 6.47157L2.86 7.16ZM4.48 6.12L4.80855 7.06457L4.82014 7.06038L4.48 6.12ZM7.92 6.02L8.1888 5.0568L8.1888 5.0568L7.92 6.02ZM9.2 6.5L8.70386 7.36824L8.71977 7.37733L8.73599 7.38583L9.2 6.5ZM10.32 7.18L9.77082 8.01571L9.77373 8.01761L10.32 7.18ZM10.78 7.48L11.6324 8.0029L12.141 7.17375L11.3263 6.64239L10.78 7.48ZM9.32 9.86L8.78095 10.7023L9.63943 11.2517L10.1724 10.3829L9.32 9.86ZM8.82 9.54L9.3591 8.69765L9.34736 8.69036L8.82 9.54ZM7.96 9.02L8.45614 8.15176L8.45614 8.15176L7.96 9.02ZM7.18 8.72L6.89998 9.68006L6.91037 9.68296L7.18 8.72ZM5.52 8.72L5.85035 9.66386L5.85035 9.66386L5.52 8.72ZM4.88 9.1L5.58711 9.80711L5.58711 9.80711L4.88 9.1ZM4.64 9.9L3.64069 9.93701L3.64069 9.93701L4.64 9.9ZM5.06 10.78L4.41235 11.5419L4.43271 11.5592L4.45396 11.5754L5.06 10.78ZM6.44 11.34L6.68254 10.3699L6.68254 10.3699L6.44 11.34ZM6.84 11.46L7.16745 10.5151L7.15623 10.5113L6.84 11.46ZM9.94 13.32L10.6827 12.6504L10.6773 12.6444L10.6719 12.6386L9.94 13.32ZM9.92 18.84L9.17787 18.1697L9.17259 18.1756L9.92 18.84ZM4.24 19.94L3.9417 20.8946L3.9542 20.8983L4.24 19.94ZM0.9 17.82L0.214635 17.0918L-0.51087 17.7746L0.169265 18.5027L0.9 17.82ZM2.94 15.9L3.66983 15.2164L2.98457 14.4848L2.25464 15.1718L2.94 15.9ZM7.84 16.98L7.05913 16.3553L7.05136 16.365L7.04384 16.3749L7.84 16.98ZM5.92 14.1L6.24601 13.1546L6.23623 13.1513L5.92 14.1ZM6.05612 13.0994L5.95612 13.0794L5.56388 15.0406L5.66388 15.0606L6.05612 13.0994ZM6.00594 13.0907C5.18011 12.8812 4.59719 12.6264 4.20921 12.3578L3.07079 14.0022C3.72281 14.4536 4.55323 14.7855 5.51406 15.0293L6.00594 13.0907ZM4.19016 12.3449C3.32422 11.7744 2.88991 11.0137 2.8388 9.97104L0.841199 10.069C0.923422 11.7463 1.68911 13.0922 3.08984 14.0151L4.19016 12.3449ZM2.83823 9.96058C2.78737 9.10614 3.03649 8.42664 3.58531 7.84843L2.13469 6.47157C1.19018 7.46669 0.759293 8.69386 0.841767 10.0794L2.83823 9.96058ZM3.577 7.85708C3.93865 7.48509 4.34679 7.2251 4.80852 7.0645L4.15148 5.1755C3.38654 5.44157 2.71468 5.87491 2.14301 6.46292L3.577 7.85708ZM4.82014 7.06038C5.38052 6.85768 5.80744 6.78 6.12 6.78V4.78C5.49923 4.78 4.83281 4.92898 4.13986 5.17962L4.82014 7.06038ZM6.12 6.78C6.66061 6.78 7.16989 6.84887 7.6512 6.9832L8.1888 5.0568C7.52345 4.87112 6.83272 4.78 6.12 4.78V6.78ZM7.6512 6.98319C8.19993 7.13633 8.53206 7.27007 8.70386 7.36824L9.69614 5.63176C9.30795 5.40993 8.78674 5.22367 8.1888 5.0568L7.6512 6.98319ZM8.73599 7.38583C8.97283 7.50989 9.31429 7.7157 9.77082 8.0157L10.8692 6.34429C10.3924 6.03097 9.98717 5.78344 9.66401 5.61417L8.73599 7.38583ZM9.77373 8.01761L10.2337 8.31761L11.3263 6.64239L10.8663 6.34239L9.77373 8.01761ZM9.92761 6.9571L8.46761 9.3371L10.1724 10.3829L11.6324 8.0029L9.92761 6.9571ZM9.85905 9.01773L9.35905 8.69773L8.28095 10.3823L8.78095 10.7023L9.85905 9.01773ZM9.34736 8.69036C8.9591 8.44937 8.65952 8.26797 8.45614 8.15176L7.46386 9.88824C7.63382 9.98536 7.90756 10.1506 8.29264 10.3896L9.34736 8.69036ZM8.45614 8.15176C8.16837 7.98732 7.82031 7.86083 7.44963 7.75704L6.91037 9.68296C7.20635 9.76584 7.37829 9.83935 7.46386 9.88824L8.45614 8.15176ZM7.46 7.76C7.03586 7.63629 6.58664 7.58 6.12 7.58V9.58C6.42669 9.58 6.68414 9.61704 6.9 9.68L7.46 7.76ZM6.12 7.58C5.80662 7.58 5.47088 7.67771 5.18965 7.77614L5.85035 9.66386C5.96144 9.62498 6.0423 9.60166 6.09723 9.58884C6.15813 9.57463 6.15919 9.58 6.12 9.58V7.58ZM5.18965 7.77614C4.81557 7.90707 4.46215 8.10364 4.17289 8.39289L5.58711 9.80711C5.61785 9.77636 5.6911 9.7196 5.85035 9.66386L5.18965 7.77614ZM4.17289 8.39289C3.72601 8.83978 3.62193 9.43066 3.64069 9.93701L5.63931 9.86299C5.6375 9.81403 5.63925 9.77805 5.64189 9.75329C5.64452 9.72858 5.64775 9.71761 5.64783 9.71735C5.64783 9.71734 5.64699 9.72014 5.64482 9.72525C5.64264 9.73039 5.6392 9.73765 5.63412 9.74646C5.62355 9.76483 5.60803 9.78618 5.58711 9.80711L4.17289 8.39289ZM3.64069 9.93701C3.66405 10.568 3.92499 11.1277 4.41235 11.5419L5.70765 10.0181C5.66168 9.97899 5.64261 9.95205 5.63931 9.86299L3.64069 9.93701ZM4.45396 11.5754C4.89939 11.9148 5.52076 12.141 6.19747 12.3101L6.68254 10.3699C6.07924 10.219 5.78061 10.0719 5.66604 9.98457L4.45396 11.5754ZM6.19746 12.3101C6.26993 12.3283 6.37673 12.3597 6.52377 12.4087L7.15623 10.5113C6.98327 10.4537 6.8234 10.4051 6.68254 10.3699L6.19746 12.3101ZM6.51257 12.4049C7.7564 12.8359 8.63138 13.382 9.20811 14.0014L10.6719 12.6386C9.80862 11.7114 8.61693 11.0174 7.16743 10.5151L6.51257 12.4049ZM9.19731 13.9896C9.77954 14.6354 10.04 15.3149 10.04 16.06H12.04C12.04 14.7784 11.5671 13.6313 10.6827 12.6504L9.19731 13.9896ZM10.04 16.06C10.04 16.8171 9.77389 17.5099 9.1779 18.1697L10.6621 19.5103C11.5594 18.5168 12.04 17.3563 12.04 16.06H10.04ZM9.17259 18.1756C8.51053 18.9205 7.70996 19.28 6.7 19.28V21.28C8.2767 21.28 9.62281 20.6795 10.6674 19.5044L9.17259 18.1756ZM6.7 19.28C5.9063 19.28 5.18352 19.1779 4.52581 18.9817L3.9542 20.8983C4.81648 21.1555 5.7337 21.28 6.7 21.28V19.28ZM4.53828 18.9855C3.4293 18.639 2.46341 18.0287 1.63074 17.1373L0.169265 18.5027C1.22992 19.638 2.4907 20.441 3.94173 20.8945L4.53828 18.9855ZM1.58536 18.5482L3.62536 16.6282L2.25464 15.1718L0.214635 17.0918L1.58536 18.5482ZM2.21017 16.5836C3.39691 17.8506 4.91997 18.48 6.7 18.48V16.48C5.44003 16.48 4.45642 16.0561 3.66983 15.2164L2.21017 16.5836ZM6.7 18.48C7.44573 18.48 8.15332 18.2204 8.63616 17.5851L7.04384 16.3749C7.02002 16.4063 6.96761 16.48 6.7 16.48V18.48ZM8.62087 17.6047C8.95856 17.1826 9.24 16.6591 9.24 16.06H7.24C7.24 16.0388 7.24534 16.0497 7.22293 16.1013C7.19963 16.1549 7.15169 16.2396 7.05913 16.3553L8.62087 17.6047ZM9.24 16.06C9.24 15.2938 8.84261 14.68 8.30535 14.2261C7.78417 13.7858 7.07307 13.4398 6.24599 13.1546L5.59401 15.0454C6.3136 15.2935 6.7625 15.5409 7.01465 15.7539C7.25072 15.9533 7.24 16.0528 7.24 16.06H9.24ZM6.23623 13.1513L6.17623 13.1313L5.54378 15.0287L5.60378 15.0487L6.23623 13.1513ZM19.9728 5.98V4.98H19.3599L19.0817 5.52619L19.9728 5.98ZM20.7928 5.98L21.6971 5.55302L21.4265 4.98H20.7928V5.98ZM27.4128 20V21H28.9909L28.3171 19.573L27.4128 20ZM24.3128 20L23.4076 20.425L23.6776 21H24.3128V20ZM20.3128 11.48L21.218 11.055L20.3494 9.20495L19.4218 11.0261L20.3128 11.48ZM15.9728 20V21H16.5857L16.8639 20.4539L15.9728 20ZM12.8328 20L11.9417 19.5462L11.2013 21H12.8328V20ZM19.9728 6.98H20.7928V4.98H19.9728V6.98ZM19.8886 6.40698L26.5086 20.427L28.3171 19.573L21.6971 5.55302L19.8886 6.40698ZM27.4128 19H24.3128V21H27.4128V19ZM25.218 19.575L21.218 11.055L19.4076 11.905L23.4076 20.425L25.218 19.575ZM19.4218 11.0261L15.0818 19.5461L16.8639 20.4539L21.2039 11.9339L19.4218 11.0261ZM15.9728 19H12.8328V21H15.9728V19ZM13.7239 20.4538L20.8639 6.43381L19.0817 5.52619L11.9417 19.5462L13.7239 20.4538ZM40.4839 20L39.7637 20.6938L40.0587 21H40.4839V20ZM32.6039 11.82L33.3241 11.1262L31.6039 9.34054V11.82H32.6039ZM32.6039 20V21H33.6039V20H32.6039ZM29.8039 20H28.8039V21H29.8039V20ZM29.8039 5.98V4.98H28.8039V5.98H29.8039ZM30.6839 5.98L31.3955 5.27745L31.1019 4.98H30.6839V5.98ZM38.4239 13.82L37.7123 14.5226L39.4239 16.2563V13.82H38.4239ZM38.4239 5.98V4.98H37.4239V5.98H38.4239ZM41.2239 5.98H42.2239V4.98H41.2239V5.98ZM41.2239 20V21H42.2239V20H41.2239ZM41.2041 19.3062L33.3241 11.1262L31.8837 12.5138L39.7637 20.6938L41.2041 19.3062ZM31.6039 11.82V20H33.6039V11.82H31.6039ZM32.6039 19H29.8039V21H32.6039V19ZM30.8039 20V5.98H28.8039V20H30.8039ZM29.8039 6.98H30.6839V4.98H29.8039V6.98ZM29.9723 6.68255L37.7123 14.5226L39.1355 13.1174L31.3955 5.27745L29.9723 6.68255ZM39.4239 13.82V5.98H37.4239V13.82H39.4239ZM38.4239 6.98H41.2239V4.98H38.4239V6.98ZM40.2239 5.98V20H42.2239V5.98H40.2239ZM41.2239 19H40.4839V21H41.2239V19ZM53.9673 5.98H54.9673V4.98H53.9673V5.98ZM53.9673 8.78V9.78H54.9673V8.78H53.9673ZM47.4273 8.78V7.78H46.4273V8.78H47.4273ZM47.4273 11.36H46.4273V12.36H47.4273V11.36ZM52.8273 11.36H53.8273V10.36H52.8273V11.36ZM52.8273 14.16V15.16H53.8273V14.16H52.8273ZM47.4273 14.16V13.16H46.4273V14.16H47.4273ZM47.4273 20V21H48.4273V20H47.4273ZM44.6273 20H43.6273V21H44.6273V20ZM44.6273 5.98V4.98H43.6273V5.98H44.6273ZM52.9673 5.98V8.78H54.9673V5.98H52.9673ZM53.9673 7.78H47.4273V9.78H53.9673V7.78ZM46.4273 8.78V11.36H48.4273V8.78H46.4273ZM47.4273 12.36H52.8273V10.36H47.4273V12.36ZM51.8273 11.36V14.16H53.8273V11.36H51.8273ZM52.8273 13.16H47.4273V15.16H52.8273V13.16ZM46.4273 14.16V20H48.4273V14.16H46.4273ZM47.4273 19H44.6273V21H47.4273V19ZM45.6273 20V5.98H43.6273V20H45.6273ZM44.6273 6.98H53.9673V4.98H44.6273V6.98ZM60.7658 5.98V4.98H60.1528L59.8747 5.52619L60.7658 5.98ZM61.5858 5.98L62.49 5.55302L62.2195 4.98H61.5858V5.98ZM68.2058 20V21H69.7838L69.11 19.573L68.2058 20ZM65.1058 20L64.2006 20.425L64.4705 21H65.1058V20ZM61.1058 11.48L62.011 11.055L61.1424 9.20495L60.2147 11.0261L61.1058 11.48ZM56.7658 20V21H57.3787L57.6568 20.4539L56.7658 20ZM53.6258 20L52.7347 19.5462L51.9943 21H53.6258V20ZM60.7658 6.98H61.5858V4.98H60.7658V6.98ZM60.6815 6.40698L67.3015 20.427L69.11 19.573L62.49 5.55302L60.6815 6.40698ZM68.2058 19H65.1058V21H68.2058V19ZM66.011 19.575L62.011 11.055L60.2006 11.905L64.2006 20.425L66.011 19.575ZM60.2147 11.0261L55.8747 19.5461L57.6568 20.4539L61.9968 11.9339L60.2147 11.0261ZM56.7658 19H53.6258V21H56.7658V19ZM54.5169 20.4538L61.6569 6.43381L59.8747 5.52619L52.7347 19.5462L54.5169 20.4538ZM74.3561 14.08L74.6723 13.1313L74.6133 13.1116L74.5522 13.0994L74.3561 14.08ZM74.2561 14.06L74.0102 15.0293L74.0349 15.0356L74.06 15.0406L74.2561 14.06ZM72.1361 13.18L72.7053 12.3578L72.6959 12.3513L72.6863 12.3449L72.1361 13.18ZM70.3361 10.02L71.3349 9.97104L71.3343 9.96058L70.3361 10.02ZM71.3561 7.16L70.639 6.46287L70.6308 6.47157L71.3561 7.16ZM72.9761 6.12L73.3046 7.06457L73.3162 7.06038L72.9761 6.12ZM76.4161 6.02L76.6849 5.0568L76.6849 5.0568L76.4161 6.02ZM77.6961 6.5L77.2 7.36824L77.2159 7.37733L77.2321 7.38583L77.6961 6.5ZM78.8161 7.18L78.2669 8.01571L78.2698 8.01761L78.8161 7.18ZM79.2761 7.48L80.1285 8.0029L80.6371 7.17375L79.8224 6.64239L79.2761 7.48ZM77.8161 9.86L77.277 10.7023L78.1355 11.2517L78.6685 10.3829L77.8161 9.86ZM77.3161 9.54L77.8552 8.69765L77.8435 8.69036L77.3161 9.54ZM76.4561 9.02L76.9522 8.15176L76.9522 8.15176L76.4561 9.02ZM75.6761 8.72L75.3961 9.68006L75.4065 9.68296L75.6761 8.72ZM74.0161 8.72L74.3464 9.66386L74.3464 9.66386L74.0161 8.72ZM73.3761 9.1L74.0832 9.80711L74.0832 9.80711L73.3761 9.1ZM73.1361 9.9L72.1368 9.93701L72.1368 9.93701L73.1361 9.9ZM73.5561 10.78L72.9084 11.5419L72.9288 11.5592L72.9501 11.5754L73.5561 10.78ZM74.9361 11.34L75.1786 10.3699L75.1786 10.3699L74.9361 11.34ZM75.3361 11.46L75.6635 10.5151L75.6523 10.5113L75.3361 11.46ZM78.4361 13.32L79.1788 12.6504L79.1734 12.6444L79.168 12.6386L78.4361 13.32ZM78.4161 18.84L77.674 18.1697L77.6687 18.1756L78.4161 18.84ZM72.7361 19.94L72.4378 20.8946L72.4503 20.8983L72.7361 19.94ZM69.3961 17.82L68.7107 17.0918L67.9852 17.7746L68.6654 18.5027L69.3961 17.82ZM71.4361 15.9L72.1659 15.2164L71.4807 14.4848L70.7507 15.1718L71.4361 15.9ZM76.3361 16.98L75.5552 16.3553L75.5475 16.365L75.5399 16.3749L76.3361 16.98ZM74.4161 14.1L74.7421 13.1546L74.7323 13.1513L74.4161 14.1ZM74.5522 13.0994L74.4522 13.0794L74.06 15.0406L74.16 15.0606L74.5522 13.0994ZM74.502 13.0907C73.6762 12.8812 73.0933 12.6264 72.7053 12.3578L71.5669 14.0022C72.2189 14.4536 73.0493 14.7855 74.0102 15.0293L74.502 13.0907ZM72.6863 12.3449C71.8203 11.7744 71.386 11.0137 71.3349 9.97104L69.3373 10.069C69.4195 11.7463 70.1852 13.0922 71.5859 14.0151L72.6863 12.3449ZM71.3343 9.96058C71.2835 9.10614 71.5326 8.42664 72.0814 7.84843L70.6308 6.47157C69.6863 7.46669 69.2554 8.69386 69.3379 10.0794L71.3343 9.96058ZM72.0731 7.85708C72.4347 7.48509 72.8429 7.2251 73.3046 7.0645L72.6476 5.1755C71.8826 5.44157 71.2108 5.87491 70.6391 6.46292L72.0731 7.85708ZM73.3162 7.06038C73.8766 6.85768 74.3035 6.78 74.6161 6.78V4.78C73.9953 4.78 73.3289 4.92898 72.636 5.17962L73.3162 7.06038ZM74.6161 6.78C75.1567 6.78 75.666 6.84887 76.1473 6.9832L76.6849 5.0568C76.0195 4.87112 75.3288 4.78 74.6161 4.78V6.78ZM76.1473 6.98319C76.696 7.13633 77.0281 7.27007 77.2 7.36824L78.1922 5.63176C77.804 5.40993 77.2828 5.22367 76.6849 5.0568L76.1473 6.98319ZM77.2321 7.38583C77.4689 7.50989 77.8104 7.7157 78.2669 8.0157L79.3653 6.34429C78.8885 6.03097 78.4833 5.78344 78.1601 5.61417L77.2321 7.38583ZM78.2698 8.01761L78.7298 8.31761L79.8224 6.64239L79.3624 6.34239L78.2698 8.01761ZM78.4237 6.9571L76.9637 9.3371L78.6685 10.3829L80.1285 8.0029L78.4237 6.9571ZM78.3551 9.01773L77.8551 8.69773L76.777 10.3823L77.277 10.7023L78.3551 9.01773ZM77.8435 8.69036C77.4552 8.44937 77.1556 8.26797 76.9522 8.15176L75.96 9.88824C76.1299 9.98536 76.4037 10.1506 76.7887 10.3896L77.8435 8.69036ZM76.9522 8.15176C76.6645 7.98732 76.3164 7.86083 75.9457 7.75704L75.4065 9.68296C75.7024 9.76584 75.8744 9.83935 75.96 9.88824L76.9522 8.15176ZM75.9561 7.76C75.532 7.63629 75.0827 7.58 74.6161 7.58V9.58C74.9228 9.58 75.1802 9.61704 75.3961 9.68L75.9561 7.76ZM74.6161 7.58C74.3027 7.58 73.967 7.67771 73.6857 7.77614L74.3464 9.66386C74.4575 9.62498 74.5384 9.60166 74.5933 9.58884C74.6542 9.57463 74.6553 9.58 74.6161 9.58V7.58ZM73.6857 7.77614C73.3117 7.90707 72.9582 8.10364 72.669 8.39289L74.0832 9.80711C74.1139 9.77636 74.1872 9.7196 74.3464 9.66386L73.6857 7.77614ZM72.669 8.39289C72.2221 8.83978 72.118 9.43066 72.1368 9.93701L74.1354 9.86299C74.1336 9.81403 74.1353 9.77805 74.138 9.75329C74.1406 9.72858 74.1438 9.71761 74.1439 9.71735C74.1439 9.71734 74.1431 9.72014 74.1409 9.72525C74.1387 9.73039 74.1353 9.73765 74.1302 9.74646C74.1196 9.76483 74.1041 9.78618 74.0832 9.80711L72.669 8.39289ZM72.1368 9.93701C72.1601 10.568 72.4211 11.1277 72.9084 11.5419L74.2037 10.0181C74.1578 9.97899 74.1387 9.95205 74.1354 9.86299L72.1368 9.93701ZM72.9501 11.5754C73.3955 11.9148 74.0169 12.141 74.6936 12.3101L75.1786 10.3699C74.5753 10.219 74.2767 10.0719 74.1621 9.98457L72.9501 11.5754ZM74.6936 12.3101C74.766 12.3283 74.8728 12.3597 75.0199 12.4087L75.6523 10.5113C75.4794 10.4537 75.3195 10.4051 75.1786 10.3699L74.6936 12.3101ZM75.0087 12.4049C76.2525 12.8359 77.1275 13.382 77.7042 14.0014L79.168 12.6386C78.3047 11.7114 77.113 11.0174 75.6635 10.5151L75.0087 12.4049ZM77.6934 13.9896C78.2756 14.6354 78.5361 15.3149 78.5361 16.06H80.5361C80.5361 14.7784 80.0632 13.6313 79.1788 12.6504L77.6934 13.9896ZM78.5361 16.06C78.5361 16.8171 78.27 17.5099 77.674 18.1697L79.1582 19.5103C80.0555 18.5168 80.5361 17.3563 80.5361 16.06H78.5361ZM77.6687 18.1756C77.0066 18.9205 76.2061 19.28 75.1961 19.28V21.28C76.7728 21.28 78.1189 20.6795 79.1635 19.5044L77.6687 18.1756ZM75.1961 19.28C74.4024 19.28 73.6796 19.1779 73.0219 18.9817L72.4503 20.8983C73.3126 21.1555 74.2298 21.28 75.1961 21.28V19.28ZM73.0344 18.9855C71.9254 18.639 70.9595 18.0287 70.1268 17.1373L68.6654 18.5027C69.726 19.638 70.9868 20.441 72.4378 20.8945L73.0344 18.9855ZM70.0815 18.5482L72.1215 16.6282L70.7507 15.1718L68.7107 17.0918L70.0815 18.5482ZM70.7063 16.5836C71.893 17.8506 73.4161 18.48 75.1961 18.48V16.48C73.9361 16.48 72.9525 16.0561 72.1659 15.2164L70.7063 16.5836ZM75.1961 18.48C75.9418 18.48 76.6494 18.2204 77.1323 17.5851L75.5399 16.3749C75.5161 16.4063 75.4637 16.48 75.1961 16.48V18.48ZM77.117 17.6047C77.4547 17.1826 77.7361 16.6591 77.7361 16.06H75.7361C75.7361 16.0388 75.7414 16.0497 75.719 16.1013C75.6957 16.1549 75.6478 16.2396 75.5552 16.3553L77.117 17.6047ZM77.7361 16.06C77.7361 15.2938 77.3387 14.68 76.8014 14.2261C76.2803 13.7858 75.5692 13.4398 74.7421 13.1546L74.0901 15.0454C74.8097 15.2935 75.2586 15.5409 75.5107 15.7539C75.7468 15.9533 75.7361 16.0528 75.7361 16.06H77.7361ZM74.7323 13.1513L74.6723 13.1313L74.0399 15.0287L74.0999 15.0487L74.7323 13.1513ZM101.466 7.3L102.222 7.95438L102.911 7.15758L102.08 6.51065L101.466 7.3ZM99.6658 9.38L99.1267 10.2223L99.8556 10.6888L100.422 10.0344L99.6658 9.38ZM97.4458 8.7L97.3958 9.69875L97.4044 9.69918L97.413 9.69946L97.4458 8.7ZM95.2258 9.12L94.8 8.21515L94.7931 8.21848L95.2258 9.12ZM93.5258 10.64L92.6962 10.0816L92.6937 10.0853L93.5258 10.64ZM93.5658 15.5L92.7386 16.0619L92.7386 16.0619L93.5658 15.5ZM95.3258 17.02L94.9213 17.9346L94.9277 17.9373L95.3258 17.02ZM97.6258 17.38L97.5454 16.3832L97.5454 16.3832L97.6258 17.38ZM99.8258 16.54L100.579 15.882L99.9601 15.1739L99.2153 15.748L99.8258 16.54ZM101.626 18.6L102.261 19.3719L103.056 18.7174L102.379 17.942L101.626 18.6ZM91.8458 18.16L91.1353 18.8638L91.142 18.8704L91.8458 18.16ZM91.8458 7.9L91.1387 7.19289L91.1387 7.19289L91.8458 7.9ZM100.71 6.64562L98.9096 8.72562L100.422 10.0344L102.222 7.95438L100.71 6.64562ZM100.205 8.53773C99.3822 8.01125 98.4664 7.73293 97.4786 7.70054L97.413 9.69946C98.0518 9.72041 98.616 9.89542 99.1267 10.2223L100.205 8.53773ZM97.4957 7.70125C96.5429 7.65361 95.6382 7.82073 94.8 8.21518L95.6516 10.0248C96.1734 9.77927 96.7486 9.66639 97.3958 9.69875L97.4957 7.70125ZM94.7931 8.21848C93.9459 8.62513 93.249 9.26025 92.6962 10.0816L94.3554 11.1984C94.7359 10.6331 95.1724 10.2549 95.6585 10.0215L94.7931 8.21848ZM92.6937 10.0853C92.1191 10.9473 91.8458 11.9383 91.8458 13.02H93.8458C93.8458 12.2883 94.0258 11.6927 94.3578 11.1947L92.6937 10.0853ZM91.8458 13.02C91.8458 14.1445 92.1339 15.1717 92.7386 16.0619L94.393 14.9381C94.0376 14.4149 93.8458 13.7889 93.8458 13.02H91.8458ZM92.7386 16.0619C93.31 16.9032 94.0358 17.5429 94.9213 17.9345L95.7303 16.1055C95.2291 15.8838 94.7816 15.5102 94.393 14.9381L92.7386 16.0619ZM94.9277 17.9373C95.7963 18.3143 96.7288 18.4556 97.7062 18.3768L97.5454 16.3832C96.8695 16.4377 96.2686 16.339 95.7239 16.1027L94.9277 17.9373ZM97.7062 18.3768C98.7202 18.295 99.6389 17.9467 100.436 17.332L99.2153 15.748C98.7327 16.12 98.1846 16.3317 97.5454 16.3832L97.7062 18.3768ZM99.0728 17.198L100.873 19.258L102.379 17.942L100.579 15.882L99.0728 17.198ZM100.99 17.8281C99.8059 18.8033 98.4831 19.28 96.9858 19.28V21.28C98.9552 21.28 100.726 20.6367 102.261 19.3719L100.99 17.8281ZM96.9858 19.28C95.2506 19.28 93.7898 18.6783 92.5496 17.4496L91.142 18.8704C92.7551 20.4684 94.721 21.28 96.9858 21.28V19.28ZM92.5562 17.4562C91.3275 16.2159 90.7258 14.7552 90.7258 13.02H88.7258C88.7258 15.2848 89.5374 17.2507 91.1354 18.8638L92.5562 17.4562ZM90.7258 13.02C90.7258 11.285 91.3272 9.83277 92.5529 8.60711L91.1387 7.19289C89.5377 8.79389 88.7258 10.755 88.7258 13.02H90.7258ZM92.5529 8.60711C93.7939 7.36612 95.2536 6.76 96.9858 6.76V4.76C94.718 4.76 92.751 5.58055 91.1387 7.19289L92.5529 8.60711ZM96.9858 6.76C98.4293 6.76 99.7067 7.19871 100.852 8.08935L102.08 6.51065C100.585 5.34795 98.8756 4.76 96.9858 4.76V6.76ZM108.018 5.98H109.018V4.98H108.018V5.98ZM108.018 17.2H107.018V18.2H108.018V17.2ZM113.238 17.2H114.238V16.2H113.238V17.2ZM113.238 19.98V20.98H114.238V19.98H113.238ZM105.218 19.98H104.218V20.98H105.218V19.98ZM105.218 5.98V4.98H104.218V5.98H105.218ZM107.018 5.98V17.2H109.018V5.98H107.018ZM108.018 18.2H113.238V16.2H108.018V18.2ZM112.238 17.2V19.98H114.238V17.2H112.238ZM113.238 18.98H105.218V20.98H113.238V18.98ZM106.218 19.98V5.98H104.218V19.98H106.218ZM105.218 6.98H108.018V4.98H105.218V6.98ZM116.556 7.86L117.263 8.56711L116.556 7.86ZM126.816 7.86L126.105 8.56381L126.112 8.57042L126.816 7.86ZM126.816 18.12L127.523 18.8271L127.523 18.8271L126.816 18.12ZM116.556 18.12L115.845 18.8238L115.852 18.8304L116.556 18.12ZM118.596 9.88L117.889 9.17289L117.889 9.17289L118.596 9.88ZM118.596 16.08L117.889 16.7871L117.889 16.7871L118.596 16.08ZM117.263 8.56711C118.504 7.32612 119.964 6.72 121.696 6.72V4.72C119.428 4.72 117.461 5.54055 115.849 7.15289L117.263 8.56711ZM121.696 6.72C123.428 6.72 124.879 7.32581 126.106 8.56378L127.526 7.15622C125.926 5.54086 123.964 4.72 121.696 4.72V6.72ZM126.112 8.57042C127.35 9.79682 127.956 11.2481 127.956 12.98H129.956C129.956 10.7119 129.135 8.74984 127.52 7.14958L126.112 8.57042ZM127.956 12.98C127.956 14.7122 127.35 16.1719 126.109 17.4129L127.523 18.8271C129.135 17.2148 129.956 15.2478 129.956 12.98H127.956ZM126.109 17.4129C124.883 18.6386 123.431 19.24 121.696 19.24V21.24C123.961 21.24 125.922 20.4281 127.523 18.8271L126.109 17.4129ZM121.696 19.24C119.961 19.24 118.5 18.6383 117.26 17.4096L115.852 18.8304C117.465 20.4284 119.431 21.24 121.696 21.24V19.24ZM117.266 17.4162C116.038 16.1759 115.436 14.7152 115.436 12.98H113.436C113.436 15.2448 114.248 17.2107 115.846 18.8238L117.266 17.4162ZM115.436 12.98C115.436 11.245 116.037 9.79277 117.263 8.56711L115.849 7.15289C114.248 8.75389 113.436 10.715 113.436 12.98H115.436ZM125.503 9.17289C124.461 8.13088 123.173 7.6 121.696 7.6V9.6C122.646 9.6 123.424 9.92245 124.089 10.5871L125.503 9.17289ZM121.696 7.6C120.219 7.6 118.931 8.13088 117.889 9.17289L119.303 10.5871C119.968 9.92245 120.746 9.6 121.696 9.6V7.6ZM117.889 9.17289C116.847 10.2149 116.316 11.5031 116.316 12.98H118.316C118.316 12.0303 118.638 11.2518 119.303 10.5871L117.889 9.17289ZM116.316 12.98C116.316 14.4569 116.847 15.7451 117.889 16.7871L119.303 15.3729C118.638 14.7082 118.316 13.9297 118.316 12.98H116.316ZM117.889 16.7871C118.931 17.8291 120.219 18.36 121.696 18.36V16.36C120.746 16.36 119.968 16.0375 119.303 15.3729L117.889 16.7871ZM121.696 18.36C123.173 18.36 124.461 17.8291 125.503 16.7871L124.089 15.3729C123.424 16.0375 122.646 16.36 121.696 16.36V18.36ZM125.503 16.7871C126.545 15.7451 127.076 14.4569 127.076 12.98H125.076C125.076 13.9297 124.753 14.7082 124.089 15.3729L125.503 16.7871ZM127.076 12.98C127.076 11.5031 126.545 10.2149 125.503 9.17289L124.089 10.5871C124.753 11.2518 125.076 12.0303 125.076 12.98H127.076ZM131.059 5.98V4.98H130.059V5.98H131.059ZM141.639 5.98H142.639V4.98H141.639V5.98ZM141.639 8.78V9.78H142.639V8.78H141.639ZM137.759 8.78V7.78H136.759V8.78H137.759ZM137.759 20V21H138.759V20H137.759ZM134.959 20H133.959V21H134.959V20ZM134.959 8.78H135.959V7.78H134.959V8.78ZM131.059 8.78H130.059V9.78H131.059V8.78ZM131.059 6.98H141.639V4.98H131.059V6.98ZM140.639 5.98V8.78H142.639V5.98H140.639ZM141.639 7.78H137.759V9.78H141.639V7.78ZM136.759 8.78V20H138.759V8.78H136.759ZM137.759 19H134.959V21H137.759V19ZM135.959 20V8.78H133.959V20H135.959ZM134.959 7.78H131.059V9.78H134.959V7.78ZM132.059 8.78V5.98H130.059V8.78H132.059ZM152.917 11.36V12.36H153.917V11.36H152.917ZM152.917 6V5H151.917V6H152.917ZM155.717 6H156.717V5H155.717V6ZM155.717 20V21H156.717V20H155.717ZM152.917 20H151.917V21H152.917V20ZM152.917 14.16H153.917V13.16H152.917V14.16ZM147.737 14.16V13.16H146.737V14.16H147.737ZM147.737 20V21H148.737V20H147.737ZM144.937 20H143.937V21H144.937V20ZM144.937 6V5H143.937V6H144.937ZM147.737 6H148.737V5H147.737V6ZM147.737 11.36H146.737V12.36H147.737V11.36ZM153.917 11.36V6H151.917V11.36H153.917ZM152.917 7H155.717V5H152.917V7ZM154.717 6V20H156.717V6H154.717ZM155.717 19H152.917V21H155.717V19ZM153.917 20V14.16H151.917V20H153.917ZM152.917 13.16H147.737V15.16H152.917V13.16ZM146.737 14.16V20H148.737V14.16H146.737ZM147.737 19H144.937V21H147.737V19ZM145.937 20V6H143.937V20H145.937ZM144.937 7H147.737V5H144.937V7ZM146.737 6V11.36H148.737V6H146.737ZM147.737 12.36H152.917V10.36H147.737V12.36ZM159.316 19.98H158.316V20.98H159.316V19.98ZM159.316 5.98V4.98H158.316V5.98H159.316ZM162.116 5.98H163.116V4.98H162.116V5.98ZM162.116 19.98V20.98H163.116V19.98H162.116ZM160.316 19.98V5.98H158.316V19.98H160.316ZM159.316 6.98H162.116V4.98H159.316V6.98ZM161.116 5.98V19.98H163.116V5.98H161.116ZM162.116 18.98H159.316V20.98H162.116V18.98ZM176.386 20L175.666 20.6938L175.961 21H176.386V20ZM168.506 11.82L169.226 11.1262L167.506 9.34054V11.82H168.506ZM168.506 20V21H169.506V20H168.506ZM165.706 20H164.706V21H165.706V20ZM165.706 5.98V4.98H164.706V5.98H165.706ZM166.586 5.98L167.298 5.27745L167.004 4.98H166.586V5.98ZM174.326 13.82L173.615 14.5226L175.326 16.2563V13.82H174.326ZM174.326 5.98V4.98H173.326V5.98H174.326ZM177.126 5.98H178.126V4.98H177.126V5.98ZM177.126 20V21H178.126V20H177.126ZM177.106 19.3062L169.226 11.1262L167.786 12.5138L175.666 20.6938L177.106 19.3062ZM167.506 11.82V20H169.506V11.82H167.506ZM168.506 19H165.706V21H168.506V19ZM166.706 20V5.98H164.706V20H166.706ZM165.706 6.98H166.586V4.98H165.706V6.98ZM165.875 6.68255L173.615 14.5226L175.038 13.1174L167.298 5.27745L165.875 6.68255ZM175.326 13.82V5.98H173.326V13.82H175.326ZM174.326 6.98H177.126V4.98H174.326V6.98ZM176.126 5.98V20H178.126V5.98H176.126ZM177.126 19H176.386V21H177.126V19ZM188.464 11.36V10.36H187.464V11.36H188.464ZM194.284 11.36H195.284V10.36H194.284V11.36ZM192.244 18.14L192.962 18.8368L192.965 18.8334L192.244 18.14ZM187.304 20.24L187.291 21.24H187.304V20.24ZM182.184 18.1L181.47 18.8004L181.477 18.8071L182.184 18.1ZM180.124 12.96L179.124 12.9533L179.124 12.9534L180.124 12.96ZM182.264 7.88L181.564 7.16625L181.56 7.16955L182.264 7.88ZM187.444 5.78L187.452 4.78H187.444V5.78ZM191.904 7.38L192.604 8.09414L193.407 7.3071L192.532 6.60146L191.904 7.38ZM189.884 9.36L189.319 10.1849L189.997 10.6496L190.584 10.0741L189.884 9.36ZM187.424 8.58L187.453 7.58042L187.439 7.58H187.424V8.58ZM184.244 9.88L184.94 10.5979L184.946 10.5925L184.951 10.5871L184.244 9.88ZM182.924 13L183.924 13.0217L183.924 13.0109V13H182.924ZM184.184 16.16L184.902 15.4637L184.897 15.4583L184.184 16.16ZM190.024 16.56L190.641 17.3473L190.649 17.3409L190.024 16.56ZM191.624 14.16L192.588 14.4276L192.94 13.16H191.624V14.16ZM188.464 14.16H187.464V15.16H188.464V14.16ZM188.464 12.36H194.284V10.36H188.464V12.36ZM193.284 11.36V12.78H195.284V11.36H193.284ZM193.284 12.78C193.284 14.71 192.685 16.2392 191.524 17.4466L192.965 18.8334C194.523 17.2141 195.284 15.17 195.284 12.78H193.284ZM191.527 17.4432C190.352 18.653 188.969 19.24 187.324 19.24V21.24C189.519 21.24 191.417 20.427 192.961 18.8368L191.527 17.4432ZM187.324 19.24H187.304V21.24H187.324V19.24ZM187.317 19.2401C185.56 19.2168 184.104 18.6051 182.891 17.3929L181.477 18.8071C183.065 20.3949 185.022 21.2099 187.291 21.2399L187.317 19.2401ZM182.898 17.3997C181.7 16.1785 181.113 14.7207 181.124 12.9666L179.124 12.9534C179.109 15.2259 179.895 17.1949 181.47 18.8003L182.898 17.3997ZM181.124 12.9667C181.136 11.245 181.742 9.80456 182.968 8.59045L181.56 7.16955C179.959 8.75544 179.139 10.7017 179.124 12.9533L181.124 12.9667ZM182.965 8.59375C184.206 7.37595 185.661 6.78 187.384 6.78V4.78C185.134 4.78 183.176 5.58405 181.564 7.16625L182.965 8.59375ZM187.384 6.78H187.444V4.78H187.384V6.78ZM187.436 6.77997C188.876 6.79148 190.144 7.24572 191.277 8.15854L192.532 6.60146C191.051 5.40761 189.346 4.79518 187.452 4.78003L187.436 6.77997ZM191.204 6.66586L189.184 8.64586L190.584 10.0741L192.604 8.09414L191.204 6.66586ZM190.449 8.53507C189.562 7.92723 188.554 7.61233 187.453 7.58042L187.395 9.57958C188.134 9.60101 188.766 9.80611 189.319 10.1849L190.449 8.53507ZM187.424 7.58H187.384V9.58H187.424V7.58ZM187.384 7.58C185.893 7.58 184.591 8.11851 183.537 9.17289L184.951 10.5871C185.63 9.90815 186.423 9.58 187.384 9.58V7.58ZM183.548 9.1621C182.474 10.2039 181.924 11.503 181.924 13H183.924C183.924 12.0437 184.255 11.2627 184.94 10.5979L183.548 9.1621ZM181.924 12.9783C181.892 14.477 182.417 15.7907 183.472 16.8617L184.897 15.4583C184.218 14.7693 183.903 13.9763 183.924 13.0217L181.924 12.9783ZM183.466 16.8563C184.518 17.9406 185.823 18.5 187.324 18.5V16.5C186.372 16.5 185.583 16.1661 184.902 15.4637L183.466 16.8563ZM187.324 18.5C188.552 18.5 189.668 18.1093 190.641 17.3472L189.408 15.7728C188.78 16.264 188.097 16.5 187.324 16.5V18.5ZM190.649 17.3409C191.608 16.5736 192.263 15.5961 192.588 14.4276L190.661 13.8924C190.452 14.6439 190.04 15.2664 189.4 15.7791L190.649 17.3409ZM191.624 13.16H188.464V15.16H191.624V13.16ZM189.464 14.16V11.36H187.464V14.16H189.464Z" fill="black" fill-opacity="0.01" mask="url(#path-2-outside-1_55_16)"/>
</svg>
