<svg width="195" height="16" viewBox="0 0 195 16" fill="none" xmlns="http://www.w3.org/2000/svg">
<path d="M5.86 9.08L5.76 9.06C4.86667 8.83333 4.16 8.54 3.64 8.18C2.50667 7.43333 1.90667 6.38 1.84 5.02C1.77333 3.9 2.11333 2.94667 2.86 2.16C3.32667 1.68 3.86667 1.33333 4.48 1.12C5.10667 0.893333 5.65333 0.779999 6.12 0.779999C6.74667 0.779999 7.34667 0.859999 7.92 1.02C8.49333 1.18 8.92 1.34 9.2 1.5C9.48 1.64667 9.85333 1.87333 10.32 2.18L10.78 2.48L9.32 4.86L8.82 4.54C8.43333 4.3 8.14667 4.12667 7.96 4.02C7.77333 3.91333 7.51333 3.81333 7.18 3.72C6.86 3.62667 6.50667 3.58 6.12 3.58C5.98667 3.58 5.78667 3.62667 5.52 3.72C5.25333 3.81333 5.04 3.94 4.88 4.1C4.70667 4.27333 4.62667 4.54 4.64 4.9C4.65333 5.26 4.79333 5.55333 5.06 5.78C5.34 5.99333 5.8 6.18 6.44 6.34C6.54667 6.36667 6.68 6.40667 6.84 6.46C8.18667 6.92667 9.22 7.54667 9.94 8.32C10.6733 9.13333 11.04 10.0467 11.04 11.06C11.04 12.0867 10.6667 13.0133 9.92 13.84C9.06667 14.8 7.99333 15.28 6.7 15.28C5.82 15.28 5 15.1667 4.24 14.94C2.96 14.54 1.84667 13.8333 0.9 12.82L2.94 10.9C3.92667 11.9533 5.18 12.48 6.7 12.48C7.20667 12.48 7.58667 12.3133 7.84 11.98C8.10667 11.6467 8.24 11.34 8.24 11.06C8.24 10.2867 7.46667 9.63333 5.92 9.1L5.86 9.08ZM19.9728 0.979999H20.7928L27.4128 15H24.3128L20.3128 6.48L15.9728 15H12.8328L19.9728 0.979999ZM40.4839 15L32.6039 6.82V15H29.8039V0.979999H30.6839L38.4239 8.82V0.979999H41.2239V15H40.4839ZM53.9673 0.979999V3.78H47.4273V6.36H52.8273V9.16H47.4273V15H44.6273V0.979999H53.9673ZM60.7658 0.979999H61.5858L68.2058 15H65.1058L61.1058 6.48L56.7658 15H53.6258L60.7658 0.979999ZM74.3561 9.08L74.2561 9.06C73.3628 8.83333 72.6561 8.54 72.1361 8.18C71.0028 7.43333 70.4028 6.38 70.3361 5.02C70.2694 3.9 70.6094 2.94667 71.3561 2.16C71.8228 1.68 72.3628 1.33333 72.9761 1.12C73.6028 0.893333 74.1494 0.779999 74.6161 0.779999C75.2428 0.779999 75.8428 0.859999 76.4161 1.02C76.9894 1.18 77.4161 1.34 77.6961 1.5C77.9761 1.64667 78.3494 1.87333 78.8161 2.18L79.2761 2.48L77.8161 4.86L77.3161 4.54C76.9294 4.3 76.6428 4.12667 76.4561 4.02C76.2694 3.91333 76.0094 3.81333 75.6761 3.72C75.3561 3.62667 75.0028 3.58 74.6161 3.58C74.4828 3.58 74.2828 3.62667 74.0161 3.72C73.7494 3.81333 73.5361 3.94 73.3761 4.1C73.2028 4.27333 73.1228 4.54 73.1361 4.9C73.1494 5.26 73.2894 5.55333 73.5561 5.78C73.8361 5.99333 74.2961 6.18 74.9361 6.34C75.0428 6.36667 75.1761 6.40667 75.3361 6.46C76.6828 6.92667 77.7161 7.54667 78.4361 8.32C79.1694 9.13333 79.5361 10.0467 79.5361 11.06C79.5361 12.0867 79.1628 13.0133 78.4161 13.84C77.5628 14.8 76.4894 15.28 75.1961 15.28C74.3161 15.28 73.4961 15.1667 72.7361 14.94C71.4561 14.54 70.3428 13.8333 69.3961 12.82L71.4361 10.9C72.4228 11.9533 73.6761 12.48 75.1961 12.48C75.7028 12.48 76.0828 12.3133 76.3361 11.98C76.6028 11.6467 76.7361 11.34 76.7361 11.06C76.7361 10.2867 75.9628 9.63333 74.4161 9.1L74.3561 9.08ZM101.466 2.3L99.6658 4.38C98.9991 3.95333 98.2591 3.72667 97.4458 3.7C96.6458 3.66 95.9058 3.8 95.2258 4.12C94.5591 4.44 93.9924 4.94667 93.5258 5.64C93.0724 6.32 92.8458 7.11333 92.8458 8.02C92.8458 8.96667 93.0858 9.79333 93.5658 10.5C94.0458 11.2067 94.6324 11.7133 95.3258 12.02C96.0324 12.3267 96.7991 12.4467 97.6258 12.38C98.4524 12.3133 99.1858 12.0333 99.8258 11.54L101.626 13.6C100.266 14.72 98.7191 15.28 96.9858 15.28C94.9858 15.28 93.2724 14.5733 91.8458 13.16C90.4324 11.7333 89.7258 10.02 89.7258 8.02C89.7258 6.02 90.4324 4.31333 91.8458 2.9C93.2724 1.47333 94.9858 0.76 96.9858 0.76C98.6524 0.76 100.146 1.27333 101.466 2.3ZM108.018 0.979999V12.2H113.238V14.98H105.218V0.979999H108.018ZM116.556 2.86C117.983 1.43333 119.696 0.719999 121.696 0.719999C123.696 0.719999 125.403 1.43333 126.816 2.86C128.243 4.27333 128.956 5.98 128.956 7.98C128.956 9.98 128.243 11.6933 126.816 13.12C125.403 14.5333 123.696 15.24 121.696 15.24C119.696 15.24 117.983 14.5333 116.556 13.12C115.143 11.6933 114.436 9.98 114.436 7.98C114.436 5.98 115.143 4.27333 116.556 2.86ZM124.796 4.88C123.943 4.02667 122.909 3.6 121.696 3.6C120.483 3.6 119.449 4.02667 118.596 4.88C117.743 5.73333 117.316 6.76667 117.316 7.98C117.316 9.19333 117.743 10.2267 118.596 11.08C119.449 11.9333 120.483 12.36 121.696 12.36C122.909 12.36 123.943 11.9333 124.796 11.08C125.649 10.2267 126.076 9.19333 126.076 7.98C126.076 6.76667 125.649 5.73333 124.796 4.88ZM131.059 0.979999H141.639V3.78H137.759V15H134.959V3.78H131.059V0.979999ZM152.917 6.36V0.999999H155.717V15H152.917V9.16H147.737V15H144.937V0.999999H147.737V6.36H152.917ZM159.316 14.98V0.979999H162.116V14.98H159.316ZM176.386 15L168.506 6.82V15H165.706V0.979999H166.586L174.326 8.82V0.979999H177.126V15H176.386ZM188.464 6.36H194.284V7.78C194.284 9.94 193.604 11.7267 192.244 13.14C190.884 14.54 189.244 15.24 187.324 15.24H187.304C185.291 15.2133 183.584 14.5 182.184 13.1C180.798 11.6867 180.111 9.97333 180.124 7.96C180.138 5.97333 180.851 4.28 182.264 2.88C183.691 1.48 185.398 0.779999 187.384 0.779999H187.444C189.111 0.793333 190.598 1.32667 191.904 2.38L189.884 4.36C189.164 3.86667 188.344 3.60667 187.424 3.58H187.384C186.158 3.58 185.111 4.01333 184.244 4.88C183.364 5.73333 182.924 6.77333 182.924 8C182.898 9.22667 183.318 10.28 184.184 11.16C185.051 12.0533 186.098 12.5 187.324 12.5C188.324 12.5 189.224 12.1867 190.024 11.56C190.824 10.92 191.358 10.12 191.624 9.16H188.464V6.36Z" fill="#2D477A"/>
</svg>
