<svg width="195" height="16" viewBox="0 0 195 16" fill="none" xmlns="http://www.w3.org/2000/svg">
<mask id="path-1-outside-1_47_25" maskUnits="userSpaceOnUse" x="-1" y="-1" width="197" height="18" fill="black">
<rect fill="white" x="-1" y="-1" width="197" height="18"/>
<path d="M5.86 9.08L5.76 9.06C4.86667 8.83333 4.16 8.54 3.64 8.18C2.50667 7.43333 1.90667 6.38 1.84 5.02C1.77333 3.9 2.11333 2.94667 2.86 2.16C3.32667 1.68 3.86667 1.33333 4.48 1.12C5.10667 0.893333 5.65333 0.779999 6.12 0.779999C6.74667 0.779999 7.34667 0.859999 7.92 1.02C8.49333 1.18 8.92 1.34 9.2 1.5C9.48 1.64667 9.85333 1.87333 10.32 2.18L10.78 2.48L9.32 4.86L8.82 4.54C8.43333 4.3 8.14667 4.12667 7.96 4.02C7.77333 3.91333 7.51333 3.81333 7.18 3.72C6.86 3.62667 6.50667 3.58 6.12 3.58C5.98667 3.58 5.78667 3.62667 5.52 3.72C5.25333 3.81333 5.04 3.94 4.88 4.1C4.70667 4.27333 4.62667 4.54 4.64 4.9C4.65333 5.26 4.79333 5.55333 5.06 5.78C5.34 5.99333 5.8 6.18 6.44 6.34C6.54667 6.36667 6.68 6.40667 6.84 6.46C8.18667 6.92667 9.22 7.54667 9.94 8.32C10.6733 9.13333 11.04 10.0467 11.04 11.06C11.04 12.0867 10.6667 13.0133 9.92 13.84C9.06667 14.8 7.99333 15.28 6.7 15.28C5.82 15.28 5 15.1667 4.24 14.94C2.96 14.54 1.84667 13.8333 0.9 12.82L2.94 10.9C3.92667 11.9533 5.18 12.48 6.7 12.48C7.20667 12.48 7.58667 12.3133 7.84 11.98C8.10667 11.6467 8.24 11.34 8.24 11.06C8.24 10.2867 7.46667 9.63333 5.92 9.1L5.86 9.08ZM19.9728 0.979999H20.7928L27.4128 15H24.3128L20.3128 6.48L15.9728 15H12.8328L19.9728 0.979999ZM40.4839 15L32.6039 6.82V15H29.8039V0.979999H30.6839L38.4239 8.82V0.979999H41.2239V15H40.4839ZM53.9673 0.979999V3.78H47.4273V6.36H52.8273V9.16H47.4273V15H44.6273V0.979999H53.9673ZM60.7658 0.979999H61.5858L68.2058 15H65.1058L61.1058 6.48L56.7658 15H53.6258L60.7658 0.979999ZM74.3561 9.08L74.2561 9.06C73.3628 8.83333 72.6561 8.54 72.1361 8.18C71.0028 7.43333 70.4028 6.38 70.3361 5.02C70.2694 3.9 70.6094 2.94667 71.3561 2.16C71.8228 1.68 72.3628 1.33333 72.9761 1.12C73.6028 0.893333 74.1494 0.779999 74.6161 0.779999C75.2428 0.779999 75.8428 0.859999 76.4161 1.02C76.9894 1.18 77.4161 1.34 77.6961 1.5C77.9761 1.64667 78.3494 1.87333 78.8161 2.18L79.2761 2.48L77.8161 4.86L77.3161 4.54C76.9294 4.3 76.6428 4.12667 76.4561 4.02C76.2694 3.91333 76.0094 3.81333 75.6761 3.72C75.3561 3.62667 75.0028 3.58 74.6161 3.58C74.4828 3.58 74.2828 3.62667 74.0161 3.72C73.7494 3.81333 73.5361 3.94 73.3761 4.1C73.2028 4.27333 73.1228 4.54 73.1361 4.9C73.1494 5.26 73.2894 5.55333 73.5561 5.78C73.8361 5.99333 74.2961 6.18 74.9361 6.34C75.0428 6.36667 75.1761 6.40667 75.3361 6.46C76.6828 6.92667 77.7161 7.54667 78.4361 8.32C79.1694 9.13333 79.5361 10.0467 79.5361 11.06C79.5361 12.0867 79.1628 13.0133 78.4161 13.84C77.5628 14.8 76.4894 15.28 75.1961 15.28C74.3161 15.28 73.4961 15.1667 72.7361 14.94C71.4561 14.54 70.3428 13.8333 69.3961 12.82L71.4361 10.9C72.4228 11.9533 73.6761 12.48 75.1961 12.48C75.7028 12.48 76.0828 12.3133 76.3361 11.98C76.6028 11.6467 76.7361 11.34 76.7361 11.06C76.7361 10.2867 75.9628 9.63333 74.4161 9.1L74.3561 9.08ZM101.466 2.3L99.6658 4.38C98.9991 3.95333 98.2591 3.72667 97.4458 3.7C96.6458 3.66 95.9058 3.8 95.2258 4.12C94.5591 4.44 93.9924 4.94667 93.5258 5.64C93.0724 6.32 92.8458 7.11333 92.8458 8.02C92.8458 8.96667 93.0858 9.79333 93.5658 10.5C94.0458 11.2067 94.6324 11.7133 95.3258 12.02C96.0324 12.3267 96.7991 12.4467 97.6258 12.38C98.4524 12.3133 99.1858 12.0333 99.8258 11.54L101.626 13.6C100.266 14.72 98.7191 15.28 96.9858 15.28C94.9858 15.28 93.2724 14.5733 91.8458 13.16C90.4324 11.7333 89.7258 10.02 89.7258 8.02C89.7258 6.02 90.4324 4.31333 91.8458 2.9C93.2724 1.47333 94.9858 0.76 96.9858 0.76C98.6524 0.76 100.146 1.27333 101.466 2.3ZM108.018 0.979999V12.2H113.238V14.98H105.218V0.979999H108.018ZM116.556 2.86C117.983 1.43333 119.696 0.719999 121.696 0.719999C123.696 0.719999 125.403 1.43333 126.816 2.86C128.243 4.27333 128.956 5.98 128.956 7.98C128.956 9.98 128.243 11.6933 126.816 13.12C125.403 14.5333 123.696 15.24 121.696 15.24C119.696 15.24 117.983 14.5333 116.556 13.12C115.143 11.6933 114.436 9.98 114.436 7.98C114.436 5.98 115.143 4.27333 116.556 2.86ZM124.796 4.88C123.943 4.02667 122.909 3.6 121.696 3.6C120.483 3.6 119.449 4.02667 118.596 4.88C117.743 5.73333 117.316 6.76667 117.316 7.98C117.316 9.19333 117.743 10.2267 118.596 11.08C119.449 11.9333 120.483 12.36 121.696 12.36C122.909 12.36 123.943 11.9333 124.796 11.08C125.649 10.2267 126.076 9.19333 126.076 7.98C126.076 6.76667 125.649 5.73333 124.796 4.88ZM131.059 0.979999H141.639V3.78H137.759V15H134.959V3.78H131.059V0.979999ZM152.917 6.36V0.999999H155.717V15H152.917V9.16H147.737V15H144.937V0.999999H147.737V6.36H152.917ZM159.316 14.98V0.979999H162.116V14.98H159.316ZM176.386 15L168.506 6.82V15H165.706V0.979999H166.586L174.326 8.82V0.979999H177.126V15H176.386ZM188.464 6.36H194.284V7.78C194.284 9.94 193.604 11.7267 192.244 13.14C190.884 14.54 189.244 15.24 187.324 15.24H187.304C185.291 15.2133 183.584 14.5 182.184 13.1C180.798 11.6867 180.111 9.97333 180.124 7.96C180.138 5.97333 180.851 4.28 182.264 2.88C183.691 1.48 185.398 0.779999 187.384 0.779999H187.444C189.111 0.793333 190.598 1.32667 191.904 2.38L189.884 4.36C189.164 3.86667 188.344 3.60667 187.424 3.58H187.384C186.158 3.58 185.111 4.01333 184.244 4.88C183.364 5.73333 182.924 6.77333 182.924 8C182.898 9.22667 183.318 10.28 184.184 11.16C185.051 12.0533 186.098 12.5 187.324 12.5C188.324 12.5 189.224 12.1867 190.024 11.56C190.824 10.92 191.358 10.12 191.624 9.16H188.464V6.36Z"/>
</mask>
<path d="M5.86 9.08L5.76 9.06C4.86667 8.83333 4.16 8.54 3.64 8.18C2.50667 7.43333 1.90667 6.38 1.84 5.02C1.77333 3.9 2.11333 2.94667 2.86 2.16C3.32667 1.68 3.86667 1.33333 4.48 1.12C5.10667 0.893333 5.65333 0.779999 6.12 0.779999C6.74667 0.779999 7.34667 0.859999 7.92 1.02C8.49333 1.18 8.92 1.34 9.2 1.5C9.48 1.64667 9.85333 1.87333 10.32 2.18L10.78 2.48L9.32 4.86L8.82 4.54C8.43333 4.3 8.14667 4.12667 7.96 4.02C7.77333 3.91333 7.51333 3.81333 7.18 3.72C6.86 3.62667 6.50667 3.58 6.12 3.58C5.98667 3.58 5.78667 3.62667 5.52 3.72C5.25333 3.81333 5.04 3.94 4.88 4.1C4.70667 4.27333 4.62667 4.54 4.64 4.9C4.65333 5.26 4.79333 5.55333 5.06 5.78C5.34 5.99333 5.8 6.18 6.44 6.34C6.54667 6.36667 6.68 6.40667 6.84 6.46C8.18667 6.92667 9.22 7.54667 9.94 8.32C10.6733 9.13333 11.04 10.0467 11.04 11.06C11.04 12.0867 10.6667 13.0133 9.92 13.84C9.06667 14.8 7.99333 15.28 6.7 15.28C5.82 15.28 5 15.1667 4.24 14.94C2.96 14.54 1.84667 13.8333 0.9 12.82L2.94 10.9C3.92667 11.9533 5.18 12.48 6.7 12.48C7.20667 12.48 7.58667 12.3133 7.84 11.98C8.10667 11.6467 8.24 11.34 8.24 11.06C8.24 10.2867 7.46667 9.63333 5.92 9.1L5.86 9.08ZM19.9728 0.979999H20.7928L27.4128 15H24.3128L20.3128 6.48L15.9728 15H12.8328L19.9728 0.979999ZM40.4839 15L32.6039 6.82V15H29.8039V0.979999H30.6839L38.4239 8.82V0.979999H41.2239V15H40.4839ZM53.9673 0.979999V3.78H47.4273V6.36H52.8273V9.16H47.4273V15H44.6273V0.979999H53.9673ZM60.7658 0.979999H61.5858L68.2058 15H65.1058L61.1058 6.48L56.7658 15H53.6258L60.7658 0.979999ZM74.3561 9.08L74.2561 9.06C73.3628 8.83333 72.6561 8.54 72.1361 8.18C71.0028 7.43333 70.4028 6.38 70.3361 5.02C70.2694 3.9 70.6094 2.94667 71.3561 2.16C71.8228 1.68 72.3628 1.33333 72.9761 1.12C73.6028 0.893333 74.1494 0.779999 74.6161 0.779999C75.2428 0.779999 75.8428 0.859999 76.4161 1.02C76.9894 1.18 77.4161 1.34 77.6961 1.5C77.9761 1.64667 78.3494 1.87333 78.8161 2.18L79.2761 2.48L77.8161 4.86L77.3161 4.54C76.9294 4.3 76.6428 4.12667 76.4561 4.02C76.2694 3.91333 76.0094 3.81333 75.6761 3.72C75.3561 3.62667 75.0028 3.58 74.6161 3.58C74.4828 3.58 74.2828 3.62667 74.0161 3.72C73.7494 3.81333 73.5361 3.94 73.3761 4.1C73.2028 4.27333 73.1228 4.54 73.1361 4.9C73.1494 5.26 73.2894 5.55333 73.5561 5.78C73.8361 5.99333 74.2961 6.18 74.9361 6.34C75.0428 6.36667 75.1761 6.40667 75.3361 6.46C76.6828 6.92667 77.7161 7.54667 78.4361 8.32C79.1694 9.13333 79.5361 10.0467 79.5361 11.06C79.5361 12.0867 79.1628 13.0133 78.4161 13.84C77.5628 14.8 76.4894 15.28 75.1961 15.28C74.3161 15.28 73.4961 15.1667 72.7361 14.94C71.4561 14.54 70.3428 13.8333 69.3961 12.82L71.4361 10.9C72.4228 11.9533 73.6761 12.48 75.1961 12.48C75.7028 12.48 76.0828 12.3133 76.3361 11.98C76.6028 11.6467 76.7361 11.34 76.7361 11.06C76.7361 10.2867 75.9628 9.63333 74.4161 9.1L74.3561 9.08ZM101.466 2.3L99.6658 4.38C98.9991 3.95333 98.2591 3.72667 97.4458 3.7C96.6458 3.66 95.9058 3.8 95.2258 4.12C94.5591 4.44 93.9924 4.94667 93.5258 5.64C93.0724 6.32 92.8458 7.11333 92.8458 8.02C92.8458 8.96667 93.0858 9.79333 93.5658 10.5C94.0458 11.2067 94.6324 11.7133 95.3258 12.02C96.0324 12.3267 96.7991 12.4467 97.6258 12.38C98.4524 12.3133 99.1858 12.0333 99.8258 11.54L101.626 13.6C100.266 14.72 98.7191 15.28 96.9858 15.28C94.9858 15.28 93.2724 14.5733 91.8458 13.16C90.4324 11.7333 89.7258 10.02 89.7258 8.02C89.7258 6.02 90.4324 4.31333 91.8458 2.9C93.2724 1.47333 94.9858 0.76 96.9858 0.76C98.6524 0.76 100.146 1.27333 101.466 2.3ZM108.018 0.979999V12.2H113.238V14.98H105.218V0.979999H108.018ZM116.556 2.86C117.983 1.43333 119.696 0.719999 121.696 0.719999C123.696 0.719999 125.403 1.43333 126.816 2.86C128.243 4.27333 128.956 5.98 128.956 7.98C128.956 9.98 128.243 11.6933 126.816 13.12C125.403 14.5333 123.696 15.24 121.696 15.24C119.696 15.24 117.983 14.5333 116.556 13.12C115.143 11.6933 114.436 9.98 114.436 7.98C114.436 5.98 115.143 4.27333 116.556 2.86ZM124.796 4.88C123.943 4.02667 122.909 3.6 121.696 3.6C120.483 3.6 119.449 4.02667 118.596 4.88C117.743 5.73333 117.316 6.76667 117.316 7.98C117.316 9.19333 117.743 10.2267 118.596 11.08C119.449 11.9333 120.483 12.36 121.696 12.36C122.909 12.36 123.943 11.9333 124.796 11.08C125.649 10.2267 126.076 9.19333 126.076 7.98C126.076 6.76667 125.649 5.73333 124.796 4.88ZM131.059 0.979999H141.639V3.78H137.759V15H134.959V3.78H131.059V0.979999ZM152.917 6.36V0.999999H155.717V15H152.917V9.16H147.737V15H144.937V0.999999H147.737V6.36H152.917ZM159.316 14.98V0.979999H162.116V14.98H159.316ZM176.386 15L168.506 6.82V15H165.706V0.979999H166.586L174.326 8.82V0.979999H177.126V15H176.386ZM188.464 6.36H194.284V7.78C194.284 9.94 193.604 11.7267 192.244 13.14C190.884 14.54 189.244 15.24 187.324 15.24H187.304C185.291 15.2133 183.584 14.5 182.184 13.1C180.798 11.6867 180.111 9.97333 180.124 7.96C180.138 5.97333 180.851 4.28 182.264 2.88C183.691 1.48 185.398 0.779999 187.384 0.779999H187.444C189.111 0.793333 190.598 1.32667 191.904 2.38L189.884 4.36C189.164 3.86667 188.344 3.60667 187.424 3.58H187.384C186.158 3.58 185.111 4.01333 184.244 4.88C183.364 5.73333 182.924 6.77333 182.924 8C182.898 9.22667 183.318 10.28 184.184 11.16C185.051 12.0533 186.098 12.5 187.324 12.5C188.324 12.5 189.224 12.1867 190.024 11.56C190.824 10.92 191.358 10.12 191.624 9.16H188.464V6.36Z" fill="white"/>
<path d="M5.86 9.08L6.17623 8.13132L6.11717 8.11163L6.05612 8.09942L5.86 9.08ZM5.76 9.06L5.51406 10.0293L5.53883 10.0356L5.56388 10.0406L5.76 9.06ZM3.64 8.18L4.20921 7.35781L4.19976 7.35126L4.19016 7.34494L3.64 8.18ZM1.84 5.02L2.83886 4.97104L2.83823 4.96058L1.84 5.02ZM2.86 2.16L2.14295 1.46287L2.13469 1.47157L2.86 2.16ZM4.48 1.12L4.80855 2.06457L4.82014 2.06038L4.48 1.12ZM7.92 1.02L8.1888 0.0568027L8.1888 0.0568023L7.92 1.02ZM9.2 1.5L8.70386 2.36824L8.71977 2.37733L8.73599 2.38583L9.2 1.5ZM10.32 2.18L9.77082 3.01571L9.77373 3.01761L10.32 2.18ZM10.78 2.48L11.6324 3.0029L12.141 2.17375L11.3263 1.64239L10.78 2.48ZM9.32 4.86L8.78095 5.70227L9.63943 6.2517L10.1724 5.3829L9.32 4.86ZM8.82 4.54L9.35911 3.69765L9.34736 3.69036L8.82 4.54ZM7.96 4.02L8.45614 3.15176L8.45614 3.15176L7.96 4.02ZM7.18 3.72L6.89998 4.68006L6.91037 4.68296L7.18 3.72ZM5.52 3.72L5.85035 4.66386L5.85035 4.66386L5.52 3.72ZM4.88 4.1L5.58711 4.80711H5.58711L4.88 4.1ZM4.64 4.9L3.64069 4.93701L4.64 4.9ZM5.06 5.78L4.41235 6.54194L4.43271 6.55924L4.45396 6.57543L5.06 5.78ZM6.44 6.34L6.68254 5.36986H6.68254L6.44 6.34ZM6.84 6.46L7.16745 5.51506L7.15623 5.51132L6.84 6.46ZM9.94 8.32L10.6827 7.65036L10.6773 7.64443L10.6719 7.63858L9.94 8.32ZM9.92 13.84L9.17787 13.1697L9.17259 13.1756L9.92 13.84ZM4.24 14.94L3.9417 15.8946L3.9542 15.8983L4.24 14.94ZM0.9 12.82L0.214635 12.0918L-0.51087 12.7746L0.169265 13.5027L0.9 12.82ZM2.94 10.9L3.66983 10.2164L2.98457 9.48481L2.25464 10.1718L2.94 10.9ZM7.84 11.98L7.05913 11.3553L7.05136 11.365L7.04384 11.3749L7.84 11.98ZM5.92 9.1L6.24601 8.15458L6.23623 8.15132L5.92 9.1ZM6.05612 8.09942L5.95612 8.07942L5.56388 10.0406L5.66388 10.0606L6.05612 8.09942ZM6.00594 8.09071C5.18011 7.88117 4.59719 7.62641 4.20921 7.35781L3.07079 9.00219C3.72281 9.45359 4.55323 9.78549 5.51406 10.0293L6.00594 8.09071ZM4.19016 7.34494C3.32422 6.77444 2.88991 6.01369 2.8388 4.97104L0.841199 5.06896C0.923422 6.74631 1.68911 8.09223 3.08984 9.01506L4.19016 7.34494ZM2.83823 4.96058C2.78737 4.10614 3.03649 3.42664 3.58531 2.84843L2.13469 1.47157C1.19018 2.46669 0.759293 3.69386 0.841767 5.07942L2.83823 4.96058ZM3.577 2.85708C3.93865 2.48509 4.34679 2.2251 4.80852 2.0645L4.15148 0.175503C3.38654 0.441569 2.71468 0.874913 2.14301 1.46292L3.577 2.85708ZM4.82014 2.06038C5.38052 1.85768 5.80744 1.78 6.12 1.78V-0.22C5.49923 -0.22 4.83281 -0.0710177 4.13986 0.179624L4.82014 2.06038ZM6.12 1.78C6.66061 1.78 7.16989 1.84888 7.6512 1.9832L8.1888 0.0568023C7.52345 -0.128876 6.83272 -0.22 6.12 -0.22V1.78ZM7.6512 1.98319C8.19993 2.13633 8.53205 2.27007 8.70386 2.36824L9.69614 0.631757C9.30795 0.409931 8.78674 0.22367 8.1888 0.0568027L7.6512 1.98319ZM8.73599 2.38583C8.97283 2.50989 9.31429 2.7157 9.77082 3.01571L10.8692 1.34429C10.3924 1.03097 9.98717 0.783444 9.66401 0.614168L8.73599 2.38583ZM9.77373 3.01761L10.2337 3.31761L11.3263 1.64239L10.8663 1.34239L9.77373 3.01761ZM9.92761 1.9571L8.46761 4.3371L10.1724 5.3829L11.6324 3.0029L9.92761 1.9571ZM9.85905 4.01773L9.35905 3.69773L8.28095 5.38227L8.78095 5.70227L9.85905 4.01773ZM9.34736 3.69036C8.9591 3.44937 8.65952 3.26797 8.45614 3.15176L7.46386 4.88824C7.63382 4.98536 7.90756 5.15063 8.29264 5.38964L9.34736 3.69036ZM8.45614 3.15176C8.16838 2.98732 7.82031 2.86083 7.44963 2.75704L6.91037 4.68296C7.20635 4.76584 7.37829 4.83935 7.46386 4.88824L8.45614 3.15176ZM7.46 2.76C7.03586 2.63629 6.58664 2.58 6.12 2.58V4.58C6.42669 4.58 6.68414 4.61704 6.9 4.68L7.46 2.76ZM6.12 2.58C5.80662 2.58 5.47088 2.67771 5.18965 2.77614L5.85035 4.66386C5.96144 4.62498 6.0423 4.60166 6.09723 4.58884C6.15813 4.57463 6.15919 4.58 6.12 4.58V2.58ZM5.18965 2.77614C4.81557 2.90707 4.46215 3.10364 4.17289 3.39289L5.58711 4.80711C5.61785 4.77636 5.6911 4.7196 5.85035 4.66386L5.18965 2.77614ZM4.17289 3.39289C3.72601 3.83978 3.62193 4.43066 3.64069 4.93701L5.63932 4.86299C5.6375 4.81403 5.63926 4.77805 5.64189 4.75329C5.64452 4.72858 5.64775 4.71761 5.64783 4.71735C5.64783 4.71734 5.64699 4.72014 5.64482 4.72525C5.64264 4.73039 5.6392 4.73765 5.63412 4.74646C5.62355 4.76483 5.60803 4.78618 5.58711 4.80711L4.17289 3.39289ZM3.64069 4.93701C3.66405 5.56795 3.92499 6.12768 4.41235 6.54194L5.70765 5.01806C5.66168 4.97899 5.64261 4.95205 5.63932 4.86299L3.64069 4.93701ZM4.45396 6.57543C4.89939 6.91481 5.52076 7.14097 6.19746 7.31014L6.68254 5.36986C6.07924 5.21903 5.78061 5.07186 5.66604 4.98457L4.45396 6.57543ZM6.19746 7.31014C6.26993 7.32826 6.37673 7.35967 6.52377 7.40868L7.15623 5.51132C6.98327 5.45366 6.8234 5.40507 6.68254 5.36986L6.19746 7.31014ZM6.51257 7.40487C7.7564 7.83591 8.63138 8.38198 9.20811 9.00142L10.6719 7.63858C9.80862 6.71136 8.61693 6.01743 7.16743 5.51513L6.51257 7.40487ZM9.19731 8.98964C9.77954 9.63538 10.04 10.3149 10.04 11.06H12.04C12.04 9.77844 11.5671 8.63129 10.6827 7.65036L9.19731 8.98964ZM10.04 11.06C10.04 11.8171 9.77389 12.5099 9.1779 13.1697L10.6621 14.5103C11.5594 13.5168 12.04 12.3563 12.04 11.06H10.04ZM9.17259 13.1756C8.51053 13.9205 7.70996 14.28 6.7 14.28V16.28C8.2767 16.28 9.62281 15.6795 10.6674 14.5044L9.17259 13.1756ZM6.7 14.28C5.9063 14.28 5.18352 14.1779 4.52581 13.9817L3.9542 15.8983C4.81648 16.1555 5.7337 16.28 6.7 16.28V14.28ZM4.53828 13.9855C3.4293 13.639 2.46341 13.0287 1.63074 12.1373L0.169265 13.5027C1.22992 14.638 2.4907 15.441 3.94173 15.8945L4.53828 13.9855ZM1.58536 13.5482L3.62536 11.6282L2.25464 10.1718L0.214635 12.0918L1.58536 13.5482ZM2.21017 11.5836C3.39691 12.8506 4.91997 13.48 6.7 13.48V11.48C5.44003 11.48 4.45642 11.0561 3.66983 10.2164L2.21017 11.5836ZM6.7 13.48C7.44573 13.48 8.15332 13.2204 8.63616 12.5851L7.04384 11.3749C7.02002 11.4063 6.96761 11.48 6.7 11.48V13.48ZM8.62087 12.6047C8.95856 12.1826 9.24 11.6591 9.24 11.06H7.24C7.24 11.0388 7.24534 11.0497 7.22293 11.1013C7.19963 11.1549 7.15169 11.2396 7.05913 11.3553L8.62087 12.6047ZM9.24 11.06C9.24 10.2938 8.84261 9.68001 8.30535 9.22611C7.78417 8.7858 7.07307 8.43983 6.24599 8.15463L5.59401 10.0454C6.3136 10.2935 6.7625 10.5409 7.01465 10.7539C7.25072 10.9533 7.24 11.0528 7.24 11.06H9.24ZM6.23623 8.15132L6.17623 8.13132L5.54378 10.0287L5.60378 10.0487L6.23623 8.15132ZM19.9728 0.98V-0.0200005H19.3599L19.0817 0.526188L19.9728 0.98ZM20.7928 0.98L21.6971 0.553022L21.4265 -0.0200005H20.7928V0.98ZM27.4128 15V16H28.9909L28.3171 14.573L27.4128 15ZM24.3128 15L23.4076 15.425L23.6776 16H24.3128V15ZM20.3128 6.48L21.218 6.05502L20.3494 4.20495L19.4218 6.0261L20.3128 6.48ZM15.9728 15V16H16.5857L16.8639 15.4539L15.9728 15ZM12.8328 15L11.9417 14.5462L11.2013 16H12.8328V15ZM19.9728 1.98H20.7928V-0.0200005H19.9728V1.98ZM19.8885 1.40698L26.5086 15.427L28.3171 14.573L21.6971 0.553022L19.8885 1.40698ZM27.4128 14H24.3128V16H27.4128V14ZM25.218 14.575L21.218 6.05502L19.4076 6.90498L23.4076 15.425L25.218 14.575ZM19.4218 6.0261L15.0818 14.5461L16.8639 15.4539L21.2039 6.93389L19.4218 6.0261ZM15.9728 14H12.8328V16H15.9728V14ZM13.7239 15.4538L20.8639 1.43381L19.0817 0.526188L11.9417 14.5462L13.7239 15.4538ZM40.4839 15L39.7637 15.6938L40.0587 16H40.4839V15ZM32.6039 6.82L33.3241 6.12622L31.6039 4.34054V6.82H32.6039ZM32.6039 15V16H33.6039V15H32.6039ZM29.8039 15H28.8039V16H29.8039V15ZM29.8039 0.98V-0.0200005H28.8039V0.98H29.8039ZM30.6839 0.98L31.3955 0.277445L31.1019 -0.0200005H30.6839V0.98ZM38.4239 8.82L37.7123 9.52255L39.4239 11.2563V8.82H38.4239ZM38.4239 0.98V-0.0200005H37.4239V0.98H38.4239ZM41.2239 0.98H42.2239V-0.0200005H41.2239V0.98ZM41.2239 15V16H42.2239V15H41.2239ZM41.2041 14.3062L33.3241 6.12622L31.8837 7.51378L39.7637 15.6938L41.2041 14.3062ZM31.6039 6.82V15H33.6039V6.82H31.6039ZM32.6039 14H29.8039V16H32.6039V14ZM30.8039 15V0.98H28.8039V15H30.8039ZM29.8039 1.98H30.6839V-0.0200005H29.8039V1.98ZM29.9723 1.68255L37.7123 9.52255L39.1355 8.11745L31.3955 0.277445L29.9723 1.68255ZM39.4239 8.82V0.98H37.4239V8.82H39.4239ZM38.4239 1.98H41.2239V-0.0200005H38.4239V1.98ZM40.2239 0.98V15H42.2239V0.98H40.2239ZM41.2239 14H40.4839V16H41.2239V14ZM53.9673 0.98H54.9673V-0.0200005H53.9673V0.98ZM53.9673 3.78V4.78H54.9673V3.78H53.9673ZM47.4273 3.78V2.78H46.4273V3.78H47.4273ZM47.4273 6.36H46.4273V7.36H47.4273V6.36ZM52.8273 6.36H53.8273V5.36H52.8273V6.36ZM52.8273 9.16V10.16H53.8273V9.16H52.8273ZM47.4273 9.16V8.16H46.4273V9.16H47.4273ZM47.4273 15V16H48.4273V15H47.4273ZM44.6273 15H43.6273V16H44.6273V15ZM44.6273 0.98V-0.0200005H43.6273V0.98H44.6273ZM52.9673 0.98V3.78H54.9673V0.98H52.9673ZM53.9673 2.78H47.4273V4.78H53.9673V2.78ZM46.4273 3.78V6.36H48.4273V3.78H46.4273ZM47.4273 7.36H52.8273V5.36H47.4273V7.36ZM51.8273 6.36V9.16H53.8273V6.36H51.8273ZM52.8273 8.16H47.4273V10.16H52.8273V8.16ZM46.4273 9.16V15H48.4273V9.16H46.4273ZM47.4273 14H44.6273V16H47.4273V14ZM45.6273 15V0.98H43.6273V15H45.6273ZM44.6273 1.98H53.9673V-0.0200005H44.6273V1.98ZM60.7658 0.98V-0.0200005H60.1528L59.8747 0.526188L60.7658 0.98ZM61.5858 0.98L62.49 0.553022L62.2195 -0.0200005H61.5858V0.98ZM68.2058 15V16H69.7838L69.11 14.573L68.2058 15ZM65.1058 15L64.2006 15.425L64.4705 16H65.1058V15ZM61.1058 6.48L62.011 6.05502L61.1424 4.20495L60.2147 6.0261L61.1058 6.48ZM56.7658 15V16H57.3787L57.6568 15.4539L56.7658 15ZM53.6258 15L52.7347 14.5462L51.9943 16H53.6258V15ZM60.7658 1.98H61.5858V-0.0200005H60.7658V1.98ZM60.6815 1.40698L67.3015 15.427L69.11 14.573L62.49 0.553022L60.6815 1.40698ZM68.2058 14H65.1058V16H68.2058V14ZM66.011 14.575L62.011 6.05502L60.2006 6.90498L64.2006 15.425L66.011 14.575ZM60.2147 6.0261L55.8747 14.5461L57.6568 15.4539L61.9968 6.93389L60.2147 6.0261ZM56.7658 14H53.6258V16H56.7658V14ZM54.5169 15.4538L61.6569 1.43381L59.8747 0.526188L52.7347 14.5462L54.5169 15.4538ZM74.3561 9.08L74.6723 8.13132L74.6133 8.11163L74.5522 8.09942L74.3561 9.08ZM74.2561 9.06L74.0102 10.0293L74.0349 10.0356L74.06 10.0406L74.2561 9.06ZM72.1361 8.18L72.7053 7.35781L72.6959 7.35126L72.6862 7.34494L72.1361 8.18ZM70.3361 5.02L71.3349 4.97104L71.3343 4.96058L70.3361 5.02ZM71.3561 2.16L70.639 1.46287L70.6308 1.47157L71.3561 2.16ZM72.9761 1.12L73.3046 2.06457L73.3162 2.06038L72.9761 1.12ZM76.4161 1.02L76.6849 0.0568027V0.0568023L76.4161 1.02ZM77.6961 1.5L77.2 2.36824L77.2159 2.37733L77.2321 2.38583L77.6961 1.5ZM78.8161 2.18L78.2669 3.01571L78.2698 3.01761L78.8161 2.18ZM79.2761 2.48L80.1285 3.0029L80.6371 2.17375L79.8224 1.64239L79.2761 2.48ZM77.8161 4.86L77.277 5.70227L78.1355 6.2517L78.6685 5.3829L77.8161 4.86ZM77.3161 4.54L77.8552 3.69765L77.8435 3.69036L77.3161 4.54ZM76.4561 4.02L76.9522 3.15176V3.15176L76.4561 4.02ZM75.6761 3.72L75.3961 4.68006L75.4065 4.68296L75.6761 3.72ZM74.0161 3.72L74.3464 4.66386V4.66386L74.0161 3.72ZM73.3761 4.1L74.0832 4.80711L73.3761 4.1ZM73.1361 4.9L72.1368 4.93701L73.1361 4.9ZM73.5561 5.78L72.9084 6.54194L72.9288 6.55924L72.9501 6.57543L73.5561 5.78ZM74.9361 6.34L75.1786 5.36986L74.9361 6.34ZM75.3361 6.46L75.6636 5.51506L75.6523 5.51132L75.3361 6.46ZM78.4361 8.32L79.1788 7.65036L79.1734 7.64443L79.168 7.63858L78.4361 8.32ZM78.4161 13.84L77.674 13.1697L77.6687 13.1756L78.4161 13.84ZM72.7361 14.94L72.4378 15.8946L72.4503 15.8983L72.7361 14.94ZM69.3961 12.82L68.7107 12.0918L67.9852 12.7746L68.6654 13.5027L69.3961 12.82ZM71.4361 10.9L72.1659 10.2164L71.4807 9.48481L70.7507 10.1718L71.4361 10.9ZM76.3361 11.98L75.5552 11.3553L75.5475 11.365L75.5399 11.3749L76.3361 11.98ZM74.4161 9.1L74.7421 8.15458L74.7323 8.15132L74.4161 9.1ZM74.5522 8.09942L74.4522 8.07942L74.06 10.0406L74.16 10.0606L74.5522 8.09942ZM74.502 8.09071C73.6762 7.88117 73.0933 7.62641 72.7053 7.35781L71.5669 9.00219C72.2189 9.45359 73.0493 9.78549 74.0102 10.0293L74.502 8.09071ZM72.6862 7.34494C71.8203 6.77444 71.386 6.01369 71.3349 4.97104L69.3373 5.06896C69.4195 6.74631 70.1852 8.09223 71.5859 9.01506L72.6862 7.34494ZM71.3343 4.96058C71.2835 4.10614 71.5326 3.42664 72.0814 2.84843L70.6308 1.47157C69.6863 2.46669 69.2554 3.69386 69.3379 5.07942L71.3343 4.96058ZM72.0731 2.85708C72.4347 2.48509 72.8429 2.2251 73.3046 2.0645L72.6476 0.175503C71.8826 0.441569 71.2108 0.874913 70.6391 1.46292L72.0731 2.85708ZM73.3162 2.06038C73.8766 1.85768 74.3035 1.78 74.6161 1.78V-0.22C73.9953 -0.22 73.3289 -0.0710177 72.636 0.179624L73.3162 2.06038ZM74.6161 1.78C75.1567 1.78 75.666 1.84888 76.1473 1.9832L76.6849 0.0568023C76.0195 -0.128876 75.3288 -0.22 74.6161 -0.22V1.78ZM76.1473 1.98319C76.696 2.13633 77.0282 2.27007 77.2 2.36824L78.1922 0.631757C77.804 0.409931 77.2828 0.22367 76.6849 0.0568027L76.1473 1.98319ZM77.2321 2.38583C77.4689 2.50989 77.8104 2.7157 78.2669 3.01571L79.3653 1.34429C78.8885 1.03097 78.4833 0.783444 78.1601 0.614168L77.2321 2.38583ZM78.2698 3.01761L78.7298 3.31761L79.8224 1.64239L79.3624 1.34239L78.2698 3.01761ZM78.4237 1.9571L76.9637 4.3371L78.6685 5.3829L80.1285 3.0029L78.4237 1.9571ZM78.3551 4.01773L77.8551 3.69773L76.777 5.38227L77.277 5.70227L78.3551 4.01773ZM77.8435 3.69036C77.4552 3.44937 77.1556 3.26797 76.9522 3.15176L75.96 4.88824C76.1299 4.98536 76.4037 5.15063 76.7887 5.38964L77.8435 3.69036ZM76.9522 3.15176C76.6645 2.98732 76.3164 2.86083 75.9457 2.75704L75.4065 4.68296C75.7024 4.76584 75.8744 4.83935 75.96 4.88824L76.9522 3.15176ZM75.9561 2.76C75.532 2.63629 75.0827 2.58 74.6161 2.58V4.58C74.9228 4.58 75.1802 4.61704 75.3961 4.68L75.9561 2.76ZM74.6161 2.58C74.3027 2.58 73.967 2.67771 73.6857 2.77614L74.3464 4.66386C74.4575 4.62498 74.5384 4.60166 74.5933 4.58884C74.6542 4.57463 74.6553 4.58 74.6161 4.58V2.58ZM73.6857 2.77614C73.3117 2.90707 72.9582 3.10364 72.669 3.39289L74.0832 4.80711C74.1139 4.77636 74.1872 4.7196 74.3464 4.66386L73.6857 2.77614ZM72.669 3.39289C72.2221 3.83978 72.118 4.43066 72.1368 4.93701L74.1354 4.86299C74.1336 4.81403 74.1353 4.77805 74.138 4.75329C74.1406 4.72858 74.1438 4.71761 74.1439 4.71735C74.1439 4.71734 74.1431 4.72014 74.1409 4.72525C74.1387 4.73039 74.1353 4.73765 74.1302 4.74646C74.1196 4.76483 74.1041 4.78618 74.0832 4.80711L72.669 3.39289ZM72.1368 4.93701C72.1601 5.56795 72.4211 6.12768 72.9084 6.54194L74.2037 5.01806C74.1578 4.97899 74.1387 4.95205 74.1354 4.86299L72.1368 4.93701ZM72.9501 6.57543C73.3955 6.91481 74.0169 7.14097 74.6936 7.31014L75.1786 5.36986C74.5753 5.21903 74.2767 5.07186 74.1621 4.98457L72.9501 6.57543ZM74.6936 7.31014C74.766 7.32826 74.8728 7.35967 75.0199 7.40868L75.6523 5.51132C75.4794 5.45366 75.3195 5.40507 75.1786 5.36986L74.6936 7.31014ZM75.0087 7.40487C76.2525 7.83591 77.1275 8.38198 77.7042 9.00142L79.168 7.63858C78.3047 6.71136 77.113 6.01743 75.6635 5.51513L75.0087 7.40487ZM77.6934 8.98964C78.2756 9.63538 78.5361 10.3149 78.5361 11.06H80.5361C80.5361 9.77844 80.0632 8.63129 79.1788 7.65036L77.6934 8.98964ZM78.5361 11.06C78.5361 11.8171 78.27 12.5099 77.674 13.1697L79.1582 14.5103C80.0555 13.5168 80.5361 12.3563 80.5361 11.06H78.5361ZM77.6687 13.1756C77.0066 13.9205 76.2061 14.28 75.1961 14.28V16.28C76.7728 16.28 78.1189 15.6795 79.1635 14.5044L77.6687 13.1756ZM75.1961 14.28C74.4024 14.28 73.6796 14.1779 73.0219 13.9817L72.4503 15.8983C73.3126 16.1555 74.2298 16.28 75.1961 16.28V14.28ZM73.0344 13.9855C71.9254 13.639 70.9595 13.0287 70.1268 12.1373L68.6654 13.5027C69.726 14.638 70.9868 15.441 72.4378 15.8945L73.0344 13.9855ZM70.0815 13.5482L72.1215 11.6282L70.7507 10.1718L68.7107 12.0918L70.0815 13.5482ZM70.7063 11.5836C71.893 12.8506 73.4161 13.48 75.1961 13.48V11.48C73.9361 11.48 72.9525 11.0561 72.1659 10.2164L70.7063 11.5836ZM75.1961 13.48C75.9418 13.48 76.6494 13.2204 77.1323 12.5851L75.5399 11.3749C75.5161 11.4063 75.4637 11.48 75.1961 11.48V13.48ZM77.117 12.6047C77.4547 12.1826 77.7361 11.6591 77.7361 11.06H75.7361C75.7361 11.0388 75.7414 11.0497 75.719 11.1013C75.6957 11.1549 75.6478 11.2396 75.5552 11.3553L77.117 12.6047ZM77.7361 11.06C77.7361 10.2938 77.3387 9.68001 76.8014 9.22611C76.2803 8.7858 75.5692 8.43983 74.7421 8.15463L74.0901 10.0454C74.8097 10.2935 75.2586 10.5409 75.5107 10.7539C75.7468 10.9533 75.7361 11.0528 75.7361 11.06H77.7361ZM74.7323 8.15132L74.6723 8.13132L74.0399 10.0287L74.0999 10.0487L74.7323 8.15132ZM101.466 2.3L102.222 2.95438L102.911 2.15758L102.08 1.51065L101.466 2.3ZM99.6658 4.38L99.1267 5.22227L99.8556 5.68878L100.422 5.03438L99.6658 4.38ZM97.4458 3.7L97.3958 4.69875L97.4044 4.69918L97.413 4.69946L97.4458 3.7ZM95.2258 4.12L94.8 3.21515L94.7931 3.21848L95.2258 4.12ZM93.5258 5.64L92.6962 5.08162L92.6937 5.0853L93.5258 5.64ZM93.5658 10.5L92.7386 11.0619V11.0619L93.5658 10.5ZM95.3258 12.02L94.9213 12.9346L94.9277 12.9373L95.3258 12.02ZM97.6258 12.38L97.5454 11.3832L97.6258 12.38ZM99.8258 11.54L100.579 10.882L99.9601 10.1739L99.2153 10.748L99.8258 11.54ZM101.626 13.6L102.261 14.3719L103.056 13.7174L102.379 12.942L101.626 13.6ZM91.8458 13.16L91.1353 13.8638L91.142 13.8704L91.8458 13.16ZM91.8458 2.9L91.1387 2.19289V2.19289L91.8458 2.9ZM100.71 1.64562L98.9096 3.72562L100.422 5.03438L102.222 2.95438L100.71 1.64562ZM100.205 3.53773C99.3822 3.01125 98.4664 2.73293 97.4786 2.70054L97.413 4.69946C98.0518 4.72041 98.616 4.89542 99.1267 5.22227L100.205 3.53773ZM97.4957 2.70125C96.5429 2.65361 95.6382 2.82073 94.8 3.21518L95.6516 5.02482C96.1734 4.77927 96.7486 4.66639 97.3958 4.69875L97.4957 2.70125ZM94.7931 3.21848C93.9459 3.62513 93.249 4.26025 92.6962 5.08162L94.3554 6.19838C94.7359 5.63308 95.1724 5.25487 95.6585 5.02152L94.7931 3.21848ZM92.6937 5.0853C92.1191 5.94729 91.8458 6.93835 91.8458 8.02H93.8458C93.8458 7.28832 94.0258 6.6927 94.3578 6.1947L92.6937 5.0853ZM91.8458 8.02C91.8458 9.14447 92.1339 10.1717 92.7386 11.0619L94.393 9.93812C94.0376 9.41494 93.8458 8.78886 93.8458 8.02H91.8458ZM92.7386 11.0619C93.31 11.9032 94.0358 12.5429 94.9213 12.9345L95.7303 11.1055C95.2291 10.8838 94.7816 10.5102 94.393 9.93812L92.7386 11.0619ZM94.9277 12.9373C95.7963 13.3143 96.7288 13.4556 97.7062 13.3768L97.5454 11.3832C96.8695 11.4377 96.2686 11.339 95.7239 11.1027L94.9277 12.9373ZM97.7062 13.3768C98.7203 13.295 99.6389 12.9467 100.436 12.332L99.2153 10.748C98.7327 11.12 98.1846 11.3317 97.5454 11.3832L97.7062 13.3768ZM99.0728 12.198L100.873 14.258L102.379 12.942L100.579 10.882L99.0728 12.198ZM100.99 12.8281C99.8059 13.8033 98.483 14.28 96.9858 14.28V16.28C98.9552 16.28 100.726 15.6367 102.261 14.3719L100.99 12.8281ZM96.9858 14.28C95.2506 14.28 93.7898 13.6783 92.5496 12.4496L91.142 13.8704C92.7551 15.4684 94.721 16.28 96.9858 16.28V14.28ZM92.5562 12.4562C91.3275 11.216 90.7258 9.7552 90.7258 8.02H88.7258C88.7258 10.2848 89.5374 12.2507 91.1354 13.8638L92.5562 12.4562ZM90.7258 8.02C90.7258 6.28503 91.3272 4.83277 92.5529 3.60711L91.1387 2.19289C89.5377 3.79389 88.7258 5.75497 88.7258 8.02H90.7258ZM92.5529 3.60711C93.7939 2.36612 95.2536 1.76 96.9858 1.76V-0.24C94.7179 -0.24 92.751 0.580547 91.1387 2.19289L92.5529 3.60711ZM96.9858 1.76C98.4293 1.76 99.7067 2.19871 100.852 3.08935L102.08 1.51065C100.585 0.347952 98.8756 -0.24 96.9858 -0.24V1.76ZM108.018 0.98H109.018V-0.0200005H108.018V0.98ZM108.018 12.2H107.018V13.2H108.018V12.2ZM113.238 12.2H114.238V11.2H113.238V12.2ZM113.238 14.98V15.98H114.238V14.98H113.238ZM105.218 14.98H104.218V15.98H105.218V14.98ZM105.218 0.98V-0.0200005H104.218V0.98H105.218ZM107.018 0.98V12.2H109.018V0.98H107.018ZM108.018 13.2H113.238V11.2H108.018V13.2ZM112.238 12.2V14.98H114.238V12.2H112.238ZM113.238 13.98H105.218V15.98H113.238V13.98ZM106.218 14.98V0.98H104.218V14.98H106.218ZM105.218 1.98H108.018V-0.0200005H105.218V1.98ZM116.556 2.86L117.263 3.56711L116.556 2.86ZM126.816 2.86L126.105 3.56381L126.112 3.57042L126.816 2.86ZM126.816 13.12L127.523 13.8271L126.816 13.12ZM116.556 13.12L115.845 13.8238L115.852 13.8304L116.556 13.12ZM118.596 4.88L117.889 4.17289L118.596 4.88ZM118.596 11.08L117.889 11.7871V11.7871L118.596 11.08ZM117.263 3.56711C118.504 2.32612 119.964 1.72 121.696 1.72V-0.280001C119.428 -0.280001 117.461 0.540546 115.849 2.15289L117.263 3.56711ZM121.696 1.72C123.428 1.72 124.879 2.32581 126.106 3.56378L127.526 2.15622C125.926 0.540859 123.964 -0.280001 121.696 -0.280001V1.72ZM126.112 3.57042C127.35 4.79682 127.956 6.24807 127.956 7.98H129.956C129.956 5.71192 129.135 3.74984 127.52 2.14958L126.112 3.57042ZM127.956 7.98C127.956 9.71217 127.35 11.1719 126.109 12.4129L127.523 13.8271C129.135 12.2148 129.956 10.2478 129.956 7.98H127.956ZM126.109 12.4129C124.883 13.6386 123.431 14.24 121.696 14.24V16.24C123.961 16.24 125.922 15.4281 127.523 13.8271L126.109 12.4129ZM121.696 14.24C119.961 14.24 118.5 13.6383 117.26 12.4096L115.852 13.8304C117.465 15.4284 119.431 16.24 121.696 16.24V14.24ZM117.266 12.4162C116.038 11.1759 115.436 9.7152 115.436 7.98H113.436C113.436 10.2448 114.248 12.2107 115.846 13.8238L117.266 12.4162ZM115.436 7.98C115.436 6.24503 116.037 4.79277 117.263 3.56711L115.849 2.15289C114.248 3.75389 113.436 5.71497 113.436 7.98H115.436ZM125.503 4.17289C124.461 3.13088 123.173 2.6 121.696 2.6V4.6C122.646 4.6 123.424 4.92245 124.089 5.58711L125.503 4.17289ZM121.696 2.6C120.219 2.6 118.931 3.13088 117.889 4.17289L119.303 5.58711C119.968 4.92245 120.746 4.6 121.696 4.6V2.6ZM117.889 4.17289C116.847 5.2149 116.316 6.50307 116.316 7.98H118.316C118.316 7.03027 118.638 6.25176 119.303 5.58711L117.889 4.17289ZM116.316 7.98C116.316 9.45693 116.847 10.7451 117.889 11.7871L119.303 10.3729C118.638 9.70824 118.316 8.92973 118.316 7.98H116.316ZM117.889 11.7871C118.931 12.8291 120.219 13.36 121.696 13.36V11.36C120.746 11.36 119.968 11.0375 119.303 10.3729L117.889 11.7871ZM121.696 13.36C123.173 13.36 124.461 12.8291 125.503 11.7871L124.089 10.3729C123.424 11.0375 122.646 11.36 121.696 11.36V13.36ZM125.503 11.7871C126.545 10.7451 127.076 9.45693 127.076 7.98H125.076C125.076 8.92973 124.753 9.70824 124.089 10.3729L125.503 11.7871ZM127.076 7.98C127.076 6.50307 126.545 5.2149 125.503 4.17289L124.089 5.58711C124.753 6.25176 125.076 7.03027 125.076 7.98H127.076ZM131.059 0.98V-0.0200005H130.059V0.98H131.059ZM141.639 0.98H142.639V-0.0200005H141.639V0.98ZM141.639 3.78V4.78H142.639V3.78H141.639ZM137.759 3.78V2.78H136.759V3.78H137.759ZM137.759 15V16H138.759V15H137.759ZM134.959 15H133.959V16H134.959V15ZM134.959 3.78H135.959V2.78H134.959V3.78ZM131.059 3.78H130.059V4.78H131.059V3.78ZM131.059 1.98H141.639V-0.0200005H131.059V1.98ZM140.639 0.98V3.78H142.639V0.98H140.639ZM141.639 2.78H137.759V4.78H141.639V2.78ZM136.759 3.78V15H138.759V3.78H136.759ZM137.759 14H134.959V16H137.759V14ZM135.959 15V3.78H133.959V15H135.959ZM134.959 2.78H131.059V4.78H134.959V2.78ZM132.059 3.78V0.98H130.059V3.78H132.059ZM152.917 6.36V7.36H153.917V6.36H152.917ZM152.917 0.999999V-9.53674e-07H151.917V0.999999H152.917ZM155.717 0.999999H156.717V-9.53674e-07H155.717V0.999999ZM155.717 15V16H156.717V15H155.717ZM152.917 15H151.917V16H152.917V15ZM152.917 9.16H153.917V8.16H152.917V9.16ZM147.737 9.16V8.16H146.737V9.16H147.737ZM147.737 15V16H148.737V15H147.737ZM144.937 15H143.937V16H144.937V15ZM144.937 0.999999V-9.53674e-07H143.937V0.999999H144.937ZM147.737 0.999999H148.737V-9.53674e-07H147.737V0.999999ZM147.737 6.36H146.737V7.36H147.737V6.36ZM153.917 6.36V0.999999H151.917V6.36H153.917ZM152.917 2H155.717V-9.53674e-07H152.917V2ZM154.717 0.999999V15H156.717V0.999999H154.717ZM155.717 14H152.917V16H155.717V14ZM153.917 15V9.16H151.917V15H153.917ZM152.917 8.16H147.737V10.16H152.917V8.16ZM146.737 9.16V15H148.737V9.16H146.737ZM147.737 14H144.937V16H147.737V14ZM145.937 15V0.999999H143.937V15H145.937ZM144.937 2H147.737V-9.53674e-07H144.937V2ZM146.737 0.999999V6.36H148.737V0.999999H146.737ZM147.737 7.36H152.917V5.36H147.737V7.36ZM159.316 14.98H158.316V15.98H159.316V14.98ZM159.316 0.98V-0.0200005H158.316V0.98H159.316ZM162.116 0.98H163.116V-0.0200005H162.116V0.98ZM162.116 14.98V15.98H163.116V14.98H162.116ZM160.316 14.98V0.98H158.316V14.98H160.316ZM159.316 1.98H162.116V-0.0200005H159.316V1.98ZM161.116 0.98V14.98H163.116V0.98H161.116ZM162.116 13.98H159.316V15.98H162.116V13.98ZM176.386 15L175.666 15.6938L175.961 16H176.386V15ZM168.506 6.82L169.226 6.12622L167.506 4.34054V6.82H168.506ZM168.506 15V16H169.506V15H168.506ZM165.706 15H164.706V16H165.706V15ZM165.706 0.98V-0.0200005H164.706V0.98H165.706ZM166.586 0.98L167.298 0.277445L167.004 -0.0200005H166.586V0.98ZM174.326 8.82L173.615 9.52255L175.326 11.2563V8.82H174.326ZM174.326 0.98V-0.0200005H173.326V0.98H174.326ZM177.126 0.98H178.126V-0.0200005H177.126V0.98ZM177.126 15V16H178.126V15H177.126ZM177.106 14.3062L169.226 6.12622L167.786 7.51378L175.666 15.6938L177.106 14.3062ZM167.506 6.82V15H169.506V6.82H167.506ZM168.506 14H165.706V16H168.506V14ZM166.706 15V0.98H164.706V15H166.706ZM165.706 1.98H166.586V-0.0200005H165.706V1.98ZM165.875 1.68255L173.615 9.52255L175.038 8.11745L167.298 0.277445L165.875 1.68255ZM175.326 8.82V0.98H173.326V8.82H175.326ZM174.326 1.98H177.126V-0.0200005H174.326V1.98ZM176.126 0.98V15H178.126V0.98H176.126ZM177.126 14H176.386V16H177.126V14ZM188.464 6.36V5.36H187.464V6.36H188.464ZM194.284 6.36H195.284V5.36H194.284V6.36ZM192.244 13.14L192.962 13.8368L192.965 13.8334L192.244 13.14ZM187.304 15.24L187.291 16.24H187.304V15.24ZM182.184 13.1L181.47 13.8004L181.477 13.8071L182.184 13.1ZM180.124 7.96L179.124 7.95329V7.95338L180.124 7.96ZM182.264 2.88L181.564 2.16625L181.56 2.16955L182.264 2.88ZM187.444 0.78L187.452 -0.22H187.444V0.78ZM191.904 2.38L192.604 3.09414L193.407 2.3071L192.532 1.60146L191.904 2.38ZM189.884 4.36L189.319 5.18493L189.997 5.64959L190.584 5.07414L189.884 4.36ZM187.424 3.58L187.453 2.58042L187.439 2.58H187.424V3.58ZM184.244 4.88L184.94 5.5979L184.946 5.59254L184.951 5.58711L184.244 4.88ZM182.924 8L183.924 8.02173L183.924 8.01087V8H182.924ZM184.184 11.16L184.902 10.4637L184.897 10.4583L184.184 11.16ZM190.024 11.56L190.641 12.3473L190.649 12.3409L190.024 11.56ZM191.624 9.16L192.588 9.42764L192.94 8.16H191.624V9.16ZM188.464 9.16H187.464V10.16H188.464V9.16ZM188.464 7.36H194.284V5.36H188.464V7.36ZM193.284 6.36V7.78H195.284V6.36H193.284ZM193.284 7.78C193.284 9.71002 192.685 11.2392 191.524 12.4466L192.965 13.8334C194.523 12.2141 195.284 10.17 195.284 7.78H193.284ZM191.527 12.4432C190.352 13.653 188.969 14.24 187.324 14.24V16.24C189.519 16.24 191.417 15.427 192.962 13.8368L191.527 12.4432ZM187.324 14.24H187.304V16.24H187.324V14.24ZM187.317 14.2401C185.56 14.2168 184.104 13.6051 182.891 12.3929L181.477 13.8071C183.065 15.3949 185.022 16.2099 187.291 16.2399L187.317 14.2401ZM182.898 12.3997C181.7 11.1785 181.113 9.72075 181.124 7.96662L179.124 7.95338C179.109 10.2259 179.895 12.1949 181.47 13.8003L182.898 12.3997ZM181.124 7.96671C181.136 6.24497 181.742 4.80456 182.968 3.59045L181.56 2.16955C179.959 3.75544 179.139 5.7017 179.124 7.95329L181.124 7.96671ZM182.965 3.59375C184.206 2.37595 185.661 1.78 187.384 1.78V-0.22C185.134 -0.22 183.176 0.584045 181.564 2.16625L182.965 3.59375ZM187.384 1.78H187.444V-0.22H187.384V1.78ZM187.436 1.77997C188.876 1.79148 190.144 2.24572 191.277 3.15854L192.532 1.60146C191.051 0.407615 189.346 -0.204817 187.452 -0.219968L187.436 1.77997ZM191.204 1.66586L189.184 3.64586L190.584 5.07414L192.604 3.09414L191.204 1.66586ZM190.449 3.53507C189.562 2.92723 188.554 2.61233 187.453 2.58042L187.395 4.57958C188.134 4.601 188.766 4.80611 189.319 5.18493L190.449 3.53507ZM187.424 2.58H187.384V4.58H187.424V2.58ZM187.384 2.58C185.893 2.58 184.591 3.11851 183.537 4.17289L184.951 5.58711C185.63 4.90815 186.423 4.58 187.384 4.58V2.58ZM183.548 4.1621C182.474 5.20393 181.924 6.503 181.924 8H183.924C183.924 7.04367 184.255 6.26274 184.94 5.5979L183.548 4.1621ZM181.924 7.97827C181.892 9.477 182.417 10.7907 183.472 11.8617L184.897 10.4583C184.218 9.76931 183.903 8.97633 183.924 8.02173L181.924 7.97827ZM183.466 11.8563C184.518 12.9406 185.823 13.5 187.324 13.5V11.5C186.372 11.5 185.583 11.1661 184.902 10.4637L183.466 11.8563ZM187.324 13.5C188.552 13.5 189.668 13.1093 190.641 12.3472L189.408 10.7728C188.78 11.264 188.097 11.5 187.324 11.5V13.5ZM190.649 12.3409C191.608 11.5736 192.263 10.5961 192.588 9.42764L190.661 8.89235C190.452 9.6439 190.04 10.2664 189.4 10.7791L190.649 12.3409ZM191.624 8.16H188.464V10.16H191.624V8.16ZM189.464 9.16V6.36H187.464V9.16H189.464Z" fill="black" fill-opacity="0.01" mask="url(#path-1-outside-1_47_25)"/>
</svg>
