<svg width="1446" height="487" viewBox="0 0 1446 487" fill="none" xmlns="http://www.w3.org/2000/svg">
<rect opacity="0.5" width="27" height="487" fill="#0011A9"/>
<rect opacity="0.5" x="40" width="27" height="487" fill="#0011A9"/>
<rect opacity="0.5" x="80" width="27" height="487" fill="#0011A9"/>
<rect opacity="0.5" x="120" width="27" height="487" fill="#0011A9"/>
<rect opacity="0.5" x="160" width="27" height="487" fill="#0011A9"/>
<rect opacity="0.5" x="320" width="27" height="487" fill="#0011A9"/>
<rect opacity="0.5" x="360" width="27" height="487" fill="#0011A9"/>
<rect opacity="0.5" x="400" width="27" height="487" fill="#0011A9"/>
<rect opacity="0.5" x="440" width="27" height="487" fill="#0011A9"/>
<rect opacity="0.5" x="480" width="27" height="487" fill="#0011A9"/>
<rect opacity="0.5" x="520" width="27" height="487" fill="#0011A9"/>
<rect opacity="0.5" x="560" width="27" height="487" fill="#0011A9"/>
<rect opacity="0.5" x="600" width="27" height="487" fill="#0011A9"/>
<rect opacity="0.5" x="640" width="27" height="487" fill="#0011A9"/>
<rect opacity="0.5" x="680" width="27" height="487" fill="#0011A9"/>
<rect opacity="0.5" x="720" width="27" height="487" fill="#0011A9"/>
<rect opacity="0.5" x="760" width="27" height="487" fill="#0011A9"/>
<rect opacity="0.5" x="200" width="27" height="487" fill="#0011A9"/>
<rect opacity="0.5" x="240" width="27" height="487" fill="#0011A9"/>
<rect opacity="0.5" x="280" width="27" height="487" fill="#0011A9"/>
<rect x="950" width="496" height="487" fill="#323C9A"/>
<rect x="874" y="45" width="499" height="397" stroke="black" stroke-width="4"/>
</svg>
