<svg width="407" height="31" viewBox="0 0 407 31" fill="none" xmlns="http://www.w3.org/2000/svg">
<mask id="path-1-outside-1_12_54" maskUnits="userSpaceOnUse" x="-1" y="-1" width="409" height="33" fill="black">
<rect fill="white" x="-1" y="-1" width="409" height="33"/>
<path d="M11.306 17.568L11.096 17.526C9.22 17.05 7.736 16.434 6.644 15.678C4.264 14.11 3.004 11.898 2.864 9.042C2.724 6.69 3.438 4.688 5.006 3.036C5.986 2.028 7.12 1.3 8.408 0.852C9.724 0.375999 10.872 0.137999 11.852 0.137999C13.168 0.137999 14.428 0.305998 15.632 0.641997C16.836 0.977998 17.732 1.314 18.32 1.65C18.908 1.958 19.692 2.434 20.672 3.078L21.638 3.708L18.572 8.706L17.522 8.034C16.71 7.53 16.108 7.166 15.716 6.942C15.324 6.718 14.778 6.508 14.078 6.312C13.406 6.116 12.664 6.018 11.852 6.018C11.572 6.018 11.152 6.116 10.592 6.312C10.032 6.508 9.584 6.774 9.248 7.11C8.884 7.474 8.716 8.034 8.744 8.79C8.772 9.546 9.066 10.162 9.626 10.638C10.214 11.086 11.18 11.478 12.524 11.814C12.748 11.87 13.028 11.954 13.364 12.066C16.192 13.046 18.362 14.348 19.874 15.972C21.414 17.68 22.184 19.598 22.184 21.726C22.184 23.882 21.4 25.828 19.832 27.564C18.04 29.58 15.786 30.588 13.07 30.588C11.222 30.588 9.5 30.35 7.904 29.874C5.216 29.034 2.878 27.55 0.89 25.422L5.174 21.39C7.246 23.602 9.878 24.708 13.07 24.708C14.134 24.708 14.932 24.358 15.464 23.658C16.024 22.958 16.304 22.314 16.304 21.726C16.304 20.102 14.68 18.73 11.432 17.61L11.306 17.568ZM40.9429 0.557999H42.6649L56.5669 30H50.0569L41.6569 12.108L32.5429 30H25.9489L40.9429 0.557999ZM84.0162 30L67.4682 12.822V30H61.5882V0.557999H63.4362L79.6902 17.022V0.557999H85.5702V30H84.0162ZM112.331 0.557999V6.438H98.5974V11.856H109.937V17.736H98.5974V30H92.7174V0.557999H112.331ZM126.608 0.557999H128.33L142.232 30H135.722L127.322 12.108L118.208 30H111.614L126.608 0.557999ZM155.148 17.568L154.938 17.526C153.062 17.05 151.578 16.434 150.486 15.678C148.106 14.11 146.846 11.898 146.706 9.042C146.566 6.69 147.28 4.688 148.848 3.036C149.828 2.028 150.962 1.3 152.25 0.852C153.566 0.375999 154.714 0.137999 155.694 0.137999C157.01 0.137999 158.27 0.305998 159.474 0.641997C160.678 0.977998 161.574 1.314 162.162 1.65C162.75 1.958 163.534 2.434 164.514 3.078L165.48 3.708L162.414 8.706L161.364 8.034C160.552 7.53 159.95 7.166 159.558 6.942C159.166 6.718 158.62 6.508 157.92 6.312C157.248 6.116 156.506 6.018 155.694 6.018C155.414 6.018 154.994 6.116 154.434 6.312C153.874 6.508 153.426 6.774 153.09 7.11C152.726 7.474 152.558 8.034 152.586 8.79C152.614 9.546 152.908 10.162 153.468 10.638C154.056 11.086 155.022 11.478 156.366 11.814C156.59 11.87 156.87 11.954 157.206 12.066C160.034 13.046 162.204 14.348 163.716 15.972C165.256 17.68 166.026 19.598 166.026 21.726C166.026 23.882 165.242 25.828 163.674 27.564C161.882 29.58 159.628 30.588 156.912 30.588C155.064 30.588 153.342 30.35 151.746 29.874C149.058 29.034 146.72 27.55 144.732 25.422L149.016 21.39C151.088 23.602 153.72 24.708 156.912 24.708C157.976 24.708 158.774 24.358 159.306 23.658C159.866 22.958 160.146 22.314 160.146 21.726C160.146 20.102 158.522 18.73 155.274 17.61L155.148 17.568ZM212.078 3.33L208.298 7.698C206.898 6.802 205.344 6.326 203.636 6.27C201.956 6.186 200.402 6.48 198.974 7.152C197.574 7.824 196.384 8.888 195.404 10.344C194.452 11.772 193.976 13.438 193.976 15.342C193.976 17.33 194.48 19.066 195.488 20.55C196.496 22.034 197.728 23.098 199.184 23.742C200.668 24.386 202.278 24.638 204.014 24.498C205.75 24.358 207.29 23.77 208.634 22.734L212.414 27.06C209.558 29.412 206.31 30.588 202.67 30.588C198.47 30.588 194.872 29.104 191.876 26.136C188.908 23.14 187.424 19.542 187.424 15.342C187.424 11.142 188.908 7.558 191.876 4.59C194.872 1.594 198.47 0.0959995 202.67 0.0959995C206.17 0.0959995 209.306 1.174 212.078 3.33ZM225.838 0.557999V24.12H236.8V29.958H219.958V0.557999H225.838ZM243.767 4.506C246.763 1.51 250.361 0.0119981 254.561 0.0119981C258.761 0.0119981 262.345 1.51 265.313 4.506C268.309 7.474 269.807 11.058 269.807 15.258C269.807 19.458 268.309 23.056 265.313 26.052C262.345 29.02 258.761 30.504 254.561 30.504C250.361 30.504 246.763 29.02 243.767 26.052C240.799 23.056 239.315 19.458 239.315 15.258C239.315 11.058 240.799 7.474 243.767 4.506ZM261.071 8.748C259.279 6.956 257.109 6.06 254.561 6.06C252.013 6.06 249.843 6.956 248.051 8.748C246.259 10.54 245.363 12.71 245.363 15.258C245.363 17.806 246.259 19.976 248.051 21.768C249.843 23.56 252.013 24.456 254.561 24.456C257.109 24.456 259.279 23.56 261.071 21.768C262.863 19.976 263.759 17.806 263.759 15.258C263.759 12.71 262.863 10.54 261.071 8.748ZM274.223 0.557999H296.441V6.438H288.293V30H282.413V6.438H274.223V0.557999ZM320.125 11.856V0.599998H326.005V30H320.125V17.736H309.247V30H303.367V0.599998H309.247V11.856H320.125ZM333.563 29.958V0.557999H339.443V29.958H333.563ZM369.411 30L352.863 12.822V30H346.983V0.557999H348.831L365.085 17.022V0.557999H370.965V30H369.411ZM394.775 11.856H406.997V14.838C406.997 19.374 405.569 23.126 402.713 26.094C399.857 29.034 396.413 30.504 392.381 30.504H392.339C388.111 30.448 384.527 28.95 381.587 26.01C378.675 23.042 377.233 19.444 377.261 15.216C377.289 11.044 378.787 7.488 381.755 4.548C384.751 1.608 388.335 0.137999 392.507 0.137999H392.633C396.133 0.165999 399.255 1.286 401.999 3.498L397.757 7.656C396.245 6.62 394.523 6.074 392.591 6.018H392.507C389.931 6.018 387.733 6.928 385.913 8.748C384.065 10.54 383.141 12.724 383.141 15.3C383.085 17.876 383.967 20.088 385.787 21.936C387.607 23.812 389.805 24.75 392.381 24.75C394.481 24.75 396.371 24.092 398.051 22.776C399.731 21.432 400.851 19.752 401.411 17.736H394.775V11.856Z"/>
</mask>
<path d="M11.306 17.568L11.096 17.526C9.22 17.05 7.736 16.434 6.644 15.678C4.264 14.11 3.004 11.898 2.864 9.042C2.724 6.69 3.438 4.688 5.006 3.036C5.986 2.028 7.12 1.3 8.408 0.852C9.724 0.375999 10.872 0.137999 11.852 0.137999C13.168 0.137999 14.428 0.305998 15.632 0.641997C16.836 0.977998 17.732 1.314 18.32 1.65C18.908 1.958 19.692 2.434 20.672 3.078L21.638 3.708L18.572 8.706L17.522 8.034C16.71 7.53 16.108 7.166 15.716 6.942C15.324 6.718 14.778 6.508 14.078 6.312C13.406 6.116 12.664 6.018 11.852 6.018C11.572 6.018 11.152 6.116 10.592 6.312C10.032 6.508 9.584 6.774 9.248 7.11C8.884 7.474 8.716 8.034 8.744 8.79C8.772 9.546 9.066 10.162 9.626 10.638C10.214 11.086 11.18 11.478 12.524 11.814C12.748 11.87 13.028 11.954 13.364 12.066C16.192 13.046 18.362 14.348 19.874 15.972C21.414 17.68 22.184 19.598 22.184 21.726C22.184 23.882 21.4 25.828 19.832 27.564C18.04 29.58 15.786 30.588 13.07 30.588C11.222 30.588 9.5 30.35 7.904 29.874C5.216 29.034 2.878 27.55 0.89 25.422L5.174 21.39C7.246 23.602 9.878 24.708 13.07 24.708C14.134 24.708 14.932 24.358 15.464 23.658C16.024 22.958 16.304 22.314 16.304 21.726C16.304 20.102 14.68 18.73 11.432 17.61L11.306 17.568ZM40.9429 0.557999H42.6649L56.5669 30H50.0569L41.6569 12.108L32.5429 30H25.9489L40.9429 0.557999ZM84.0162 30L67.4682 12.822V30H61.5882V0.557999H63.4362L79.6902 17.022V0.557999H85.5702V30H84.0162ZM112.331 0.557999V6.438H98.5974V11.856H109.937V17.736H98.5974V30H92.7174V0.557999H112.331ZM126.608 0.557999H128.33L142.232 30H135.722L127.322 12.108L118.208 30H111.614L126.608 0.557999ZM155.148 17.568L154.938 17.526C153.062 17.05 151.578 16.434 150.486 15.678C148.106 14.11 146.846 11.898 146.706 9.042C146.566 6.69 147.28 4.688 148.848 3.036C149.828 2.028 150.962 1.3 152.25 0.852C153.566 0.375999 154.714 0.137999 155.694 0.137999C157.01 0.137999 158.27 0.305998 159.474 0.641997C160.678 0.977998 161.574 1.314 162.162 1.65C162.75 1.958 163.534 2.434 164.514 3.078L165.48 3.708L162.414 8.706L161.364 8.034C160.552 7.53 159.95 7.166 159.558 6.942C159.166 6.718 158.62 6.508 157.92 6.312C157.248 6.116 156.506 6.018 155.694 6.018C155.414 6.018 154.994 6.116 154.434 6.312C153.874 6.508 153.426 6.774 153.09 7.11C152.726 7.474 152.558 8.034 152.586 8.79C152.614 9.546 152.908 10.162 153.468 10.638C154.056 11.086 155.022 11.478 156.366 11.814C156.59 11.87 156.87 11.954 157.206 12.066C160.034 13.046 162.204 14.348 163.716 15.972C165.256 17.68 166.026 19.598 166.026 21.726C166.026 23.882 165.242 25.828 163.674 27.564C161.882 29.58 159.628 30.588 156.912 30.588C155.064 30.588 153.342 30.35 151.746 29.874C149.058 29.034 146.72 27.55 144.732 25.422L149.016 21.39C151.088 23.602 153.72 24.708 156.912 24.708C157.976 24.708 158.774 24.358 159.306 23.658C159.866 22.958 160.146 22.314 160.146 21.726C160.146 20.102 158.522 18.73 155.274 17.61L155.148 17.568ZM212.078 3.33L208.298 7.698C206.898 6.802 205.344 6.326 203.636 6.27C201.956 6.186 200.402 6.48 198.974 7.152C197.574 7.824 196.384 8.888 195.404 10.344C194.452 11.772 193.976 13.438 193.976 15.342C193.976 17.33 194.48 19.066 195.488 20.55C196.496 22.034 197.728 23.098 199.184 23.742C200.668 24.386 202.278 24.638 204.014 24.498C205.75 24.358 207.29 23.77 208.634 22.734L212.414 27.06C209.558 29.412 206.31 30.588 202.67 30.588C198.47 30.588 194.872 29.104 191.876 26.136C188.908 23.14 187.424 19.542 187.424 15.342C187.424 11.142 188.908 7.558 191.876 4.59C194.872 1.594 198.47 0.0959995 202.67 0.0959995C206.17 0.0959995 209.306 1.174 212.078 3.33ZM225.838 0.557999V24.12H236.8V29.958H219.958V0.557999H225.838ZM243.767 4.506C246.763 1.51 250.361 0.0119981 254.561 0.0119981C258.761 0.0119981 262.345 1.51 265.313 4.506C268.309 7.474 269.807 11.058 269.807 15.258C269.807 19.458 268.309 23.056 265.313 26.052C262.345 29.02 258.761 30.504 254.561 30.504C250.361 30.504 246.763 29.02 243.767 26.052C240.799 23.056 239.315 19.458 239.315 15.258C239.315 11.058 240.799 7.474 243.767 4.506ZM261.071 8.748C259.279 6.956 257.109 6.06 254.561 6.06C252.013 6.06 249.843 6.956 248.051 8.748C246.259 10.54 245.363 12.71 245.363 15.258C245.363 17.806 246.259 19.976 248.051 21.768C249.843 23.56 252.013 24.456 254.561 24.456C257.109 24.456 259.279 23.56 261.071 21.768C262.863 19.976 263.759 17.806 263.759 15.258C263.759 12.71 262.863 10.54 261.071 8.748ZM274.223 0.557999H296.441V6.438H288.293V30H282.413V6.438H274.223V0.557999ZM320.125 11.856V0.599998H326.005V30H320.125V17.736H309.247V30H303.367V0.599998H309.247V11.856H320.125ZM333.563 29.958V0.557999H339.443V29.958H333.563ZM369.411 30L352.863 12.822V30H346.983V0.557999H348.831L365.085 17.022V0.557999H370.965V30H369.411ZM394.775 11.856H406.997V14.838C406.997 19.374 405.569 23.126 402.713 26.094C399.857 29.034 396.413 30.504 392.381 30.504H392.339C388.111 30.448 384.527 28.95 381.587 26.01C378.675 23.042 377.233 19.444 377.261 15.216C377.289 11.044 378.787 7.488 381.755 4.548C384.751 1.608 388.335 0.137999 392.507 0.137999H392.633C396.133 0.165999 399.255 1.286 401.999 3.498L397.757 7.656C396.245 6.62 394.523 6.074 392.591 6.018H392.507C389.931 6.018 387.733 6.928 385.913 8.748C384.065 10.54 383.141 12.724 383.141 15.3C383.085 17.876 383.967 20.088 385.787 21.936C387.607 23.812 389.805 24.75 392.381 24.75C394.481 24.75 396.371 24.092 398.051 22.776C399.731 21.432 400.851 19.752 401.411 17.736H394.775V11.856Z" fill="#323C9A"/>
<path d="M11.306 17.568L11.6222 16.6193L11.5632 16.5996L11.5021 16.5874L11.306 17.568ZM11.096 17.526L10.8501 18.4953L10.8748 18.5016L10.8999 18.5066L11.096 17.526ZM6.644 15.678L7.21321 14.8558L7.20376 14.8493L7.19416 14.8429L6.644 15.678ZM2.864 9.042L3.86286 8.99304L3.86223 8.98258L2.864 9.042ZM5.006 3.036L4.28895 2.33887L4.28069 2.34757L5.006 3.036ZM8.408 0.852L8.73655 1.79657L8.74814 1.79238L8.408 0.852ZM15.632 0.641997L15.9008 -0.321199L15.9008 -0.321199L15.632 0.641997ZM18.32 1.65L17.8239 2.51824L17.8398 2.52733L17.856 2.53583L18.32 1.65ZM20.672 3.078L20.1228 3.91371L20.1257 3.91561L20.672 3.078ZM21.638 3.708L22.4904 4.2309L22.999 3.40175L22.1843 2.87039L21.638 3.708ZM18.572 8.706L18.0329 9.54827L18.8914 10.0977L19.4244 9.2289L18.572 8.706ZM17.522 8.034L18.0611 7.19165L18.0494 7.18436L17.522 8.034ZM15.716 6.942L16.2121 6.07376V6.07376L15.716 6.942ZM14.078 6.312L13.798 7.27206L13.8084 7.27496L14.078 6.312ZM10.592 6.312L10.9223 7.25586L10.9224 7.25586L10.592 6.312ZM9.248 7.11L9.95511 7.81711L9.95511 7.81711L9.248 7.11ZM8.744 8.79L7.74469 8.82701L8.744 8.79ZM9.626 10.638L8.97835 11.3999L8.99871 11.4172L9.01996 11.4334L9.626 10.638ZM12.524 11.814L12.7665 10.8439L12.7665 10.8439L12.524 11.814ZM13.364 12.066L13.6915 11.1211L13.6802 11.1173L13.364 12.066ZM19.874 15.972L20.6167 15.3024L20.6113 15.2964L20.6059 15.2906L19.874 15.972ZM19.832 27.564L19.0899 26.8937L19.0846 26.8996L19.832 27.564ZM7.904 29.874L7.6057 30.8286L7.6182 30.8323L7.904 29.874ZM0.89 25.422L0.204635 24.6938L-0.52087 25.3766L0.159265 26.1047L0.89 25.422ZM5.174 21.39L5.90383 20.7064L5.21857 19.9748L4.48864 20.6618L5.174 21.39ZM15.464 23.658L14.6831 23.0333L14.6754 23.043L14.6678 23.0529L15.464 23.658ZM11.432 17.61L11.758 16.6646L11.7482 16.6613L11.432 17.61ZM11.5021 16.5874L11.2921 16.5454L10.8999 18.5066L11.1099 18.5486L11.5021 16.5874ZM11.3419 16.5567C9.53344 16.0978 8.17319 15.5204 7.21321 14.8558L6.07479 16.5002C7.29881 17.3476 8.90656 18.0022 10.8501 18.4953L11.3419 16.5567ZM7.19416 14.8429C5.08155 13.4511 3.98724 11.5317 3.8628 8.99304L1.8652 9.09096C2.02076 12.2643 3.44645 14.7689 6.09384 16.5131L7.19416 14.8429ZM3.86223 8.98258C3.73804 6.89614 4.36116 5.16798 5.73131 3.72443L4.28069 2.34757C2.51484 4.20802 1.70996 6.48386 1.86577 9.10142L3.86223 8.98258ZM5.723 3.73308C6.59799 2.83309 7.60013 2.19176 8.73652 1.7965L8.07948 -0.0924971C6.63987 0.408235 5.37401 1.22291 4.28901 2.33892L5.723 3.73308ZM8.74814 1.79238C9.99785 1.34035 11.0261 1.138 11.852 1.138V-0.862001C10.7179 -0.862001 9.45015 -0.588352 8.06786 -0.0883763L8.74814 1.79238ZM11.852 1.138C13.0819 1.138 14.2512 1.29487 15.3632 1.60519L15.9008 -0.321199C14.6048 -0.682877 13.2541 -0.862001 11.852 -0.862001V1.138ZM15.3632 1.60519C16.5426 1.93433 17.3441 2.24407 17.8239 2.51824L18.8161 0.781757C18.1199 0.38393 17.1294 0.021669 15.9008 -0.321199L15.3632 1.60519ZM17.856 2.53583C18.4008 2.82122 19.153 3.27636 20.1228 3.9137L21.2212 2.24229C20.231 1.59163 19.4152 1.09478 18.784 0.764167L17.856 2.53583ZM20.1257 3.91561L21.0917 4.54561L22.1843 2.87039L21.2183 2.24039L20.1257 3.91561ZM20.7856 3.1851L17.7196 8.1831L19.4244 9.2289L22.4904 4.2309L20.7856 3.1851ZM19.1111 7.86373L18.0611 7.19173L16.9829 8.87627L18.0329 9.54827L19.1111 7.86373ZM18.0494 7.18436C17.2358 6.67937 16.6208 6.3073 16.2121 6.07376L15.2199 7.81024C15.5952 8.02469 16.1842 8.38063 16.9946 8.88364L18.0494 7.18436ZM16.2121 6.07376C15.719 5.79199 15.085 5.55549 14.3476 5.34904L13.8084 7.27496C14.471 7.46051 14.929 7.64401 15.2199 7.81024L16.2121 6.07376ZM14.358 5.352C13.5819 5.12562 12.744 5.018 11.852 5.018V7.018C12.584 7.018 13.2301 7.10637 13.798 7.272L14.358 5.352ZM11.852 5.018C11.392 5.018 10.8362 5.16704 10.2616 5.36814L10.9224 7.25586C11.4678 7.06496 11.752 7.018 11.852 7.018V5.018ZM10.2617 5.36814C9.59424 5.60174 9.00615 5.93764 8.54089 6.40289L9.95511 7.81711C10.1619 7.61036 10.4698 7.41426 10.9223 7.25586L10.2617 5.36814ZM8.54089 6.40289C7.90334 7.04045 7.71126 7.92466 7.74469 8.82701L9.74331 8.75299C9.72074 8.14334 9.86466 7.90755 9.95511 7.81711L8.54089 6.40289ZM7.74469 8.82701C7.78272 9.85395 8.19765 10.7363 8.97835 11.3999L10.2736 9.87606C9.93435 9.58765 9.76128 9.23805 9.74331 8.75299L7.74469 8.82701ZM9.01996 11.4334C9.77339 12.0075 10.9008 12.439 12.2815 12.7841L12.7665 10.8439C11.4592 10.517 10.6546 10.1645 10.232 9.84257L9.01996 11.4334ZM12.2815 12.7841C12.4713 12.8316 12.7247 12.907 13.0478 13.0147L13.6802 11.1173C13.3313 11.001 13.0247 10.9084 12.7665 10.8439L12.2815 12.7841ZM13.0366 13.0109C15.7617 13.9552 17.7734 15.1833 19.1421 16.6534L20.6059 15.2906C18.9506 13.5127 16.6223 12.1368 13.6914 11.1211L13.0366 13.0109ZM19.1313 16.6416C20.5202 18.182 21.184 19.8662 21.184 21.726H23.184C23.184 19.3298 22.3078 17.178 20.6167 15.3024L19.1313 16.6416ZM21.184 21.726C21.184 23.6124 20.5072 25.3245 19.0899 26.8937L20.5741 28.2343C22.2928 26.3315 23.184 24.1516 23.184 21.726H21.184ZM19.0846 26.8996C17.4839 28.7005 15.5026 29.588 13.07 29.588V31.588C16.0694 31.588 18.5961 30.4595 20.5794 28.2284L19.0846 26.8996ZM13.07 29.588C11.3083 29.588 9.68352 29.3612 8.18981 28.9157L7.6182 30.8323C9.31648 31.3388 11.1357 31.588 13.07 31.588V29.588ZM8.20228 28.9195C5.6853 28.133 3.49474 26.7453 1.62074 24.7393L0.159265 26.1047C2.26126 28.3547 4.7467 29.935 7.60573 30.8285L8.20228 28.9195ZM1.57536 26.1502L5.85936 22.1182L4.48864 20.6618L0.204635 24.6938L1.57536 26.1502ZM4.44417 22.0736C6.71624 24.4992 9.61797 25.708 13.07 25.708V23.708C10.138 23.708 7.77576 22.7048 5.90383 20.7064L4.44417 22.0736ZM13.07 25.708C14.3731 25.708 15.4986 25.2651 16.2602 24.2631L14.6678 23.0529C14.3654 23.4509 13.8949 23.708 13.07 23.708V25.708ZM16.2449 24.2827C16.8759 23.4939 17.304 22.6331 17.304 21.726H15.304C15.304 21.9949 15.1721 22.4221 14.6831 23.0333L16.2449 24.2827ZM17.304 21.726C17.304 20.5345 16.6939 19.5283 15.7314 18.7151C14.7848 17.9155 13.4357 17.2432 11.758 16.6646L11.106 18.5554C12.6763 19.0968 13.7632 19.6705 14.4406 20.2429C15.1021 20.8017 15.304 21.2935 15.304 21.726H17.304ZM11.7482 16.6613L11.6222 16.6193L10.9898 18.5167L11.1158 18.5587L11.7482 16.6613ZM40.9429 0.557999V-0.442001H40.33L40.0518 0.104187L40.9429 0.557999ZM42.6649 0.557999L43.5692 0.131021L43.2986 -0.442001H42.6649V0.557999ZM56.5669 30V31H58.145L57.4712 29.573L56.5669 30ZM50.0569 30L49.1517 30.425L49.4217 31H50.0569V30ZM41.6569 12.108L42.5621 11.683L41.6935 9.83295L40.7659 11.6541L41.6569 12.108ZM32.5429 30V31H33.1558L33.434 30.4539L32.5429 30ZM25.9489 30L25.0578 29.5462L24.3174 31H25.9489V30ZM40.9429 1.558H42.6649V-0.442001H40.9429V1.558ZM41.7606 0.984976L55.6626 30.427L57.4712 29.573L43.5692 0.131021L41.7606 0.984976ZM56.5669 29H50.0569V31H56.5669V29ZM50.9621 29.575L42.5621 11.683L40.7517 12.533L49.1517 30.425L50.9621 29.575ZM40.7659 11.6541L31.6519 29.5461L33.434 30.4539L42.548 12.5619L40.7659 11.6541ZM32.5429 29H25.9489V31H32.5429V29ZM26.84 30.4538L41.834 1.01181L40.0518 0.104187L25.0578 29.5462L26.84 30.4538ZM84.0162 30L83.296 30.6938L83.591 31H84.0162V30ZM67.4682 12.822L68.1884 12.1282L66.4682 10.3425V12.822H67.4682ZM67.4682 30V31H68.4682V30H67.4682ZM61.5882 30H60.5882V31H61.5882V30ZM61.5882 0.557999V-0.442001H60.5882V0.557999H61.5882ZM63.4362 0.557999L64.1478 -0.144555L63.8542 -0.442001H63.4362V0.557999ZM79.6902 17.022L78.9786 17.7246L80.6902 19.4583V17.022H79.6902ZM79.6902 0.557999V-0.442001H78.6902V0.557999H79.6902ZM85.5702 0.557999H86.5702V-0.442001H85.5702V0.557999ZM85.5702 30V31H86.5702V30H85.5702ZM84.7364 29.3062L68.1884 12.1282L66.748 13.5158L83.296 30.6938L84.7364 29.3062ZM66.4682 12.822V30H68.4682V12.822H66.4682ZM67.4682 29H61.5882V31H67.4682V29ZM62.5882 30V0.557999H60.5882V30H62.5882ZM61.5882 1.558H63.4362V-0.442001H61.5882V1.558ZM62.7246 1.26055L78.9786 17.7246L80.4018 16.3194L64.1478 -0.144555L62.7246 1.26055ZM80.6902 17.022V0.557999H78.6902V17.022H80.6902ZM79.6902 1.558H85.5702V-0.442001H79.6902V1.558ZM84.5702 0.557999V30H86.5702V0.557999H84.5702ZM85.5702 29H84.0162V31H85.5702V29ZM112.331 0.557999H113.331V-0.442001H112.331V0.557999ZM112.331 6.438V7.438H113.331V6.438H112.331ZM98.5974 6.438V5.438H97.5974V6.438H98.5974ZM98.5974 11.856H97.5974V12.856H98.5974V11.856ZM109.937 11.856H110.937V10.856H109.937V11.856ZM109.937 17.736V18.736H110.937V17.736H109.937ZM98.5974 17.736V16.736H97.5974V17.736H98.5974ZM98.5974 30V31H99.5974V30H98.5974ZM92.7174 30H91.7174V31H92.7174V30ZM92.7174 0.557999V-0.442001H91.7174V0.557999H92.7174ZM111.331 0.557999V6.438H113.331V0.557999H111.331ZM112.331 5.438H98.5974V7.438H112.331V5.438ZM97.5974 6.438V11.856H99.5974V6.438H97.5974ZM98.5974 12.856H109.937V10.856H98.5974V12.856ZM108.937 11.856V17.736H110.937V11.856H108.937ZM109.937 16.736H98.5974V18.736H109.937V16.736ZM97.5974 17.736V30H99.5974V17.736H97.5974ZM98.5974 29H92.7174V31H98.5974V29ZM93.7174 30V0.557999H91.7174V30H93.7174ZM92.7174 1.558H112.331V-0.442001H92.7174V1.558ZM126.608 0.557999V-0.442001H125.995L125.717 0.104187L126.608 0.557999ZM128.33 0.557999L129.234 0.131021L128.964 -0.442001H128.33V0.557999ZM142.232 30V31H143.81L143.136 29.573L142.232 30ZM135.722 30L134.817 30.425L135.087 31H135.722V30ZM127.322 12.108L128.227 11.683L127.359 9.83295L126.431 11.6541L127.322 12.108ZM118.208 30V31H118.821L119.099 30.4539L118.208 30ZM111.614 30L110.723 29.5462L109.983 31H111.614V30ZM126.608 1.558H128.33V-0.442001H126.608V1.558ZM127.426 0.984976L141.328 30.427L143.136 29.573L129.234 0.131021L127.426 0.984976ZM142.232 29H135.722V31H142.232V29ZM136.627 29.575L128.227 11.683L126.417 12.533L134.817 30.425L136.627 29.575ZM126.431 11.6541L117.317 29.5461L119.099 30.4539L128.213 12.5619L126.431 11.6541ZM118.208 29H111.614V31H118.208V29ZM112.505 30.4538L127.499 1.01181L125.717 0.104187L110.723 29.5462L112.505 30.4538ZM155.148 17.568L155.464 16.6193L155.405 16.5996L155.344 16.5874L155.148 17.568ZM154.938 17.526L154.692 18.4953L154.717 18.5016L154.742 18.5066L154.938 17.526ZM150.486 15.678L151.055 14.8558L151.046 14.8493L151.036 14.8429L150.486 15.678ZM146.706 9.042L147.705 8.99304L147.704 8.98258L146.706 9.042ZM148.848 3.036L148.131 2.33887L148.122 2.34757L148.848 3.036ZM152.25 0.852L152.578 1.79657L152.59 1.79238L152.25 0.852ZM159.474 0.641997L159.743 -0.321199V-0.321199L159.474 0.641997ZM162.162 1.65L161.666 2.51824L161.682 2.52733L161.698 2.53583L162.162 1.65ZM164.514 3.078L163.965 3.91371L163.968 3.91561L164.514 3.078ZM165.48 3.708L166.332 4.2309L166.841 3.40175L166.026 2.87039L165.48 3.708ZM162.414 8.706L161.875 9.54827L162.733 10.0977L163.266 9.2289L162.414 8.706ZM161.364 8.034L161.903 7.19165L161.891 7.18436L161.364 8.034ZM159.558 6.942L160.054 6.07376V6.07376L159.558 6.942ZM157.92 6.312L157.64 7.27206L157.65 7.27496L157.92 6.312ZM154.434 6.312L154.764 7.25586V7.25586L154.434 6.312ZM153.09 7.11L153.797 7.81711V7.81711L153.09 7.11ZM152.586 8.79L151.586 8.82701L152.586 8.79ZM153.468 10.638L152.82 11.3999L152.84 11.4172L152.862 11.4334L153.468 10.638ZM156.366 11.814L156.608 10.8439V10.8439L156.366 11.814ZM157.206 12.066L157.533 11.1211L157.522 11.1173L157.206 12.066ZM163.716 15.972L164.458 15.3024L164.453 15.2964L164.448 15.2906L163.716 15.972ZM163.674 27.564L162.932 26.8937L162.926 26.8996L163.674 27.564ZM151.746 29.874L151.447 30.8286L151.46 30.8323L151.746 29.874ZM144.732 25.422L144.046 24.6938L143.321 25.3766L144.001 26.1047L144.732 25.422ZM149.016 21.39L149.746 20.7064L149.06 19.9748L148.33 20.6618L149.016 21.39ZM159.306 23.658L158.525 23.0333L158.517 23.043L158.51 23.0529L159.306 23.658ZM155.274 17.61L155.6 16.6646L155.59 16.6613L155.274 17.61ZM155.344 16.5874L155.134 16.5454L154.742 18.5066L154.952 18.5486L155.344 16.5874ZM155.184 16.5567C153.375 16.0978 152.015 15.5204 151.055 14.8558L149.917 16.5002C151.141 17.3476 152.748 18.0022 154.692 18.4953L155.184 16.5567ZM151.036 14.8429C148.923 13.4511 147.829 11.5317 147.705 8.99304L145.707 9.09096C145.863 12.2643 147.288 14.7689 149.936 16.5131L151.036 14.8429ZM147.704 8.98258C147.58 6.89614 148.203 5.16798 149.573 3.72443L148.122 2.34757C146.357 4.20802 145.552 6.48386 145.708 9.10142L147.704 8.98258ZM149.565 3.73308C150.44 2.83309 151.442 2.19176 152.578 1.7965L151.921 -0.0924971C150.482 0.408235 149.216 1.22291 148.131 2.33892L149.565 3.73308ZM152.59 1.79238C153.84 1.34035 154.868 1.138 155.694 1.138V-0.862001C154.56 -0.862001 153.292 -0.588352 151.91 -0.0883763L152.59 1.79238ZM155.694 1.138C156.924 1.138 158.093 1.29487 159.205 1.60519L159.743 -0.321199C158.447 -0.682877 157.096 -0.862001 155.694 -0.862001V1.138ZM159.205 1.60519C160.384 1.93433 161.186 2.24407 161.666 2.51824L162.658 0.781757C161.962 0.38393 160.971 0.021669 159.743 -0.321199L159.205 1.60519ZM161.698 2.53583C162.243 2.82122 162.995 3.27636 163.965 3.9137L165.063 2.24229C164.073 1.59163 163.257 1.09478 162.626 0.764167L161.698 2.53583ZM163.968 3.91561L164.934 4.54561L166.026 2.87039L165.06 2.24039L163.968 3.91561ZM164.627 3.1851L161.561 8.1831L163.266 9.2289L166.332 4.2309L164.627 3.1851ZM162.953 7.86373L161.903 7.19173L160.825 8.87627L161.875 9.54827L162.953 7.86373ZM161.891 7.18436C161.078 6.67937 160.463 6.3073 160.054 6.07376L159.062 7.81024C159.437 8.02469 160.026 8.38063 160.836 8.88364L161.891 7.18436ZM160.054 6.07376C159.561 5.79199 158.927 5.55549 158.189 5.34904L157.65 7.27496C158.313 7.46051 158.771 7.64401 159.062 7.81024L160.054 6.07376ZM158.2 5.352C157.424 5.12562 156.586 5.018 155.694 5.018V7.018C156.426 7.018 157.072 7.10637 157.64 7.272L158.2 5.352ZM155.694 5.018C155.234 5.018 154.678 5.16704 154.103 5.36814L154.764 7.25586C155.31 7.06496 155.594 7.018 155.694 7.018V5.018ZM154.103 5.36814C153.436 5.60174 152.848 5.93764 152.383 6.40289L153.797 7.81711C154.004 7.61036 154.312 7.41426 154.764 7.25586L154.103 5.36814ZM152.383 6.40289C151.745 7.04045 151.553 7.92466 151.586 8.82701L153.585 8.75299C153.563 8.14334 153.706 7.90755 153.797 7.81711L152.383 6.40289ZM151.586 8.82701C151.625 9.85395 152.039 10.7363 152.82 11.3999L154.115 9.87606C153.776 9.58765 153.603 9.23805 153.585 8.75299L151.586 8.82701ZM152.862 11.4334C153.615 12.0075 154.743 12.439 156.123 12.7841L156.608 10.8439C155.301 10.517 154.496 10.1645 154.074 9.84257L152.862 11.4334ZM156.123 12.7841C156.313 12.8316 156.567 12.907 156.89 13.0147L157.522 11.1173C157.173 11.001 156.867 10.9084 156.608 10.8439L156.123 12.7841ZM156.878 13.0109C159.604 13.9552 161.615 15.1833 162.984 16.6534L164.448 15.2906C162.792 13.5127 160.464 12.1368 157.533 11.1211L156.878 13.0109ZM162.973 16.6416C164.362 18.182 165.026 19.8662 165.026 21.726H167.026C167.026 19.3298 166.15 17.178 164.458 15.3024L162.973 16.6416ZM165.026 21.726C165.026 23.6124 164.349 25.3245 162.932 26.8937L164.416 28.2343C166.135 26.3315 167.026 24.1516 167.026 21.726H165.026ZM162.926 26.8996C161.326 28.7005 159.344 29.588 156.912 29.588V31.588C159.911 31.588 162.438 30.4595 164.421 28.2284L162.926 26.8996ZM156.912 29.588C155.15 29.588 153.525 29.3612 152.032 28.9157L151.46 30.8323C153.158 31.3388 154.977 31.588 156.912 31.588V29.588ZM152.044 28.9195C149.527 28.133 147.337 26.7453 145.463 24.7393L144.001 26.1047C146.103 28.3547 148.589 29.935 151.448 30.8285L152.044 28.9195ZM145.417 26.1502L149.701 22.1182L148.33 20.6618L144.046 24.6938L145.417 26.1502ZM148.286 22.0736C150.558 24.4992 153.46 25.708 156.912 25.708V23.708C153.98 23.708 151.618 22.7048 149.746 20.7064L148.286 22.0736ZM156.912 25.708C158.215 25.708 159.34 25.2651 160.102 24.2631L158.51 23.0529C158.207 23.4509 157.737 23.708 156.912 23.708V25.708ZM160.087 24.2827C160.718 23.4939 161.146 22.6331 161.146 21.726H159.146C159.146 21.9949 159.014 22.4221 158.525 23.0333L160.087 24.2827ZM161.146 21.726C161.146 20.5345 160.536 19.5283 159.573 18.7151C158.627 17.9155 157.278 17.2432 155.6 16.6646L154.948 18.5554C156.518 19.0968 157.605 19.6705 158.282 20.2429C158.944 20.8017 159.146 21.2935 159.146 21.726H161.146ZM155.59 16.6613L155.464 16.6193L154.832 18.5167L154.958 18.5587L155.59 16.6613ZM212.078 3.33L212.834 3.98437L213.524 3.18757L212.692 2.54065L212.078 3.33ZM208.298 7.698L207.759 8.54027L208.488 9.00678L209.054 8.35238L208.298 7.698ZM203.636 6.27L203.586 7.26875L203.595 7.26918L203.603 7.26946L203.636 6.27ZM198.974 7.152L198.548 6.24715L198.541 6.25048L198.974 7.152ZM195.404 10.344L194.575 9.78562L194.572 9.7893L195.404 10.344ZM195.488 20.55L194.661 21.1119L195.488 20.55ZM199.184 23.742L198.78 24.6566L198.786 24.6593L199.184 23.742ZM204.014 24.498L203.934 23.5012L204.014 24.498ZM208.634 22.734L209.387 22.076L208.768 21.3679L208.024 21.942L208.634 22.734ZM212.414 27.06L213.05 27.8319L213.845 27.1774L213.167 26.402L212.414 27.06ZM191.876 26.136L191.166 26.8398L191.172 26.8464L191.876 26.136ZM191.876 4.59L191.169 3.88289V3.88289L191.876 4.59ZM211.322 2.67562L207.542 7.04362L209.054 8.35238L212.834 3.98437L211.322 2.67562ZM208.837 6.85573C207.281 5.85992 205.551 5.33226 203.669 5.27054L203.603 7.26946C205.137 7.31974 206.515 7.74408 207.759 8.54027L208.837 6.85573ZM203.686 5.27125C201.853 5.17961 200.135 5.50073 198.548 6.24718L199.4 8.05682C200.67 7.45927 202.059 7.19239 203.586 7.26875L203.686 5.27125ZM198.541 6.25048C196.961 7.00913 195.641 8.20158 194.575 9.78562L196.234 10.9024C197.128 9.57442 198.187 8.63887 199.407 8.05352L198.541 6.25048ZM194.572 9.7893C193.499 11.3993 192.976 13.263 192.976 15.342H194.976C194.976 13.613 195.406 12.1447 196.236 10.8987L194.572 9.7893ZM192.976 15.342C192.976 17.5078 193.528 19.4444 194.661 21.1119L196.315 19.9881C195.432 18.6876 194.976 17.1522 194.976 15.342H192.976ZM194.661 21.1119C195.76 22.7305 197.132 23.9276 198.78 24.6565L199.589 22.8275C198.325 22.2684 197.232 21.3375 196.315 19.9881L194.661 21.1119ZM198.786 24.6593C200.432 25.3736 202.208 25.6469 204.095 25.4948L203.934 23.5012C202.348 23.6291 200.904 23.3984 199.582 22.8247L198.786 24.6593ZM204.095 25.4948C206.018 25.3396 207.743 24.6833 209.245 23.526L208.024 21.942C206.837 22.8567 205.482 23.3764 203.934 23.5012L204.095 25.4948ZM207.881 23.392L211.661 27.718L213.167 26.402L209.387 22.076L207.881 23.392ZM211.778 26.2881C209.098 28.4953 206.074 29.588 202.67 29.588V31.588C206.546 31.588 210.018 30.3287 213.05 27.8319L211.778 26.2881ZM202.67 29.588C198.735 29.588 195.39 28.2089 192.58 25.4256L191.172 26.8464C194.355 29.9991 198.205 31.588 202.67 31.588V29.588ZM192.587 25.4322C189.803 22.6226 188.424 19.2772 188.424 15.342H186.424C186.424 19.8068 188.013 23.6574 191.166 26.8398L192.587 25.4322ZM188.424 15.342C188.424 11.407 189.803 8.07744 192.583 5.29711L191.169 3.88289C188.013 7.03856 186.424 10.877 186.424 15.342H188.424ZM192.583 5.29711C195.394 2.48679 198.738 1.096 202.67 1.096V-0.904001C198.202 -0.904001 194.351 0.701213 191.169 3.88289L192.583 5.29711ZM202.67 1.096C205.947 1.096 208.867 2.09938 211.464 4.11935L212.692 2.54065C209.745 0.248619 206.393 -0.904001 202.67 -0.904001V1.096ZM225.838 0.557999H226.838V-0.442001H225.838V0.557999ZM225.838 24.12H224.838V25.12H225.838V24.12ZM236.8 24.12H237.8V23.12H236.8V24.12ZM236.8 29.958V30.958H237.8V29.958H236.8ZM219.958 29.958H218.958V30.958H219.958V29.958ZM219.958 0.557999V-0.442001H218.958V0.557999H219.958ZM224.838 0.557999V24.12H226.838V0.557999H224.838ZM225.838 25.12H236.8V23.12H225.838V25.12ZM235.8 24.12V29.958H237.8V24.12H235.8ZM236.8 28.958H219.958V30.958H236.8V28.958ZM220.958 29.958V0.557999H218.958V29.958H220.958ZM219.958 1.558H225.838V-0.442001H219.958V1.558ZM243.767 4.506L244.475 5.2131L243.767 4.506ZM265.313 4.506L264.603 5.20981L264.61 5.21642L265.313 4.506ZM265.313 26.052L266.021 26.7591L265.313 26.052ZM243.767 26.052L243.057 26.7558L243.064 26.7624L243.767 26.052ZM248.051 8.748L247.344 8.04089L248.051 8.748ZM248.051 21.768L247.344 22.4751L248.051 21.768ZM244.475 5.2131C247.285 2.40278 250.629 1.012 254.561 1.012V-0.988002C250.094 -0.988002 246.242 0.617212 243.06 3.79889L244.475 5.2131ZM254.561 1.012C258.493 1.012 261.822 2.40247 264.603 5.20978L266.024 3.80222C262.869 0.617525 259.03 -0.988002 254.561 -0.988002V1.012ZM264.61 5.21642C267.417 7.99749 268.807 11.3261 268.807 15.258H270.807C270.807 10.7899 269.202 6.95051 266.017 3.79558L264.61 5.21642ZM268.807 15.258C268.807 19.1902 267.417 22.5346 264.606 25.3449L266.021 26.7591C269.202 23.5774 270.807 19.7258 270.807 15.258H268.807ZM264.606 25.3449C261.826 28.1252 258.496 29.504 254.561 29.504V31.504C259.026 31.504 262.865 29.9148 266.021 26.7591L264.606 25.3449ZM254.561 29.504C250.626 29.504 247.281 28.1249 244.471 25.3416L243.064 26.7624C246.246 29.9151 250.097 31.504 254.561 31.504V29.504ZM244.478 25.3482C241.695 22.5386 240.315 19.1932 240.315 15.258H238.315C238.315 19.7228 239.904 23.5734 243.057 26.7558L244.478 25.3482ZM240.315 15.258C240.315 11.323 241.694 7.99344 244.475 5.2131L243.06 3.79889C239.905 6.95456 238.315 10.793 238.315 15.258H240.315ZM261.779 8.04089C259.798 6.06021 257.373 5.06 254.561 5.06V7.06C256.846 7.06 258.761 7.85178 260.364 9.4551L261.779 8.04089ZM254.561 5.06C251.75 5.06 249.325 6.06021 247.344 8.04089L248.759 9.4551C250.362 7.85178 252.277 7.06 254.561 7.06V5.06ZM247.344 8.04089C245.364 10.0216 244.363 12.4464 244.363 15.258H246.363C246.363 12.9736 247.155 11.0584 248.759 9.4551L247.344 8.04089ZM244.363 15.258C244.363 18.0696 245.364 20.4944 247.344 22.4751L248.759 21.0609C247.155 19.4576 246.363 17.5424 246.363 15.258H244.363ZM247.344 22.4751C249.325 24.4558 251.75 25.456 254.561 25.456V23.456C252.277 23.456 250.362 22.6642 248.759 21.0609L247.344 22.4751ZM254.561 25.456C257.373 25.456 259.798 24.4558 261.779 22.4751L260.364 21.0609C258.761 22.6642 256.846 23.456 254.561 23.456V25.456ZM261.779 22.4751C263.759 20.4944 264.759 18.0696 264.759 15.258H262.759C262.759 17.5424 261.968 19.4576 260.364 21.0609L261.779 22.4751ZM264.759 15.258C264.759 12.4464 263.759 10.0216 261.779 8.04089L260.364 9.4551C261.968 11.0584 262.759 12.9736 262.759 15.258H264.759ZM274.223 0.557999V-0.442001H273.223V0.557999H274.223ZM296.441 0.557999H297.441V-0.442001H296.441V0.557999ZM296.441 6.438V7.438H297.441V6.438H296.441ZM288.293 6.438V5.438H287.293V6.438H288.293ZM288.293 30V31H289.293V30H288.293ZM282.413 30H281.413V31H282.413V30ZM282.413 6.438H283.413V5.438H282.413V6.438ZM274.223 6.438H273.223V7.438H274.223V6.438ZM274.223 1.558H296.441V-0.442001H274.223V1.558ZM295.441 0.557999V6.438H297.441V0.557999H295.441ZM296.441 5.438H288.293V7.438H296.441V5.438ZM287.293 6.438V30H289.293V6.438H287.293ZM288.293 29H282.413V31H288.293V29ZM283.413 30V6.438H281.413V30H283.413ZM282.413 5.438H274.223V7.438H282.413V5.438ZM275.223 6.438V0.557999H273.223V6.438H275.223ZM320.125 11.856V12.856H321.125V11.856H320.125ZM320.125 0.599998V-0.400002H319.125V0.599998H320.125ZM326.005 0.599998H327.005V-0.400002H326.005V0.599998ZM326.005 30V31H327.005V30H326.005ZM320.125 30H319.125V31H320.125V30ZM320.125 17.736H321.125V16.736H320.125V17.736ZM309.247 17.736V16.736H308.247V17.736H309.247ZM309.247 30V31H310.247V30H309.247ZM303.367 30H302.367V31H303.367V30ZM303.367 0.599998V-0.400002H302.367V0.599998H303.367ZM309.247 0.599998H310.247V-0.400002H309.247V0.599998ZM309.247 11.856H308.247V12.856H309.247V11.856ZM321.125 11.856V0.599998H319.125V11.856H321.125ZM320.125 1.6H326.005V-0.400002H320.125V1.6ZM325.005 0.599998V30H327.005V0.599998H325.005ZM326.005 29H320.125V31H326.005V29ZM321.125 30V17.736H319.125V30H321.125ZM320.125 16.736H309.247V18.736H320.125V16.736ZM308.247 17.736V30H310.247V17.736H308.247ZM309.247 29H303.367V31H309.247V29ZM304.367 30V0.599998H302.367V30H304.367ZM303.367 1.6H309.247V-0.400002H303.367V1.6ZM308.247 0.599998V11.856H310.247V0.599998H308.247ZM309.247 12.856H320.125V10.856H309.247V12.856ZM333.563 29.958H332.563V30.958H333.563V29.958ZM333.563 0.557999V-0.442001H332.563V0.557999H333.563ZM339.443 0.557999H340.443V-0.442001H339.443V0.557999ZM339.443 29.958V30.958H340.443V29.958H339.443ZM334.563 29.958V0.557999H332.563V29.958H334.563ZM333.563 1.558H339.443V-0.442001H333.563V1.558ZM338.443 0.557999V29.958H340.443V0.557999H338.443ZM339.443 28.958H333.563V30.958H339.443V28.958ZM369.411 30L368.691 30.6938L368.986 31H369.411V30ZM352.863 12.822L353.583 12.1282L351.863 10.3425V12.822H352.863ZM352.863 30V31H353.863V30H352.863ZM346.983 30H345.983V31H346.983V30ZM346.983 0.557999V-0.442001H345.983V0.557999H346.983ZM348.831 0.557999L349.543 -0.144555L349.249 -0.442001H348.831V0.557999ZM365.085 17.022L364.373 17.7246L366.085 19.4583V17.022H365.085ZM365.085 0.557999V-0.442001H364.085V0.557999H365.085ZM370.965 0.557999H371.965V-0.442001H370.965V0.557999ZM370.965 30V31H371.965V30H370.965ZM370.131 29.3062L353.583 12.1282L352.143 13.5158L368.691 30.6938L370.131 29.3062ZM351.863 12.822V30H353.863V12.822H351.863ZM352.863 29H346.983V31H352.863V29ZM347.983 30V0.557999H345.983V30H347.983ZM346.983 1.558H348.831V-0.442001H346.983V1.558ZM348.119 1.26055L364.373 17.7246L365.797 16.3194L349.543 -0.144555L348.119 1.26055ZM366.085 17.022V0.557999H364.085V17.022H366.085ZM365.085 1.558H370.965V-0.442001H365.085V1.558ZM369.965 0.557999V30H371.965V0.557999H369.965ZM370.965 29H369.411V31H370.965V29ZM394.775 11.856V10.856H393.775V11.856H394.775ZM406.997 11.856H407.997V10.856H406.997V11.856ZM402.713 26.094L403.43 26.7908L403.433 26.7874L402.713 26.094ZM392.339 30.504L392.326 31.504H392.339V30.504ZM381.587 26.01L380.873 26.7104L380.88 26.7171L381.587 26.01ZM377.261 15.216L376.261 15.2093V15.2094L377.261 15.216ZM381.755 4.548L381.054 3.83425L381.051 3.83755L381.755 4.548ZM392.633 0.137999L392.641 -0.862001H392.633V0.137999ZM401.999 3.498L402.699 4.21214L403.502 3.4251L402.626 2.71946L401.999 3.498ZM397.757 7.656L397.192 8.48093L397.87 8.94559L398.457 8.37014L397.757 7.656ZM392.591 6.018L392.62 5.01842L392.605 5.018H392.591V6.018ZM385.913 8.748L386.609 9.4659L386.615 9.46054L386.62 9.4551L385.913 8.748ZM383.141 15.3L384.141 15.3217L384.141 15.3109V15.3H383.141ZM385.787 21.936L386.505 21.2397L386.499 21.2343L385.787 21.936ZM398.051 22.776L398.668 23.5633L398.676 23.5569L398.051 22.776ZM401.411 17.736L402.374 18.0036L402.727 16.736H401.411V17.736ZM394.775 17.736H393.775V18.736H394.775V17.736ZM394.775 12.856H406.997V10.856H394.775V12.856ZM405.997 11.856V14.838H407.997V11.856H405.997ZM405.997 14.838C405.997 19.144 404.65 22.6386 401.992 25.4006L403.433 26.7874C406.488 23.6134 407.997 19.604 407.997 14.838H405.997ZM401.996 25.3972C399.324 28.147 396.138 29.504 392.381 29.504V31.504C396.688 31.504 400.389 29.921 403.43 26.7908L401.996 25.3972ZM392.381 29.504H392.339V31.504H392.381V29.504ZM392.352 29.5041C388.38 29.4515 385.046 28.0551 382.294 25.3029L380.88 26.7171C384.008 29.8449 387.842 31.4445 392.326 31.5039L392.352 29.5041ZM382.301 25.3097C379.577 22.5338 378.235 19.1914 378.261 15.2226L376.261 15.2094C376.231 19.6966 377.773 23.5502 380.873 26.7103L382.301 25.3097ZM378.261 15.2227C378.287 11.3156 379.678 8.01256 382.459 5.25845L381.051 3.83755C377.895 6.96343 376.291 10.7724 376.261 15.2093L378.261 15.2227ZM382.455 5.26175C385.266 2.50395 388.599 1.138 392.507 1.138V-0.862001C388.071 -0.862001 384.236 0.712045 381.054 3.83425L382.455 5.26175ZM392.507 1.138H392.633V-0.862001H392.507V1.138ZM392.625 1.13797C395.898 1.16415 398.802 2.20505 401.371 4.27654L402.626 2.71946C399.708 0.366947 396.368 -0.832151 392.641 -0.861969L392.625 1.13797ZM401.299 2.78386L397.057 6.94186L398.457 8.37014L402.699 4.21214L401.299 2.78386ZM398.322 6.83107C396.643 5.68056 394.733 5.07966 392.62 5.01842L392.562 7.01758C394.313 7.06834 395.847 7.55944 397.192 8.48093L398.322 6.83107ZM392.591 5.018H392.507V7.018H392.591V5.018ZM392.507 5.018C389.666 5.018 387.213 6.03318 385.206 8.04089L386.62 9.4551C388.252 7.82282 390.196 7.018 392.507 7.018V5.018ZM385.217 8.0301C383.174 10.0106 382.141 12.4537 382.141 15.3H384.141C384.141 12.9943 384.955 11.0694 386.609 9.4659L385.217 8.0301ZM382.141 15.2783C382.079 18.1263 383.066 20.5987 385.074 22.6377L386.499 21.2343C384.867 19.5773 384.091 17.6257 384.141 15.3217L382.141 15.2783ZM385.069 22.6323C387.074 24.6992 389.53 25.75 392.381 25.75V23.75C390.08 23.75 388.139 22.9248 386.505 21.2397L385.069 22.6323ZM392.381 25.75C394.708 25.75 396.815 25.0147 398.668 23.5632L397.434 21.9888C395.927 23.1693 394.253 23.75 392.381 23.75V25.75ZM398.676 23.5569C400.515 22.0856 401.756 20.2281 402.374 18.0036L400.447 17.4684C399.945 19.2759 398.947 20.7784 397.426 21.9951L398.676 23.5569ZM401.411 16.736H394.775V18.736H401.411V16.736ZM395.775 17.736V11.856H393.775V17.736H395.775Z" fill="black" fill-opacity="0.01" mask="url(#path-1-outside-1_12_54)"/>
</svg>
